<svg width="61" height="55" viewBox="0 0 61 55" fill="none" xmlns="http://www.w3.org/2000/svg">
<path d="M4.93943 35.0416H3.1652C3.09696 35.0416 3.02872 35.0318 3.02872 34.9538C3.02872 34.8563 3.14571 34.8173 3.22369 34.8076C3.26269 34.7978 3.44791 34.7881 3.57464 34.7198C3.8086 34.5931 3.85735 34.2518 3.85735 33.657V29.6397C3.85735 28.9279 3.78911 28.8109 3.11646 28.6744C3.01897 28.6549 2.97998 28.6451 2.97998 28.5379C2.97998 28.4696 2.99948 28.4501 3.1847 28.4501H4.53974C4.67622 28.4501 4.71521 28.5086 4.78345 28.6061C5.80705 30.02 6.7819 31.2973 8.07845 33.0232C8.14669 33.111 8.17593 33.1695 8.21493 33.1695C8.25392 33.1695 8.25392 33.0524 8.25392 32.8379C8.25392 31.8239 8.24417 31.0828 8.24417 30.0687C8.24417 29.864 8.23442 29.4252 8.23442 29.2692C8.22468 28.9084 8.10769 28.7426 7.78599 28.6841C7.708 28.6744 7.55203 28.6451 7.55203 28.5379C7.55203 28.4599 7.63977 28.4501 7.747 28.4501C7.85423 28.4501 8.02971 28.4599 8.25392 28.4599C8.46839 28.4599 8.84858 28.4501 9.17028 28.4501C9.18978 28.4501 9.30676 28.4501 9.30676 28.5379C9.30676 28.6256 9.18978 28.6451 9.11179 28.6549C8.75109 28.7134 8.66336 28.8109 8.66336 29.1912C8.66336 29.4057 8.63411 31.5606 8.63411 33.6862C8.63411 34.0958 8.67311 34.6418 8.67311 34.9343C8.67311 35.0221 8.67311 35.1293 8.57562 35.1293C8.46839 35.1293 8.3904 34.9636 8.33191 34.8856C7.23033 33.4327 5.7583 31.4631 4.4715 29.7177C4.41301 29.6397 4.35452 29.552 4.30578 29.552C4.27653 29.552 4.25703 29.6105 4.25703 29.6495C4.25703 33.5985 4.26678 33.774 4.26678 34.0373C4.27653 34.6321 4.36427 34.6906 4.82245 34.8076C4.91018 34.8271 5.03692 34.8661 5.03692 34.9636C5.03692 35.0318 4.96868 35.0416 4.93943 35.0416ZM14.0432 35.1684C12.1813 35.1684 10.8262 33.618 10.8262 31.7166C10.8262 29.7665 12.2593 28.3234 14.1017 28.3234C16.1001 28.3234 17.2114 30.02 17.2114 31.7459C17.2114 33.6082 15.9149 35.1684 14.0432 35.1684ZM14.1017 34.8271C15.4957 34.8271 16.0613 33.423 16.0613 31.7751C16.0613 30.527 15.7394 28.6841 13.975 28.6841C12.2983 28.6841 11.9376 30.3515 11.9376 31.5313C11.9376 33.0427 12.5225 34.8271 14.1017 34.8271ZM21.695 33.228L22.3969 31.3558C22.5431 30.9658 22.972 29.8835 23.128 29.4349C23.167 29.3179 23.206 29.1912 23.206 29.0839C23.206 28.9279 23.1378 28.7914 22.9428 28.7134C22.7771 28.6451 22.6601 28.6451 22.6601 28.5476C22.6601 28.4891 22.7088 28.4501 22.7771 28.4501H24.522C24.5903 28.4501 24.6293 28.4989 24.6293 28.5574C24.6293 28.6549 24.522 28.6841 24.3953 28.7134C23.9956 28.8011 23.7909 28.9279 23.4984 29.552C23.3815 29.7957 23.2352 30.137 23.167 30.3125L22.6796 31.5606C21.8315 33.7447 22.2994 32.4577 21.3733 34.9831C21.3245 35.1098 21.1783 35.2269 21.0711 35.2269C20.9931 35.2269 20.9541 35.1586 20.9248 35.0611C19.755 31.4533 20.0767 32.3894 19.6283 31.0536C19.4723 30.5953 19.2481 29.903 19.0336 29.3374C18.8972 28.9767 18.7607 28.6841 18.361 28.6744C18.2538 28.6744 18.1758 28.6549 18.1758 28.5476C18.1758 28.4696 18.2245 28.4501 18.3317 28.4501H20.4959C20.6129 28.4501 20.6909 28.4696 20.6909 28.5476C20.6909 28.6549 20.5447 28.6451 20.3399 28.6841C20.1255 28.7329 20.0475 28.8792 20.0475 29.0742C20.0475 29.1912 20.0767 29.3374 20.1157 29.4837C20.1937 29.7957 20.4862 30.644 20.6811 31.2193C20.9736 32.0871 21.1101 32.4577 21.3733 33.2182C21.4513 33.4327 21.4903 33.54 21.5293 33.54C21.578 33.54 21.617 33.423 21.695 33.228ZM29.6659 30.9853V32.4772C29.6659 32.5357 29.6269 32.5844 29.5587 32.5844C29.4904 32.5844 29.4709 32.5162 29.4612 32.4674C29.3734 32.1066 29.1882 31.8824 28.6423 31.8824C28.5253 31.8824 27.4335 31.8921 27.3653 31.8921C27.297 31.8921 27.2775 31.9019 27.2775 31.9604C27.2775 32.3602 27.2678 32.7112 27.2678 33.072C27.2678 33.4327 27.2775 33.7935 27.2873 34.086C27.297 34.4468 27.3555 34.5833 27.6772 34.6321C27.9112 34.6711 28.4473 34.6808 28.6716 34.6808C29.2662 34.6808 29.6659 34.6126 29.8804 34.32C30.0071 34.1445 30.0363 33.8813 30.0753 33.7838C30.0948 33.735 30.1631 33.6667 30.2216 33.6667C30.2703 33.6667 30.2801 33.7252 30.2801 33.7838C30.2801 33.8325 30.1826 34.6516 30.1728 34.8173C30.1631 34.9246 30.1338 35.0513 29.9779 35.0513C29.1882 35.0513 28.5546 35.0123 27.8234 35.0123C27.0923 35.0123 26.4586 35.0513 25.7762 35.0513C25.6983 35.0513 25.6203 35.0318 25.6203 34.9441C25.6203 34.8856 25.6495 34.8466 25.708 34.8271C25.786 34.7978 25.8737 34.7978 25.9615 34.7686C26.2344 34.6808 26.2442 34.359 26.2539 34.1445C26.2734 33.3645 26.2929 32.5064 26.2929 31.3558V29.4252C26.2929 28.9474 26.1759 28.8597 26.02 28.7719C25.8932 28.7036 25.8347 28.7036 25.786 28.6841C25.7275 28.6646 25.6593 28.6159 25.6593 28.5574C25.6593 28.4696 25.7762 28.4501 25.8152 28.4501C26.5464 28.4501 26.9656 28.4891 27.9892 28.4891C28.7203 28.4891 29.1492 28.4696 29.3929 28.4501C29.6269 28.4306 29.8121 28.4111 29.8901 28.4111C29.9584 28.4111 29.9681 28.4306 29.9681 28.5281C29.9681 28.6256 29.9584 28.8499 29.9584 29.0839C29.9584 29.3277 29.9681 29.4739 29.9681 29.5227C29.9681 29.5715 29.9584 29.6787 29.8706 29.6787C29.8219 29.6787 29.7829 29.6495 29.7634 29.5617C29.6756 29.2204 29.7244 29.0059 29.2272 28.8889C28.9543 28.8304 28.7593 28.8304 28.5546 28.8304C28.0574 28.8304 27.8234 28.8499 27.6285 28.8987C27.3263 28.9767 27.297 29.0937 27.2873 29.2984C27.2775 29.7372 27.2775 30.332 27.2775 30.3515C27.2775 31.1218 27.2873 31.1901 27.2873 31.4338C27.2873 31.5216 27.336 31.5508 27.4335 31.5508H28.6618C29.3539 31.5508 29.3637 31.4046 29.4514 30.9853C29.4612 30.9268 29.5099 30.839 29.5684 30.839C29.6367 30.839 29.6659 30.9463 29.6659 30.9853ZM32.0301 28.4501H34.0188C34.0773 28.4501 34.1747 28.4599 34.1747 28.5476C34.1747 28.6354 34.0578 28.6646 33.9993 28.6744C33.6093 28.7524 33.5508 28.9669 33.5508 29.4544C33.5411 30.5075 33.5216 31.5703 33.5216 32.7404C33.5216 33.1207 33.5313 33.6082 33.5508 33.891C33.5996 34.5736 33.7653 34.6223 33.9798 34.6613C34.0967 34.6808 34.4282 34.7198 35.0326 34.7198C35.4615 34.7198 36.0562 34.7003 36.3779 33.7545C36.4071 33.6667 36.4754 33.4717 36.5826 33.4717C36.6314 33.4717 36.6801 33.5205 36.6801 33.5595C36.6801 33.6472 36.4169 34.6613 36.3681 34.8271C36.3194 35.0026 36.2999 35.0416 36.1244 35.0416C34.282 35.0416 33.7458 35.0318 33.0244 35.0318C32.0106 35.0318 31.9326 35.0513 31.8936 35.0513C31.8546 35.0513 31.7961 35.0318 31.7961 34.9538C31.7961 34.8563 31.9033 34.8271 31.9813 34.8076C32.2738 34.7393 32.5467 34.6613 32.5467 34.047C32.5467 33.1207 32.5565 32.2821 32.5565 31.0243C32.5565 31.0048 32.5565 30.9853 32.5467 29.8055C32.5467 29.1229 32.5272 28.7524 32.0593 28.6744C31.9911 28.6646 31.8546 28.6354 31.8546 28.5476C31.8546 28.4794 31.9521 28.4501 32.0301 28.4501ZM38.1412 28.4501H40.1299C40.1883 28.4501 40.2858 28.4599 40.2858 28.5476C40.2858 28.6354 40.1688 28.6646 40.1104 28.6744C39.7204 28.7524 39.6619 28.9669 39.6619 29.4544C39.6522 30.5075 39.6327 31.5703 39.6327 32.7404C39.6327 33.1207 39.6424 33.6082 39.6619 33.891C39.7107 34.5736 39.8764 34.6223 40.0909 34.6613C40.2078 34.6808 40.5393 34.7198 41.1437 34.7198C41.5726 34.7198 42.1673 34.7003 42.489 33.7545C42.5182 33.6667 42.5865 33.4717 42.6937 33.4717C42.7425 33.4717 42.7912 33.5205 42.7912 33.5595C42.7912 33.6472 42.528 34.6613 42.4792 34.8271C42.4305 35.0026 42.411 35.0416 42.2355 35.0416C40.3931 35.0416 39.8569 35.0318 39.1355 35.0318C38.1217 35.0318 38.0437 35.0513 38.0047 35.0513C37.9657 35.0513 37.9072 35.0318 37.9072 34.9538C37.9072 34.8563 38.0144 34.8271 38.0924 34.8076C38.3849 34.7393 38.6578 34.6613 38.6578 34.047C38.6578 33.1207 38.6676 32.2821 38.6676 31.0243C38.6676 31.0048 38.6676 30.9853 38.6578 29.8055C38.6578 29.1229 38.6383 28.7524 38.1704 28.6744C38.1022 28.6646 37.9657 28.6354 37.9657 28.5476C37.9657 28.4794 38.0632 28.4501 38.1412 28.4501ZM50.0624 35.0416H47.8592C47.8007 35.0416 47.6837 35.0416 47.6837 34.9538C47.6837 34.8661 47.8105 34.8368 47.9469 34.8173C48.0737 34.7978 48.2881 34.7491 48.2881 34.6126C48.2881 34.4175 47.8105 33.1207 47.674 32.8184C47.6252 32.7112 47.5862 32.6332 47.4595 32.6234C47.3523 32.6137 47.1768 32.6137 46.9721 32.6137H45.9875C45.773 32.6137 45.6073 32.6137 45.5196 32.6332C45.4318 32.6527 45.3733 32.6819 45.3051 32.8574C45.1881 33.1305 44.8957 34.0373 44.8177 34.3005C44.7884 34.3883 44.7592 34.4858 44.7592 34.5833C44.7592 34.7588 44.8567 34.7783 45.0711 34.8173C45.2369 34.8466 45.3246 34.8661 45.3246 34.9538C45.3246 35.0416 45.2466 35.0416 45.2076 35.0416H43.5796C43.5016 35.0416 43.4529 35.0221 43.4529 34.9538C43.4529 34.8953 43.5114 34.8271 43.5601 34.8173C43.6283 34.7978 43.7648 34.8076 43.8818 34.7783C44.1938 34.7003 44.3497 34.32 44.457 34.0275C45.3928 31.5021 45.6463 30.8195 45.8608 30.2638L46.3189 29.0839C46.3872 28.9182 46.4847 28.6256 46.5139 28.5476C46.5821 28.3916 46.7186 28.3429 46.9136 28.3429C47.0696 28.3429 47.0988 28.3721 47.1768 28.5671C47.284 28.8304 47.5277 29.4934 47.791 30.2442C47.8202 30.3223 49.0193 33.7545 49.3312 34.4078C49.5164 34.7881 49.6822 34.7978 50.0429 34.8076C50.1208 34.8076 50.1696 34.8661 50.1696 34.9441C50.1696 35.0318 50.1014 35.0416 50.0624 35.0416ZM45.734 32.2724H47.1963C47.2645 32.2724 47.3815 32.2529 47.3815 32.2041C47.3815 32.0774 46.6894 29.9127 46.6114 29.6787C46.5919 29.6202 46.5724 29.5812 46.5432 29.5812C46.5237 29.5812 46.4944 29.6105 46.4652 29.6787C46.3872 29.8835 45.5975 32.1164 45.5975 32.1749C45.5975 32.2529 45.6365 32.2724 45.734 32.2724ZM57.8053 35.0416H55.5729C55.5241 35.0416 55.4851 35.0123 55.4851 34.9538C55.4851 34.8661 55.5729 34.8368 55.6508 34.8173C55.953 34.7393 56.2455 34.7393 56.265 34.164C56.2747 33.8813 56.2942 32.1846 56.2942 32.0579C56.2942 31.9311 56.2747 31.8239 56.0408 31.8239H53.0967C52.9408 31.8239 52.9018 31.8921 52.9018 32.0676V32.3211C52.9018 33.306 52.9213 33.969 52.9213 33.9983C52.9408 34.7296 53.009 34.7491 53.3892 34.8173C53.4574 34.8271 53.5549 34.8661 53.5549 34.9538C53.5549 35.0416 53.4379 35.0416 53.4087 35.0416H51.3712C51.3225 35.0416 51.2835 35.0123 51.2835 34.9538C51.2835 34.8661 51.3712 34.8368 51.4492 34.8173C51.8197 34.7198 51.8879 34.7003 51.9074 34.164C51.9172 33.7935 51.9367 31.8921 51.9367 31.5801C51.9367 31.5801 51.9367 31.4436 51.9269 30.176C51.9172 29.1912 51.9074 28.6939 51.4687 28.6744C51.4005 28.6744 51.303 28.6646 51.303 28.5671C51.303 28.4891 51.3615 28.4501 51.4395 28.4501H53.4574C53.5062 28.4501 53.6232 28.4794 53.6232 28.5574C53.6232 28.6354 53.5159 28.6451 53.3989 28.6744C53.0285 28.7719 52.931 28.9767 52.9213 29.4837C52.9213 29.669 52.9018 30.332 52.9018 31.0926V31.2096C52.9018 31.3753 52.9018 31.4826 53.087 31.4826H56.1578C56.2455 31.4826 56.2845 31.4338 56.2845 31.3656V30.176C56.2845 29.2009 56.265 28.7329 55.8263 28.6744C55.7581 28.6646 55.6606 28.6646 55.6606 28.5671C55.6606 28.4891 55.7191 28.4501 55.7971 28.4501H57.737C57.8345 28.4501 57.9027 28.4501 57.9027 28.5281C57.9027 28.6061 57.8248 28.6451 57.7078 28.6744C57.3081 28.7914 57.2886 28.8597 57.2788 29.4837C57.2788 29.7372 57.2593 30.9073 57.2593 32.0286C57.2593 33.15 57.2788 33.969 57.2788 33.9983C57.2983 34.7296 57.3666 34.7491 57.7858 34.8173C57.854 34.8271 57.9515 34.8661 57.9515 34.9538C57.9515 35.0416 57.8345 35.0416 57.8053 35.0416Z" fill="black"/>
<path d="M12.7822 47.0776V44.2706H13.9209C14.0574 44.2706 14.1811 44.2905 14.292 44.3303C14.4029 44.3673 14.4981 44.4213 14.5777 44.4924C14.6574 44.5607 14.7185 44.646 14.7611 44.7484C14.8038 44.8508 14.8251 44.9659 14.8251 45.0939C14.8251 45.293 14.7697 45.4594 14.6588 45.593C14.5479 45.7266 14.3986 45.8178 14.211 45.866L14.9104 47.0776H14.5522L13.8783 45.9087H13.1021V47.0776H12.7822ZM13.1021 44.5735V45.6016H13.9209C14.1086 45.6016 14.2522 45.5589 14.3517 45.4736C14.4512 45.3854 14.501 45.2589 14.501 45.0939C14.501 44.9289 14.4512 44.8009 14.3517 44.71C14.2522 44.619 14.1086 44.5735 13.9209 44.5735H13.1021ZM20.3728 47.0776H18.4707V44.2706H20.3515V44.5735H18.7905V45.4821H20.3302V45.785H18.7905V46.7747H20.3728V47.0776ZM25.5018 44.791C25.4762 44.7598 25.4407 44.7284 25.3951 44.6972C25.3498 44.666 25.2986 44.6375 25.2416 44.6119C25.1848 44.5863 25.1222 44.5663 25.0539 44.5521C24.9886 44.5351 24.919 44.5265 24.845 44.5265C24.6687 44.5265 24.5309 44.5663 24.4313 44.646C24.3347 44.7228 24.2863 44.8265 24.2863 44.9574C24.2863 45.0286 24.3006 45.0896 24.3289 45.1408C24.3574 45.192 24.3958 45.2376 24.4441 45.2773C24.4952 45.3144 24.5536 45.347 24.6189 45.3755C24.6872 45.404 24.7597 45.4309 24.8364 45.4565C24.9473 45.4935 25.0611 45.5319 25.1776 45.5717C25.2943 45.6087 25.3994 45.6584 25.4932 45.721C25.59 45.7836 25.6696 45.8618 25.7321 45.9556C25.7947 46.0495 25.8259 46.1718 25.8259 46.3225C25.8259 46.4448 25.8018 46.5558 25.7534 46.6552C25.708 46.752 25.6425 46.8358 25.5572 46.9069C25.4719 46.9752 25.3696 47.0278 25.2501 47.0648C25.1336 47.1018 25.0043 47.1202 24.862 47.1202C24.7341 47.1202 24.6147 47.1074 24.5038 47.0818C24.3958 47.0562 24.2977 47.025 24.2095 46.988C24.1214 46.951 24.0474 46.9126 23.9877 46.8728C23.928 46.8301 23.8826 46.7931 23.8512 46.7619L24.0602 46.5059C24.0831 46.5259 24.1172 46.5529 24.1626 46.587C24.211 46.6211 24.2692 46.6539 24.3374 46.6851C24.4057 46.7163 24.484 46.7435 24.572 46.7662C24.6602 46.7889 24.7554 46.8003 24.8578 46.8003C25.0512 46.8003 25.2061 46.759 25.3226 46.6766C25.4393 46.5913 25.4975 46.4774 25.4975 46.3353C25.4975 46.2556 25.4791 46.1889 25.4421 46.1348C25.4052 46.078 25.3554 46.0295 25.2928 45.9898C25.2331 45.95 25.1635 45.9159 25.0838 45.8874C25.0043 45.8561 24.9217 45.8263 24.8364 45.7978C24.7313 45.7637 24.6261 45.7266 24.5208 45.6869C24.4185 45.6471 24.3246 45.5973 24.2393 45.5376C24.1569 45.4778 24.0887 45.404 24.0346 45.3157C23.9834 45.2248 23.9578 45.1124 23.9578 44.9787C23.9578 44.7398 24.0375 44.5521 24.1967 44.4156C24.3588 44.2762 24.5749 44.2066 24.845 44.2066C25.0355 44.2066 25.2075 44.2394 25.361 44.3047C25.5146 44.3673 25.6312 44.4455 25.7108 44.5393L25.5018 44.791ZM31.3248 44.5735H30.4164V47.0776H30.0965V44.5735H29.1838V44.2706H31.3248V44.5735ZM35.6859 45.9471L34.6836 44.2706H35.0334L35.848 45.6442L36.6626 44.2706H37.0123L36.01 45.9471V47.0776H35.6859V45.9471ZM42.3892 47.0776H40.487V44.2706H40.8069V46.7747H42.3892V47.0776ZM47.8485 47.0776H45.9464V44.2706H47.8272V44.5735H46.2662V45.4821H47.8059V45.785H46.2662V46.7747H47.8485V47.0776Z" fill="black"/>
<path d="M28.1813 21.3297H24.8273C24.6983 21.3297 24.5693 21.3112 24.5693 21.1637C24.5693 20.9794 24.7905 20.9057 24.9378 20.8872C25.0115 20.8688 25.3617 20.8503 25.6013 20.7213C26.0436 20.4818 26.1358 19.8366 26.1358 18.7122V11.1179C26.1358 9.77228 26.0067 9.55108 24.7352 9.29302C24.5509 9.25617 24.4771 9.23773 24.4771 9.03496C24.4771 8.90593 24.514 8.86908 24.8642 8.86908H27.0203C27.2783 8.86908 27.352 8.97967 27.4811 9.16399C29.416 11.8367 31.6642 14.7307 34.1154 17.9932C34.2444 18.1592 34.2997 18.2882 34.3732 18.2882C34.447 18.2882 34.447 18.0485 34.447 17.6431C34.447 15.7261 34.4285 13.8459 34.4285 11.9289C34.4285 11.5418 34.4101 10.7124 34.4101 10.4174C34.3917 9.73541 34.1707 9.42205 33.5624 9.31146C33.415 9.29302 33.1201 9.23773 33.1201 9.03496C33.1201 8.8875 33.286 8.86908 33.4887 8.86908C33.6915 8.86908 34.0232 8.8875 34.447 8.8875C34.8524 8.8875 35.5712 8.86908 36.1793 8.86908C36.2162 8.86908 36.4373 8.86908 36.4373 9.03496C36.4373 9.20086 36.2162 9.23773 36.0687 9.25617C35.3869 9.36676 35.2211 9.55108 35.2211 10.27C35.2211 10.6755 35.1658 14.7491 35.1658 18.7675C35.1658 19.5416 35.2395 20.574 35.2395 21.1269C35.2395 21.2928 35.2395 21.4956 35.0552 21.4956C34.8524 21.4956 34.705 21.1822 34.5944 21.0347C32.512 18.2882 29.6924 14.5648 27.2599 11.2653C27.1493 11.1179 27.0756 10.952 26.9834 10.952C26.9281 10.952 26.8913 11.0626 26.8913 11.1363C26.8913 18.6016 26.9097 18.9334 26.9097 19.431C26.9281 20.5555 27.094 20.666 27.9601 20.8872C28.126 20.9241 28.3656 20.9978 28.3656 21.1822C28.3656 21.3112 28.2366 21.3297 28.1813 21.3297Z" fill="black"/>
<path d="M30.6164 5.94183H21.0202V23.6911H39.5271V10.8934" stroke="black" stroke-width="0.583784"/>
<path d="M39.5897 2.65698C39.5897 2.65698 39.6636 4.50532 40.3486 5.15097C41.0336 5.7966 42.8421 5.91004 42.8421 5.91004C42.8421 5.91004 41.2159 5.91004 40.3486 6.66913C39.4813 7.42822 39.5897 9.16312 39.5897 9.16312C39.5897 9.16312 39.5501 7.42822 38.8307 6.66913C38.1113 5.91004 36.3374 5.91004 36.3374 5.91004C36.3374 5.91004 38.1457 5.7966 38.8307 5.15097C39.5157 4.50532 39.5897 2.65698 39.5897 2.65698Z" fill="black"/>
<path d="M3.19876 39.3075H21.9342" stroke="black" stroke-width="0.583784"/>
<path d="M37.7754 39.3075H57.4247" stroke="black" stroke-width="0.583784"/>
<path d="M30.3373 36.4127C30.3373 36.4127 30.3932 37.8122 30.9121 38.3012C31.4307 38.7901 32.8001 38.876 32.8001 38.876C32.8001 38.876 31.5687 38.876 30.9121 39.4508C30.2552 40.0255 30.3373 41.3393 30.3373 41.3393C30.3373 41.3393 30.3075 40.0255 29.7626 39.4508C29.2179 38.876 27.8746 38.876 27.8746 38.876C27.8746 38.876 29.244 38.7901 29.7626 38.3012C30.2813 37.8122 30.3373 36.4127 30.3373 36.4127Z" fill="black"/>
</svg>
