<svg width="70" height="29" viewBox="0 0 70 29" fill="none" xmlns="http://www.w3.org/2000/svg">
<g clip-path="url(#clip0_77_2023)">
<path d="M12.6783 3.67071C11.8656 4.6324 10.5652 5.39093 9.26492 5.28257C9.10238 3.98224 9.739 2.60065 10.484 1.74731C11.2967 0.758522 12.7189 0.0541802 13.8702 0C14.0057 1.3545 13.4774 2.68192 12.6783 3.67071ZM13.8567 5.53992C11.9739 5.43156 10.3621 6.60998 9.4681 6.60998C8.56058 6.60998 7.19253 5.5941 5.70257 5.62119C3.76563 5.64828 1.96414 6.74543 0.975355 8.49274C-1.0564 11.9874 0.447098 17.1616 2.41113 20.006C3.37283 21.4147 4.52416 22.9588 6.0412 22.9047C7.47697 22.8505 8.04587 21.9701 9.77963 21.9701C11.5269 21.9701 12.0281 22.9047 13.5452 22.8776C15.1164 22.8505 16.1052 21.4689 17.0669 20.0602C18.164 18.4619 18.611 16.9042 18.6381 16.8229C18.611 16.7959 15.604 15.6445 15.5769 12.177C15.5498 9.27835 17.9473 7.89676 18.0557 7.81549C16.7011 5.81082 14.5881 5.5941 13.8567 5.53992ZM24.7334 1.61186V22.7286H28.0113V15.5091H32.5488C36.6936 15.5091 39.6058 12.6646 39.6058 8.54692C39.6058 4.42923 36.7478 1.61186 32.6572 1.61186H24.7334ZM28.0113 4.37505H31.7903C34.6348 4.37505 36.2602 5.89209 36.2602 8.56047C36.2602 11.2288 34.6348 12.7594 31.7768 12.7594H28.0113V4.37505ZM45.5927 22.8911C47.6516 22.8911 49.5614 21.8482 50.4283 20.1957H50.496V22.7286H53.5301V12.2176C53.5301 9.16999 51.092 7.20596 47.34 7.20596C43.859 7.20596 41.2854 9.19708 41.1906 11.9332H44.1434C44.3872 10.6329 45.5927 9.77952 47.2452 9.77952C49.2499 9.77952 50.3741 10.7141 50.3741 12.4343V13.5992L46.2835 13.843C42.4774 14.0733 40.4185 15.631 40.4185 18.34C40.4185 21.0761 42.5451 22.8911 45.5927 22.8911ZM46.4731 20.3853C44.7258 20.3853 43.6151 19.5455 43.6151 18.2587C43.6151 16.9313 44.6852 16.1592 46.7305 16.0373L50.3741 15.8071V16.999C50.3741 18.9766 48.6945 20.3853 46.4731 20.3853ZM57.5801 28.4717C60.7767 28.4717 62.2802 27.2526 63.5941 23.5548L69.3507 7.40914H66.0186L62.1583 19.8841H62.0906L58.2302 7.40914H54.8033L60.3568 22.7828L60.0588 23.7174C59.5577 25.3021 58.745 25.9117 57.2956 25.9117C57.0383 25.9117 56.5371 25.8846 56.3339 25.8575V28.3904C56.5236 28.4446 57.3363 28.4717 57.5801 28.4717Z" fill="white"/>
</g>
<defs>
<clipPath id="clip0_77_2023">
<rect width="69.3506" height="28.4717" fill="white"/>
</clipPath>
</defs>
</svg>
