<svg width="55" height="43" viewBox="0 0 55 43" fill="none" xmlns="http://www.w3.org/2000/svg">
<g clip-path="url(#clip0_77_2026)">
<path d="M9.83525 42.0511V39.2542C9.83525 38.1844 9.18355 37.4838 8.06481 37.4838C7.50543 37.4838 6.89718 37.6684 6.47901 38.2767C6.15316 37.7662 5.68611 37.4838 4.98553 37.4838C4.51848 37.4838 4.05143 37.625 3.68214 38.1355V37.5761H2.70459V42.0511H3.68214V39.5801C3.68214 38.7872 4.10031 38.4125 4.75201 38.4125C5.40371 38.4125 5.72955 38.8306 5.72955 39.5801V42.0511H6.7071V39.5801C6.7071 38.7872 7.17415 38.4125 7.77697 38.4125C8.42867 38.4125 8.75452 38.8306 8.75452 39.5801V42.0511H9.83525ZM24.3355 37.5761H22.7497V36.2238H21.7722V37.5761H20.887V38.4613H21.7722V40.5142C21.7722 41.5406 22.1904 42.1434 23.3091 42.1434C23.7273 42.1434 24.1943 42.0022 24.5202 41.8176L24.2378 40.9758C23.9554 41.1605 23.6295 41.2093 23.396 41.2093C22.929 41.2093 22.7443 40.9269 22.7443 40.4653V38.4613H24.3301V37.5761H24.3355ZM32.6338 37.4784C32.0744 37.4784 31.6997 37.7608 31.4662 38.1301V37.5707H30.4887V42.0457H31.4662V39.5258C31.4662 38.7818 31.792 38.3581 32.4003 38.3581C32.5849 38.3581 32.8185 38.407 33.0085 38.4505L33.291 37.5164C33.0954 37.4784 32.8185 37.4784 32.6338 37.4784ZM20.0941 37.9454C19.627 37.6196 18.9753 37.4784 18.2747 37.4784C17.156 37.4784 16.412 38.0377 16.412 38.923C16.412 39.667 16.9713 40.0906 17.9489 40.2264L18.4159 40.2752C18.9264 40.3675 19.2088 40.5088 19.2088 40.7423C19.2088 41.0681 18.8341 41.3017 18.1824 41.3017C17.5307 41.3017 17.0148 41.0681 16.6889 40.8346L16.2219 41.5786C16.7324 41.9533 17.433 42.138 18.1335 42.138C19.4369 42.138 20.1864 41.5297 20.1864 40.6934C20.1864 39.9005 19.5781 39.4823 18.6495 39.3411L18.1824 39.2922C17.7642 39.2434 17.4384 39.151 17.4384 38.8741C17.4384 38.5482 17.7642 38.3636 18.2802 38.3636C18.8395 38.3636 19.3989 38.5971 19.6813 38.7383L20.0941 37.9454ZM46.1022 37.4784C45.5429 37.4784 45.1681 37.7608 44.9346 38.1301V37.5707H43.9571V42.0457H44.9346V39.5258C44.9346 38.7818 45.2605 38.3581 45.8687 38.3581C46.0534 38.3581 46.2869 38.407 46.477 38.4505L46.7594 37.5272C46.5693 37.4784 46.2923 37.4784 46.1022 37.4784ZM33.6114 39.8136C33.6114 41.1659 34.5455 42.1434 35.9901 42.1434C36.6418 42.1434 37.1088 42.0022 37.5759 41.6329L37.1088 40.84C36.7341 41.1224 36.3648 41.2582 35.9412 41.2582C35.1483 41.2582 34.5889 40.6988 34.5889 39.8136C34.5889 38.9718 35.1483 38.4125 35.9412 38.369C36.3594 38.369 36.7341 38.5102 37.1088 38.7872L37.5759 37.9943C37.1088 37.6196 36.6418 37.4838 35.9901 37.4838C34.5455 37.4784 33.6114 38.4613 33.6114 39.8136ZM42.6537 39.8136V37.5761H41.6761V38.1355C41.3503 37.7173 40.8832 37.4838 40.275 37.4838C39.015 37.4838 38.0375 38.4613 38.0375 39.8136C38.0375 41.1659 39.015 42.1434 40.275 42.1434C40.9267 42.1434 41.3937 41.9099 41.6761 41.4917V42.0511H42.6537V39.8136ZM39.0639 39.8136C39.0639 39.0207 39.5744 38.369 40.4162 38.369C41.2091 38.369 41.7685 38.9773 41.7685 39.8136C41.7685 40.6065 41.2091 41.2582 40.4162 41.2582C39.5798 41.2093 39.0639 40.6011 39.0639 39.8136ZM27.3659 37.4784C26.0625 37.4784 25.1284 38.4125 25.1284 39.8082C25.1284 41.2093 26.0625 42.138 27.4148 42.138C28.0665 42.138 28.7182 41.9534 29.2341 41.5297L28.7671 40.8292C28.3924 41.1116 27.9253 41.2962 27.4637 41.2962C26.8554 41.2962 26.2526 41.0138 26.1114 40.2264H29.4188C29.4188 40.0851 29.4188 39.9928 29.4188 39.8516C29.4622 38.4125 28.6204 37.4784 27.3659 37.4784ZM27.3659 38.3201C27.9742 38.3201 28.3924 38.6949 28.4847 39.39H26.1549C26.2472 38.7872 26.6654 38.3201 27.3659 38.3201ZM51.6525 39.8136V35.8057H50.675V38.1355C50.3491 37.7173 49.8821 37.4838 49.2738 37.4838C48.0139 37.4838 47.0363 38.4613 47.0363 39.8136C47.0363 41.1659 48.0139 42.1434 49.2738 42.1434C49.9255 42.1434 50.3926 41.9099 50.675 41.4917V42.0511H51.6525V39.8136ZM48.0628 39.8136C48.0628 39.0207 48.5733 38.369 49.415 38.369C50.2079 38.369 50.7673 38.9773 50.7673 39.8136C50.7673 40.6065 50.2079 41.2582 49.415 41.2582C48.5733 41.2093 48.0628 40.6011 48.0628 39.8136ZM15.3367 39.8136V37.5761H14.3591V38.1355C14.0333 37.7173 13.5662 37.4838 12.958 37.4838C11.698 37.4838 10.7205 38.4613 10.7205 39.8136C10.7205 41.1659 11.698 42.1434 12.958 42.1434C13.6097 42.1434 14.0767 41.9099 14.3591 41.4917V42.0511H15.3367V39.8136ZM11.7035 39.8136C11.7035 39.0207 12.2139 38.369 13.0557 38.369C13.8486 38.369 14.408 38.9773 14.408 39.8136C14.408 40.6065 13.8486 41.2582 13.0557 41.2582C12.2139 41.2093 11.7035 40.6011 11.7035 39.8136Z" fill="white"/>
<path d="M34.4531 3.58984H19.7682V29.9728H34.4531V3.58984Z" fill="#FF5A00"/>
<path d="M20.7457 16.7812C20.7457 11.421 23.2656 6.66361 27.1324 3.58977C24.2866 1.35227 20.6968 0 16.7812 0C7.50539 0 0 7.50539 0 16.7812C0 26.0571 7.50539 33.5625 16.7812 33.5625C20.6968 33.5625 24.2866 32.2102 27.1324 29.9727C23.2602 26.9423 20.7457 22.1414 20.7457 16.7812Z" fill="#EB001B"/>
<path d="M54.2647 16.7812C54.2647 26.0571 46.7593 33.5625 37.4835 33.5625C33.5678 33.5625 29.9781 32.2102 27.1323 29.9727C31.0479 26.8934 33.519 22.1414 33.519 16.7812C33.519 11.421 30.9991 6.66361 27.1323 3.58977C29.9726 1.35227 33.5624 0 37.478 0C46.7593 0 54.2647 7.55427 54.2647 16.7812Z" fill="#F79E1B"/>
</g>
<defs>
<clipPath id="clip0_77_2026">
<rect width="54.2647" height="42.1431" fill="white"/>
</clipPath>
</defs>
</svg>
