<svg width="71" height="23" viewBox="0 0 71 23" fill="none" xmlns="http://www.w3.org/2000/svg">
<g clip-path="url(#clip0_77_2015)">
<path d="M30.7524 22.6367H25.0035L28.5993 0.40332H34.3478L30.7524 22.6367Z" fill="white"/>
<path d="M51.5925 0.946561C50.4586 0.496701 48.6601 0 46.4362 0C40.7591 0 36.7612 3.02736 36.7367 7.35557C36.6896 10.5489 39.599 12.3226 41.7751 13.3873C43.9992 14.4754 44.7553 15.1855 44.7553 16.1553C44.7327 17.6448 42.9581 18.3314 41.3029 18.3314C39.0077 18.3314 37.7779 17.9774 35.909 17.1488L35.152 16.7935L34.3475 21.7844C35.6959 22.3987 38.18 22.9438 40.7591 22.9677C46.7911 22.9677 50.7182 19.9872 50.7648 15.3748C50.7877 12.8438 49.2514 10.9045 45.9392 9.31974C43.9285 8.30245 42.6971 7.6165 42.6971 6.57563C42.7207 5.62938 43.7386 4.66018 46.0084 4.66018C47.8773 4.61272 49.2504 5.06195 50.2907 5.51149L50.8106 5.74758L51.5925 0.946561Z" fill="white"/>
<path d="M59.2331 14.7602C59.7066 13.4829 61.5283 8.53947 61.5283 8.53947C61.5045 8.58694 62.0008 7.23862 62.2847 6.41089L62.6865 8.32664C62.6865 8.32664 63.7751 13.6486 64.0115 14.7602C63.1131 14.7602 60.3686 14.7602 59.2331 14.7602ZM66.3294 0.40332H61.8826C60.5114 0.40332 59.4696 0.805082 58.8779 2.24803L50.3387 22.6363H56.3708C56.3708 22.6363 57.3639 19.8922 57.5774 19.3012C58.2391 19.3012 64.1071 19.3012 64.9584 19.3012C65.1234 20.0818 65.6444 22.6363 65.6444 22.6363H70.9672L66.3294 0.40332Z" fill="white"/>
<path d="M20.2019 0.40332L14.5719 15.5643L13.9567 12.4895C12.9158 8.94154 9.65144 5.08677 6.00854 3.17007L11.1654 22.6131H17.2447L26.2808 0.40332H20.2019Z" fill="white"/>
<path d="M9.34395 0.40332H0.0946242L0 0.852551C7.21505 2.69757 11.9934 7.14493 13.9567 12.4904L11.946 2.27224C11.6149 0.852237 10.5976 0.450161 9.34395 0.40332Z" fill="#FAA61A"/>
</g>
<defs>
<clipPath id="clip0_77_2015">
<rect width="70.9672" height="22.9677" fill="white"/>
</clipPath>
</defs>
</svg>
