<svg width="707" height="1692" viewBox="0 0 707 1692" fill="none" xmlns="http://www.w3.org/2000/svg">
<path opacity="0.25" d="M702.209 914.738C696.716 853.254 664.941 691.446 583.997 519.129C535.391 415.651 475.845 321.946 407.013 240.619C323.502 141.946 225.75 60.992 116.477 0L116.04 0.779893L115.213 1.12333C277.205 390.929 186.662 602.376 99.1013 806.862C49.7018 922.227 3.04248 1031.19 0.141151 1169C-1.41601 1243.01 9.89754 1318.38 34.7316 1399.41C62.4973 1489.99 106.397 1585.55 168.939 1691.53C168.944 1691.54 168.948 1691.55 168.953 1691.56C168.957 1691.57 168.959 1691.57 168.962 1691.57L168.966 1691.58L169.736 1691.13L169.916 1692C171.59 1691.65 173.772 1691.24 176.43 1690.73C299.952 1667.03 405.944 1618.31 491.468 1545.89C564.783 1483.82 620.243 1405.72 656.307 1313.78C700.382 1201.41 715.826 1067.16 702.209 914.738ZM133.13 36.3791C307.784 391.933 233.314 620.001 167.359 821.969C160.317 843.529 153.668 863.895 147.341 884.365C140.237 907.349 132.944 930.116 125.892 952.135C60.1974 1157.2 2.60395 1337.12 122.262 1600.48C-31.9417 1284.25 36.9474 1088.74 109.531 882.772C117.723 859.522 126.251 836.716 135.278 812.57C173.802 709.525 213.638 602.97 221.891 473.2C230.606 336.18 201.527 192.932 133.13 36.3791ZM134.664 35.5062C328.262 389.221 257.992 635.981 201.183 835.471C196.139 853.183 191.373 869.914 186.841 886.55C173.535 935.383 159.097 981.518 145.132 1026.13C111.543 1133.46 79.8176 1234.83 75.7422 1340.52C72.2502 1431.16 89.2446 1518.51 128.714 1610.19C3.01377 1341.71 61.1567 1160.08 127.596 952.68C134.649 930.659 141.946 907.887 149.05 884.895C155.372 864.439 162.021 844.08 169.061 822.526C201.727 722.489 238.754 609.107 242.086 476.123C245.639 334.425 210.442 189.932 134.664 35.5062ZM263.256 481.784C261.624 334.438 220.017 187.85 136.283 34.78C350.321 387.88 284.205 654.815 235.523 851.335C232.307 864.321 229.267 876.588 226.345 888.734C207.922 965.291 186.002 1033.3 164.803 1099.08C105.699 1282.46 57.7417 1431.34 136.174 1622.71C32.1506 1393.25 83.3973 1229.38 146.844 1026.67C160.811 982.037 175.255 935.884 188.57 887.022C193.1 870.394 197.863 853.669 202.907 835.961C231.904 734.127 264.772 618.708 263.256 481.784ZM285.518 489.717C278.581 335.751 230.22 186.33 137.932 34.0716C374.028 387.447 312.051 675.843 270.616 868.625C268.986 876.218 267.387 883.646 265.846 890.912C243.287 997.243 211.616 1089.07 183.673 1170.09C126.652 1335.42 80.3456 1469.73 142.015 1631.99C58.0066 1436.35 106.502 1285.8 166.508 1099.62C187.718 1033.82 209.647 965.772 228.086 889.15C231.007 877.01 234.044 864.745 237.261 851.762C261.601 753.501 291.894 631.211 285.518 489.717ZM230.595 1366.18C287.079 1250.64 357.375 1106.85 386.134 897.691C399.458 800.794 411.162 669.997 383.172 517.353C350.439 338.854 270.387 175.664 145.075 31.6622C365.778 264.894 462.104 564.049 423.868 899.623C395.642 1147.36 305.083 1306.7 238.958 1423.05C185.194 1517.64 144.671 1588.96 160.158 1662.95C131.628 1568.64 173.943 1482.06 230.595 1366.18ZM156.339 1656.09C116.878 1540.95 160.069 1439.78 217.864 1304.46C262.821 1199.19 318.772 1068.18 346.622 895.554C363.561 790.567 379.85 666.077 358.594 517.06C333.764 342.997 261.307 180.046 143.099 32.1058C454.232 389.185 401.894 769.937 384.362 897.446C355.641 1106.32 285.415 1249.97 228.986 1365.39C173.619 1478.65 131.898 1564.01 156.339 1656.09ZM344.855 895.27C317.039 1067.68 261.137 1198.58 216.218 1303.75C159.616 1436.29 116.978 1536.14 151.975 1648.54C99.8083 1510.07 143.801 1394.15 202.658 1239.14C239.55 1141.97 281.366 1031.83 307.109 893.42L308.326 886.888C325.872 792.695 349.903 663.698 333.667 511.454C324.793 428.237 304.43 346.249 273.14 267.77C241.252 187.791 197.074 109.003 141.585 33.0717C426.424 389.609 369.553 742.187 344.855 895.27ZM240.515 1423.93C306.716 1307.45 397.38 1147.92 425.647 899.825C463.922 563.876 367.55 264.357 146.711 30.7857C473.797 349.508 477.618 743.73 463.373 901.8C437.318 1190.94 326.631 1355.94 245.811 1476.41C194.181 1553.37 155.313 1611.37 163.507 1669.4C144.114 1593.57 185.304 1521.08 240.515 1423.93ZM306.569 886.558L305.352 893.091C279.635 1031.35 237.85 1141.4 200.984 1238.5C168.905 1322.99 141.2 1395.96 131.181 1468.39C122.824 1528.8 127.841 1584.39 146.98 1639.78C80.6696 1474.28 127.486 1338.5 185.364 1170.68C213.325 1089.61 245.014 997.726 267.597 891.286C269.136 884.024 270.734 876.595 272.365 869.004C293.694 769.764 320.24 646.256 308.962 499.643C302.833 419.984 285.667 340.747 257.942 264.132C229.951 186.789 190.254 109.398 139.74 33.5941C399.327 388.524 339.278 710.956 306.569 886.558ZM247.298 1477.41C328.226 1356.77 439.06 1191.56 465.157 901.961C479.403 743.874 475.615 349.962 149.464 30.9664C517.95 364.023 508.727 814.764 502.882 903.979C481.037 1237.34 341.503 1410.58 249.17 1525.22C200.714 1585.39 164.205 1630.76 166.181 1674.54C154.798 1615.35 194.29 1556.42 247.298 1477.41ZM250.565 1526.35C343.039 1411.53 482.786 1238.02 504.668 904.095C508.366 847.655 511.205 697.079 457.806 518.29C400.401 326.085 297.231 161.998 150.915 29.8699C551.576 364.569 544.598 850.423 542.387 906.157C527.285 1286.99 352.79 1463.69 248.531 1569.27C202.891 1615.49 170.928 1647.88 168.309 1678.87C163.584 1634.38 200.712 1588.24 250.565 1526.35ZM249.806 1570.53C354.246 1464.77 529.044 1287.75 544.177 906.227C545.879 863.294 546.493 708.457 482.907 518.573C450.907 423.016 407.367 333.603 353.5 252.817C297.816 169.31 230.561 94.3696 153.214 29.4925C313.193 153.541 431.92 318.128 506.411 519.439C563.706 674.272 582.884 825.708 581.898 908.34C576.734 1340.75 359.725 1514.8 243.139 1608.31C203.429 1640.16 175.638 1662.46 169.936 1683.05C169.897 1651.47 202.42 1618.51 249.806 1570.53ZM244.259 1609.7C361.075 1516.01 578.513 1341.62 583.686 908.361C584.674 825.575 565.467 673.883 508.088 518.818C471.995 421.273 424.473 330.764 366.843 249.804C307.168 165.97 236.176 91.8725 155.415 28.9595C322.028 149.054 448.505 313.891 531.68 519.675C599.954 688.586 620.202 844.829 621.405 910.52C630.363 1400.42 361.102 1563.59 231.703 1642C200.395 1660.97 178.429 1674.29 171.074 1686.08C174.833 1665.4 203.077 1642.73 244.259 1609.7ZM232.63 1643.53C297.616 1604.15 395.821 1544.64 478.764 1432.32C578.465 1297.31 627.057 1121.74 623.195 910.49C621.99 844.675 601.711 688.158 533.34 519.006C493.108 419.472 441.589 327.88 380.213 246.774C316.552 162.651 241.841 89.4005 157.701 28.4354C330.862 144.609 465.079 309.668 557.008 519.834C631.836 690.902 657.529 847.28 660.916 912.708C689.796 1470.77 342.451 1615.27 211.691 1669.67C192.395 1677.7 178.731 1683.39 171.939 1688.17C178.305 1676.46 201.511 1662.39 232.63 1643.53ZM100.748 807.567C185.576 609.463 273.181 404.824 132.02 38.302C288.506 397.551 206.37 617.311 133.602 811.944C124.573 836.098 116.042 858.914 107.843 882.178C69.0697 992.202 28.9772 1105.97 27.6008 1234.77C26.3963 1347.73 54.273 1462.16 114.437 1588.59C-74.1515 1216.05 11.0018 1017.15 100.748 807.567ZM176.091 1688.97C175.007 1689.18 174.02 1689.37 173.095 1689.55C179.83 1684.87 193.889 1679.02 212.377 1671.32C276.351 1644.71 395.432 1595.17 495.828 1481.96C618.924 1343.16 675.068 1151.61 662.698 912.618C659.307 847.067 633.576 690.423 558.644 519.118C514.24 417.603 458.712 324.945 393.601 243.714C326.178 159.599 248.061 87.3685 160.901 28.43C340.144 140.719 481.801 305.781 582.374 519.889C663.21 691.979 694.94 853.522 700.423 914.897C753.821 1512.53 351.531 1655.32 176.091 1688.97Z" fill="url(#paint0_linear_256_656)"/>
<defs>
<linearGradient id="paint0_linear_256_656" x1="-0.000425521" y1="846" x2="707" y2="846" gradientUnits="userSpaceOnUse">
<stop offset="0.0056" stop-color="#E2C682"/>
<stop offset="0.1854" stop-color="#E9D48F"/>
<stop offset="0.4101" stop-color="#F4EEE2"/>
<stop offset="0.7303" stop-color="#B38226"/>
<stop offset="0.9355" stop-color="#DEBF82"/>
<stop offset="0.9494" stop-color="#E1C388"/>
</linearGradient>
</defs>
</svg>
