<svg width="28" height="28" viewBox="0 0 28 28" fill="none" xmlns="http://www.w3.org/2000/svg">
<path d="M26.1935 9.0322H23.4838V6.85904C24.2922 6.38982 24.8387 5.5164 24.8387 4.51607C24.8387 3.02169 23.6234 1.8064 22.129 1.8064C21.1246 1.8064 20.2485 2.35691 19.7802 3.17027L14.9032 4.14575V5.83162L20.0981 6.30401C20.2918 6.52349 20.5195 6.71136 20.7742 6.85904V9.0322H18.0645C17.0682 9.0322 16.258 9.8424 16.258 10.8387V26.1935C16.258 27.1898 17.0682 27.9999 18.0645 27.9999H26.1935C27.1898 27.9999 28 27.1898 28 26.1935V10.8387C28 9.8424 27.1898 9.0322 26.1935 9.0322ZM15.8064 5.00698V4.8864L19.4455 4.1584C19.4302 4.27582 19.4193 4.39459 19.4193 4.51607C19.4193 4.80601 19.4663 5.08511 19.5512 5.34704L15.8064 5.00698ZM20.3226 4.51607C20.3226 3.51982 21.1327 2.70962 22.129 2.70962C23.1253 2.70962 23.9355 3.51982 23.9355 4.51607C23.9355 5.51233 23.1253 6.32253 22.129 6.32253C21.1327 6.32253 20.3226 5.51233 20.3226 4.51607ZM22.5806 7.18511V9.0322H21.6774V7.18511C21.8246 7.20994 21.975 7.22575 22.129 7.22575C22.283 7.22575 22.4334 7.20994 22.5806 7.18511ZM27.0967 26.1935C27.0967 26.6916 26.6916 27.0967 26.1935 27.0967H18.0645C17.5664 27.0967 17.1613 26.6916 17.1613 26.1935V24.387H27.0967V26.1935ZM27.0967 23.4838H17.1613V13.5483H27.0967V23.4838ZM27.0967 12.6451H17.1613V10.8387C17.1613 10.3405 17.5664 9.93543 18.0645 9.93543H26.1935C26.6916 9.93543 27.0967 10.3405 27.0967 10.8387V12.6451Z" fill="#C7A35D"/>
<path d="M13.0968 14.3455V5.87097C13.0968 2.63381 10.463 0 7.22581 0C3.98864 0 1.35484 2.63381 1.35484 5.87097V14.3455C0.530194 15.008 0 16.0232 0 17.1613V28H14.4516V17.1613C14.4516 16.0232 13.9214 15.008 13.0968 14.3455ZM2.25806 5.87097C2.25806 3.13194 4.48677 0.903226 7.22581 0.903226C9.96484 0.903226 12.1935 3.13194 12.1935 5.87097V13.8144C11.7749 13.6441 11.3179 13.5484 10.8387 13.5484H10.3871C9.88897 13.5484 9.48387 13.1433 9.48387 12.6452V11.7419H9.42245C10.5348 11.1255 11.2903 9.94 11.2903 8.58064V4.06452H3.16129V8.58064C3.16129 9.94 3.91684 11.1255 5.02916 11.7419H4.96774V12.6452C4.96774 13.1433 4.56264 13.5484 4.06452 13.5484H3.6129C3.13374 13.5484 2.67671 13.6441 2.25806 13.8144V5.87097ZM8.98213 13.7665C8.82903 14.4719 8.33226 16.2581 7.22581 16.2581C6.11935 16.2581 5.62258 14.4719 5.46948 13.7665C5.71697 13.4576 5.87097 13.071 5.87097 12.6452V12.0748C6.16045 12.1497 6.46168 12.1935 6.77419 12.1935H7.67742C7.98994 12.1935 8.29116 12.1497 8.58064 12.0748V12.6452C8.58064 13.071 8.73464 13.4576 8.98213 13.7665ZM7.67742 11.2903H6.77419C5.27981 11.2903 4.06452 10.075 4.06452 8.58064V4.96774H10.3871V8.58064C10.3871 10.075 9.17181 11.2903 7.67742 11.2903ZM2.25806 21.345V27.0968H0.903226V17.1613C0.903226 16.2499 1.3571 15.4438 2.04897 14.9525L3.48329 17.1039L2.57735 18.0099C2.08013 18.5066 1.80645 19.1678 1.80645 19.871C1.80645 20.4043 1.96497 20.9133 2.25806 21.345ZM3.6129 27.0968H3.16129V22.316L3.6129 22.7676V27.0968ZM11.2903 27.0968H10.8387V22.7676L11.2903 22.316V27.0968ZM11.2357 21.0935L9.93548 22.3937V27.0968H4.51613V22.3937L3.21594 21.0935C2.88942 20.767 2.70968 20.3325 2.70968 19.871C2.70968 19.4094 2.88942 18.975 3.21594 18.6485L4.64574 17.2186L2.87135 14.5573C3.10755 14.49 3.35548 14.4516 3.6129 14.4516H4.06452C4.27994 14.4516 4.48406 14.4074 4.676 14.3378C4.95103 15.377 5.65103 17.1613 7.22581 17.1613C8.80058 17.1613 9.50058 15.377 9.77561 14.3378C9.96755 14.4074 10.1717 14.4516 10.3871 14.4516H10.8387C11.0961 14.4516 11.3441 14.49 11.5803 14.5573L9.80587 17.2186L11.2357 18.6485C11.5622 18.975 11.7419 19.4094 11.7419 19.871C11.7419 20.3325 11.5622 20.767 11.2357 21.0935ZM13.5484 27.0968H12.1935V21.345C12.4866 20.9133 12.6452 20.4043 12.6452 19.871C12.6452 19.1678 12.3715 18.5066 11.8743 18.0099L10.9683 17.1039L12.4026 14.9525C13.0945 15.4438 13.5484 16.2499 13.5484 17.1613V27.0968Z" fill="#C7A35D"/>
<path d="M5.87094 5.87097H4.96771V6.7742H5.87094V5.87097Z" fill="#C7A35D"/>
<path d="M9.48385 5.87097H8.58063V6.7742H9.48385V5.87097Z" fill="#C7A35D"/>
<path d="M7.22582 9.03229C6.22143 9.03229 5.86149 8.02655 5.84704 7.98364L4.99078 8.27177C5.01382 8.33997 5.56478 9.93551 7.22582 9.93551C8.88685 9.93551 9.43782 8.33997 9.46085 8.27177L8.60459 7.98364C8.59014 8.02655 8.2302 9.03229 7.22582 9.03229Z" fill="#C7A35D"/>
<path d="M22.129 20.7742C23.3741 20.7742 24.3871 19.7612 24.3871 18.5161C24.3871 17.271 23.3741 16.2581 22.129 16.2581C20.8839 16.2581 19.871 17.271 19.871 18.5161C19.871 19.7612 20.8839 20.7742 22.129 20.7742ZM22.129 17.1613C22.876 17.1613 23.4839 17.7692 23.4839 18.5161C23.4839 19.2631 22.876 19.871 22.129 19.871C21.3821 19.871 20.7742 19.2631 20.7742 18.5161C20.7742 17.7692 21.3821 17.1613 22.129 17.1613Z" fill="#C7A35D"/>
<path d="M18.9677 18.0646H18.0645V18.9678H18.9677V18.0646Z" fill="#C7A35D"/>
<path d="M18.9343 21.0704L19.5729 21.7091L20.2116 21.0704L19.5729 20.4318L18.9343 21.0704Z" fill="#C7A35D"/>
<path d="M22.5807 21.6775H21.6774V22.5807H22.5807V21.6775Z" fill="#C7A35D"/>
<path d="M24.0449 21.0695L24.6835 21.7081L25.3222 21.0695L24.6835 20.4308L24.0449 21.0695Z" fill="#C7A35D"/>
<path d="M26.1936 18.0646H25.2903V18.9678H26.1936V18.0646Z" fill="#C7A35D"/>
<path d="M25.3211 15.9602L24.6824 15.3215L24.0438 15.9602L24.6824 16.5989L25.3211 15.9602Z" fill="#C7A35D"/>
<path d="M22.5807 14.4517H21.6774V15.3549H22.5807V14.4517Z" fill="#C7A35D"/>
<path d="M20.2105 15.9612L19.5718 15.3225L18.9332 15.9612L19.5718 16.5999L20.2105 15.9612Z" fill="#C7A35D"/>
<path d="M18.9677 10.8387H18.0645V11.742H18.9677V10.8387Z" fill="#C7A35D"/>
<path d="M26.1936 10.8387H19.871V11.742H26.1936V10.8387Z" fill="#C7A35D"/>
</svg>
