<svg width="26" height="28" viewBox="0 0 26 28" fill="none" xmlns="http://www.w3.org/2000/svg">
<path d="M17.1926 14.7139C17.0178 14.7139 16.8759 14.572 16.8759 14.3972C16.8759 14.2223 17.0178 14.0804 17.1926 14.0804C17.3846 14.0804 17.5391 14.0107 17.6658 13.8663C17.7925 13.7225 17.8419 13.5597 17.8179 13.3697L17.3953 10.0819C17.3694 9.87853 17.2661 9.72269 17.09 9.6188L13.7065 7.62776C13.5558 7.53907 13.5057 7.34459 13.5944 7.19382C13.6831 7.04305 13.877 6.99301 14.0284 7.08169L17.4118 9.07274C17.7558 9.27545 17.9737 9.60486 18.0244 10.0008L18.4469 13.2886C18.4944 13.6592 18.3893 14.0038 18.1422 14.2844C17.8945 14.5657 17.5664 14.7139 17.1926 14.7139ZM8.44546 14.7139C8.0717 14.7139 7.74356 14.5657 7.4965 14.285C7.24944 14.0044 7.14428 13.6598 7.19179 13.2892L7.61433 10.0014C7.66501 9.60549 7.88293 9.27608 8.22691 9.07337L11.6103 7.08233C11.7611 6.99364 11.9556 7.04368 12.0443 7.19445C12.133 7.34522 12.0829 7.53907 11.9322 7.62839L8.54872 9.61943C8.37198 9.72332 8.26935 9.87916 8.24338 10.0825L7.82084 13.3703C7.79614 13.5603 7.84618 13.7231 7.97288 13.8669C8.09958 14.0107 8.25415 14.0811 8.44609 14.0811C8.62093 14.0811 8.76284 14.223 8.76284 14.3978C8.76284 14.5726 8.6203 14.7139 8.44546 14.7139Z" fill="#C7A35D"/>
<path d="M9.90561 14.7139C9.73077 14.7139 9.58887 14.572 9.58887 14.3972V11.3457C9.58887 11.1708 9.73077 11.0289 9.90561 11.0289C10.0805 11.0289 10.2224 11.1708 10.2224 11.3457V14.3972C10.2224 14.5726 10.0805 14.7139 9.90561 14.7139Z" fill="#C7A35D"/>
<path d="M15.7318 14.7139C15.5569 14.7139 15.415 14.572 15.415 14.3972V11.3457C15.415 11.1708 15.5569 11.0289 15.7318 11.0289C15.9066 11.0289 16.0485 11.1708 16.0485 11.3457V14.3972C16.0485 14.5726 15.9066 14.7139 15.7318 14.7139Z" fill="#C7A35D"/>
<path d="M12.8186 8.89603C12.066 8.89603 11.4541 8.28345 11.4541 7.53151V6.94363C11.4541 6.76879 11.596 6.62689 11.7708 6.62689C11.9457 6.62689 12.0876 6.76879 12.0876 6.94363V7.53151C12.0876 7.93504 12.4157 8.26255 12.8186 8.26255C13.2215 8.26255 13.5497 7.9344 13.5497 7.53151V6.94363C13.5497 6.76879 13.6916 6.62689 13.8664 6.62689C14.0413 6.62689 14.1832 6.76879 14.1832 6.94363V7.53151C14.1832 8.28345 13.5712 8.89603 12.8186 8.89603Z" fill="#C7A35D"/>
<path d="M12.8187 7.51252C11.368 7.51252 10.1885 6.33233 10.1885 4.88229V3.76609C10.1885 2.31541 11.3687 1.13586 12.8187 1.13586C14.2694 1.13586 15.4489 2.31605 15.4489 3.76609V4.88166C15.4489 6.33233 14.2694 7.51252 12.8187 7.51252ZM12.8187 1.76935C11.7177 1.76935 10.822 2.6651 10.822 3.76609V4.88166C10.822 5.98265 11.7177 6.8784 12.8187 6.8784C13.9197 6.8784 14.8154 5.98265 14.8154 4.88166V3.76609C14.8154 2.6651 13.9197 1.76935 12.8187 1.76935Z" fill="#C7A35D"/>
<path d="M10.5045 4.31654C10.3879 4.31654 10.2758 4.25192 10.2207 4.14043C10.1428 3.98396 10.2068 3.79391 10.3632 3.71599C11.8449 2.97989 12.6685 2.90133 12.9542 3.46894C12.9903 3.54115 13.4553 3.73943 15.063 3.38722C15.2341 3.34984 15.4026 3.45817 15.44 3.62857C15.4773 3.79961 15.369 3.96812 15.1986 4.0055C13.0327 4.47998 12.5576 4.08912 12.3885 3.75337C12.3232 3.70079 11.8576 3.68115 10.6451 4.28296C10.6002 4.30577 10.552 4.31654 10.5045 4.31654Z" fill="#C7A35D"/>
<path d="M11.3755 24.6799C11.2006 24.6799 11.0587 24.538 11.0587 24.3632V18.8259C10.9213 17.0864 10.2529 16.9381 8.62489 16.7449C7.20461 16.5764 5.90027 15.4336 5.24968 14.7678C4.65611 14.1603 4.05557 13.8657 3.53294 13.9202C3.52154 13.9221 3.51077 13.9234 3.49873 13.924C3.43982 13.9322 3.38217 13.9443 3.32516 13.9614C2.9343 14.0786 2.63973 14.4194 2.55547 14.8514C2.45095 15.3905 2.679 15.9296 3.18136 16.3306C3.18769 16.3357 3.19339 16.3407 3.1991 16.3458L5.52081 18.5022C5.64878 18.6213 5.65638 18.8215 5.53728 18.9501C5.41819 19.0787 5.21801 19.0856 5.08941 18.9665L2.77593 16.8184C2.1 16.2736 1.78516 15.4944 1.93276 14.7317C2.06136 14.0678 2.52507 13.5401 3.14208 13.3551C3.14778 13.3532 3.15348 13.352 3.15982 13.3501V9.0088C3.15982 8.3126 2.59348 7.74563 1.89665 7.74563C1.19982 7.74563 0.633484 8.31196 0.633484 9.0088V16.3813V16.3902C0.632851 16.4288 0.617647 20.3089 6.7314 22.2638C6.86253 22.3056 6.95185 22.4279 6.95185 22.5654V24.3638C6.95185 24.5387 6.80995 24.6806 6.63511 24.6806C6.46027 24.6806 6.31837 24.5387 6.31837 24.3638V22.7953C0.0943885 20.7111 0 16.6024 0 16.3813V9.00816C0 7.96228 0.850769 7.11151 1.89665 7.11151C2.94253 7.11151 3.7933 7.96228 3.7933 9.00816V13.2867C4.29376 13.3228 4.95765 13.5629 5.70136 14.325C6.29366 14.9312 7.47068 15.9702 8.69837 16.1159C10.2067 16.2951 11.5098 16.4497 11.6903 18.7892C11.6909 18.7974 11.6909 18.8056 11.6909 18.8132V24.3632C11.6922 24.538 11.5503 24.6799 11.3755 24.6799Z" fill="#C7A35D"/>
<path d="M11.3755 22.8815H6.63705C6.46221 22.8815 6.32031 22.7396 6.32031 22.5647C6.32031 22.3899 6.46221 22.248 6.63705 22.248H11.3755C11.5504 22.248 11.6923 22.3899 11.6923 22.5647C11.6923 22.7396 11.5504 22.8815 11.3755 22.8815Z" fill="#C7A35D"/>
<path d="M12.3812 28H5.63143C5.21523 28 4.87695 27.6617 4.87695 27.2455V24.8009C4.87695 24.3847 5.21523 24.0464 5.63143 24.0464H12.3812C12.7974 24.0464 13.1357 24.3847 13.1357 24.8009V27.2455C13.1357 27.6617 12.7974 28 12.3812 28ZM5.63143 24.6799C5.56555 24.6799 5.51044 24.7357 5.51044 24.8009V27.2455C5.51044 27.3114 5.56618 27.3665 5.63143 27.3665H12.3812C12.4471 27.3665 12.5022 27.3108 12.5022 27.2455V24.8009C12.5022 24.735 12.4465 24.6799 12.3812 24.6799H5.63143Z" fill="#C7A35D"/>
<path d="M19.0008 24.6799C18.826 24.6799 18.6841 24.538 18.6841 24.3632V22.5647C18.6841 22.4272 18.7734 22.305 18.9045 22.2632C25.0183 20.3082 25.0037 16.4281 25.0024 16.3895C25.0024 16.387 25.0024 16.3832 25.0024 16.3806V9.00815C25.0024 8.31195 24.4361 7.74498 23.7399 7.74498C23.0437 7.74498 22.4767 8.31132 22.4767 9.00815V13.3494C22.4824 13.3513 22.4888 13.3526 22.4945 13.3545C23.1121 13.5395 23.5752 14.0672 23.7038 14.731C23.8514 15.4938 23.5366 16.2729 22.8606 16.8177L20.5471 18.9659C20.4192 19.085 20.2184 19.0774 20.0993 18.9494C19.9802 18.8215 19.9878 18.6206 20.1157 18.5015L22.4375 16.3452C22.4432 16.3401 22.4489 16.3344 22.4552 16.33C22.9575 15.929 23.1856 15.3899 23.0811 14.8508C22.9975 14.4187 22.7029 14.0779 22.3114 13.9607C22.2544 13.9436 22.1967 13.9316 22.1378 13.9234C22.1264 13.9227 22.115 13.9215 22.1036 13.9196C21.581 13.8644 20.9798 14.1596 20.3869 14.7672C19.7363 15.4336 18.4319 16.5758 17.0117 16.7443C15.3836 16.9375 14.7153 17.0857 14.5778 18.8253V24.3625C14.5778 24.5374 14.4359 24.6793 14.2611 24.6793C14.0862 24.6793 13.9443 24.5374 13.9443 24.3625V18.8126C13.9443 18.8043 13.9443 18.7961 13.945 18.7879C14.1255 16.4484 15.4286 16.2938 16.9369 16.1146C18.164 15.9689 19.341 14.93 19.9339 14.3237C20.6783 13.5623 21.3415 13.3222 21.842 13.2854V9.00688C21.842 7.961 22.6928 7.11023 23.7386 7.11023C24.7845 7.11023 25.6347 7.961 25.6347 9.00688V16.3794C25.6347 16.6005 25.5403 20.7092 19.3163 22.7934V24.3619C19.3175 24.538 19.1756 24.6799 19.0008 24.6799Z" fill="#C7A35D"/>
<path d="M19.0005 22.8815H14.2621C14.0872 22.8815 13.9453 22.7396 13.9453 22.5647C13.9453 22.3899 14.0872 22.248 14.2621 22.248H19.0005C19.1754 22.248 19.3173 22.3899 19.3173 22.5647C19.3173 22.7396 19.1754 22.8815 19.0005 22.8815Z" fill="#C7A35D"/>
<path d="M20.0062 28H13.2564C12.8402 28 12.502 27.6617 12.502 27.2455V24.8009C12.502 24.3847 12.8402 24.0464 13.2564 24.0464H20.0062C20.4224 24.0464 20.7607 24.3847 20.7607 24.8009V27.2455C20.7607 27.6617 20.4224 28 20.0062 28ZM13.2564 24.6799C13.1906 24.6799 13.1354 24.7357 13.1354 24.8009V27.2455C13.1354 27.3114 13.1906 27.3665 13.2564 27.3665H20.0062C20.0721 27.3665 20.1272 27.3108 20.1272 27.2455V24.8009C20.1272 24.735 20.0715 24.6799 20.0062 24.6799H13.2564Z" fill="#C7A35D"/>
<path d="M17.2086 14.7139H8.42848C6.70097 14.7139 5.2959 13.3082 5.2959 11.5807V3.13258C5.2959 1.40507 6.7016 0 8.42848 0H17.2086C18.9361 0 20.3418 1.4057 20.3418 3.13258V11.5814C20.3411 13.3089 18.9361 14.7139 17.2086 14.7139ZM8.42848 0.633484C7.05002 0.633484 5.92938 1.75475 5.92938 3.13258V11.5814C5.92938 12.9598 7.05065 14.0811 8.42848 14.0811H17.2086C18.587 14.0811 19.7083 12.9598 19.7083 11.5814V3.13258C19.7083 1.75412 18.587 0.633484 17.2086 0.633484H8.42848Z" fill="#C7A35D"/>
</svg>
