<svg width="24" height="24" viewBox="0 0 24 24" fill="none" xmlns="http://www.w3.org/2000/svg">
<path d="M13.7896 11.5495C14.9958 11.1688 16.0525 10.42 16.8115 9.40814C17.5268 8.45491 17.9389 7.30864 17.9944 6.11819H18.0017C18.1567 6.12135 18.3108 6.09354 18.4549 6.0364C18.5991 5.97926 18.7304 5.89393 18.8411 5.78541C18.9519 5.67689 19.0399 5.54737 19.0999 5.40442C19.16 5.26147 19.1909 5.10797 19.1909 4.95292C19.1909 4.79786 19.16 4.64436 19.0999 4.50141C19.0399 4.35847 18.9519 4.22894 18.8411 4.12042C18.7304 4.0119 18.5991 3.92657 18.4549 3.86943C18.3108 3.81229 18.1567 3.78449 18.0017 3.78765H5.99723C5.6923 3.79386 5.40194 3.91936 5.18848 4.13721C4.97502 4.35507 4.85547 4.64792 4.85547 4.95292C4.85547 5.25792 4.97502 5.55077 5.18848 5.76862C5.40194 5.98647 5.6923 6.11197 5.99723 6.11819H6.00497C6.06048 7.30864 6.47263 8.45491 7.1879 9.40814C7.94674 10.4199 9.0033 11.1687 10.2093 11.5495C10.2343 11.5561 10.2562 11.571 10.2715 11.5918C10.2868 11.6125 10.2946 11.6379 10.2935 11.6637V12.3352C10.2946 12.361 10.2868 12.3864 10.2715 12.4071C10.2562 12.4279 10.2343 12.4428 10.2093 12.4494C9.00312 12.8301 7.94638 13.5789 7.18742 14.5908C6.47215 15.544 6.06 16.6903 6.00449 17.8807H5.99675C5.69181 17.8869 5.40146 18.0124 5.188 18.2303C4.97454 18.4481 4.85498 18.741 4.85498 19.046C4.85498 19.351 4.97454 19.6438 5.188 19.8617C5.40146 20.0796 5.69181 20.2051 5.99675 20.2113H18.0012C18.1562 20.2144 18.3103 20.1866 18.4545 20.1295C18.5986 20.0723 18.7299 19.987 18.8406 19.8785C18.9514 19.77 19.0394 19.6404 19.0994 19.4975C19.1595 19.3545 19.1905 19.2011 19.1905 19.046C19.1905 18.8909 19.1595 18.7374 19.0994 18.5945C19.0394 18.4515 18.9514 18.322 18.8406 18.2135C18.7299 18.105 18.5986 18.0197 18.4545 17.9625C18.3103 17.9054 18.1562 17.8776 18.0012 17.8807H17.9939C17.9384 16.6903 17.5263 15.544 16.811 14.5908C16.0522 13.579 14.9956 12.8302 13.7896 12.4494C13.7646 12.4428 13.7427 12.4279 13.7274 12.4071C13.7121 12.3864 13.7043 12.361 13.7054 12.3352V11.6637C13.7043 11.6379 13.7121 11.6125 13.7274 11.5918C13.7427 11.571 13.7646 11.5561 13.7896 11.5495ZM5.60631 4.95316C5.60656 4.84956 5.64783 4.75027 5.72109 4.67702C5.79435 4.60376 5.89363 4.56249 5.99723 4.56223H18.0012C18.0537 4.56039 18.1061 4.56914 18.1552 4.58796C18.2042 4.60679 18.249 4.63531 18.2868 4.67181C18.3246 4.70832 18.3547 4.75206 18.3752 4.80044C18.3958 4.84882 18.4064 4.90084 18.4064 4.9534C18.4064 5.00596 18.3958 5.05798 18.3752 5.10636C18.3547 5.15474 18.3246 5.19848 18.2868 5.23499C18.249 5.27149 18.2042 5.30001 18.1552 5.31884C18.1061 5.33766 18.0537 5.34641 18.0012 5.34457H5.99723C5.89355 5.34431 5.79419 5.30297 5.72092 5.22961C5.64765 5.15625 5.60644 5.05684 5.60631 4.95316ZM18.3926 19.0458C18.3923 19.1494 18.351 19.2488 18.2776 19.3221C18.2043 19.3953 18.1049 19.4366 18.0012 19.4367H5.99723C5.89587 19.4331 5.79985 19.3903 5.7294 19.3174C5.65896 19.2444 5.61959 19.1469 5.61959 19.0455C5.61959 18.9441 5.65896 18.8466 5.7294 18.7737C5.79985 18.7007 5.89587 18.6579 5.99723 18.6543H18.0012C18.105 18.6545 18.2044 18.6958 18.2778 18.7691C18.3512 18.8425 18.3925 18.942 18.3926 19.0458ZM8.60984 17.8802C8.71886 17.2843 8.98354 16.7278 9.37703 16.2672C9.77052 15.8066 10.2788 15.4583 10.8504 15.2575C10.9634 15.2182 11.0636 15.1491 11.1407 15.0577L11.9511 14.0992L12.7479 15.0306C12.7986 15.0906 12.8598 15.1409 12.9284 15.1791L13.0464 15.2459C14.3774 15.9963 15.2236 16.4748 15.4094 17.8802H8.60984ZM13.5583 13.1872C14.5752 13.5011 15.4714 14.1194 16.126 14.9586C16.7805 15.7977 17.162 16.8175 17.2189 17.8802H16.1874C15.9764 16.0108 14.7882 15.3402 13.4248 14.5714L13.3227 14.5153L12.4596 13.5065C12.3973 13.4322 12.3195 13.3724 12.2317 13.3315C12.1438 13.2905 12.048 13.2693 11.9511 13.2695C11.8536 13.2693 11.7572 13.2906 11.6688 13.3318C11.5804 13.373 11.5022 13.4332 11.4397 13.508L10.5688 14.5371C9.85251 14.7947 9.2194 15.2415 8.73679 15.8302C8.25418 16.4189 7.94012 17.1273 7.82799 17.8802H6.78295C6.83982 16.8175 7.22127 15.7977 7.87583 14.9586C8.53039 14.1194 9.42658 13.5011 10.4435 13.1872C10.626 13.1314 10.7857 13.0183 10.8989 12.8647C11.0122 12.7111 11.073 12.5251 11.0725 12.3343V11.6637C11.073 11.4728 11.0122 11.2869 10.8989 11.1333C10.7857 10.9797 10.626 10.8666 10.4435 10.8107C9.42658 10.4968 8.53039 9.87856 7.87583 9.03938C7.22127 8.2002 6.83982 7.18046 6.78295 6.1177H17.2189C17.162 7.18046 16.7805 8.2002 16.126 9.03938C15.4714 9.87856 14.5752 10.4968 13.5583 10.8107C13.3758 10.8666 13.2161 10.9797 13.1029 11.1333C12.9896 11.2869 12.9288 11.4728 12.9294 11.6637V12.3352C12.9287 12.5261 12.9895 12.7121 13.1028 12.8657C13.2161 13.0193 13.3758 13.1324 13.5583 13.1882V13.1872ZM13.1829 10.6162C14.4103 9.92437 15.4699 9.32637 15.4699 7.38433C15.4698 7.23144 15.4598 7.07871 15.4399 6.92713L15.3958 6.58846H8.60307L8.55904 6.92713C8.45652 7.70239 8.61854 8.48958 9.01891 9.16133C9.41928 9.83309 10.0346 10.3501 10.7652 10.6288L11.3758 11.6859C11.4348 11.7881 11.5196 11.873 11.6218 11.932C11.724 11.991 11.8399 12.022 11.9578 12.022C12.0758 12.022 12.1917 11.991 12.2939 11.932C12.3961 11.873 12.4809 11.7881 12.5399 11.6859L13.1451 10.6375L13.1829 10.6162ZM12.7402 9.97711C12.6353 10.0359 12.5484 10.122 12.4886 10.2263L11.9564 11.1455L11.4189 10.2093C11.3408 10.0729 11.2168 9.96848 11.0691 9.91469C10.5522 9.72279 10.1062 9.3776 9.79091 8.92531C9.47558 8.47302 9.30591 7.93521 9.3046 7.38385V7.36401H14.6958V7.38385C14.6958 8.874 13.9836 9.27557 12.8031 9.9413L12.7402 9.97711ZM2.60278 5.74323V7.65769C2.60278 7.76034 2.562 7.85879 2.48941 7.93138C2.41683 8.00396 2.31838 8.04474 2.21573 8.04474C2.11307 8.04474 2.01463 8.00396 1.94204 7.93138C1.86945 7.85879 1.82867 7.76034 1.82867 7.65769V7.24596C1.02871 8.9608 0.674608 10.8498 0.799188 12.738C0.923768 14.6261 1.523 16.4523 2.54133 18.0472C2.5967 18.1338 2.61537 18.239 2.59323 18.3394C2.57109 18.4398 2.50996 18.5274 2.42328 18.5827C2.33661 18.6381 2.23148 18.6568 2.13104 18.6346C2.0306 18.6125 1.94307 18.5514 1.8877 18.4647C0.785409 16.738 0.142902 14.7582 0.0212184 12.7132C-0.100466 10.6683 0.302714 8.62624 1.19246 6.78102L0.751215 7.0355C0.662555 7.08365 0.558601 7.09527 0.461498 7.0679C0.364394 7.04052 0.281816 6.97632 0.231355 6.88896C0.180893 6.80159 0.166537 6.69798 0.191344 6.60019C0.216151 6.5024 0.27816 6.41816 0.364162 6.36542L2.0222 5.40795C2.08105 5.37397 2.1478 5.35609 2.21575 5.35609C2.2837 5.35609 2.35045 5.37399 2.40929 5.40797C2.46813 5.44195 2.51699 5.49082 2.55096 5.54967C2.58492 5.60852 2.60279 5.67528 2.60278 5.74323ZM18.5794 21.5742C18.6073 21.6169 18.6264 21.6648 18.6358 21.7149C18.6451 21.7651 18.6444 21.8166 18.6338 21.8666C18.6231 21.9165 18.6027 21.9638 18.5737 22.0058C18.5446 22.0478 18.5076 22.0836 18.4647 22.1112C16.7428 23.2108 14.769 23.8532 12.7298 23.9777C10.6906 24.1021 8.65331 23.7045 6.81053 22.8224L7.05244 23.2327C7.09851 23.3206 7.1091 23.4227 7.082 23.5182C7.05491 23.6136 6.99221 23.695 6.90684 23.7455C6.82147 23.7961 6.71996 23.8119 6.62326 23.7898C6.52656 23.7676 6.44205 23.7092 6.38719 23.6265L5.40891 21.9816C5.37417 21.9232 5.35541 21.8567 5.35452 21.7887C5.35363 21.7208 5.37063 21.6538 5.40383 21.5945C5.43702 21.5352 5.48524 21.4858 5.54363 21.451C5.60202 21.4163 5.66852 21.3975 5.73646 21.3966L7.65043 21.3719H7.65576C7.75841 21.3713 7.85711 21.4115 7.93015 21.4836C8.00319 21.5557 8.04459 21.6539 8.04523 21.7566C8.04587 21.8592 8.0057 21.9579 7.93357 22.031C7.86144 22.104 7.76325 22.1454 7.66059 22.146L7.20387 22.1519C8.92262 22.9622 10.8188 23.3235 12.7151 23.202C14.6114 23.0805 16.4459 22.4801 18.0472 21.4571C18.1334 21.4025 18.2377 21.3842 18.3374 21.4061C18.437 21.428 18.524 21.4884 18.5794 21.5742ZM23.7484 17.0616C23.7749 17.1051 23.7925 17.1534 23.8003 17.2037C23.808 17.254 23.8058 17.3053 23.7937 17.3547C23.7817 17.4041 23.7599 17.4507 23.7298 17.4917C23.6997 17.5328 23.6618 17.5675 23.6183 17.5938L21.982 18.5871C21.9239 18.6224 21.8576 18.6417 21.7896 18.6432C21.7216 18.6447 21.6545 18.6282 21.5949 18.5955C21.5353 18.5628 21.4854 18.515 21.4502 18.4569C21.4149 18.3987 21.3956 18.3323 21.3942 18.2644L21.3526 16.3509C21.3503 16.2482 21.389 16.1489 21.46 16.0747C21.531 16.0006 21.6285 15.9576 21.7312 15.9554C21.8338 15.9531 21.9332 15.9918 22.0073 16.0628C22.0815 16.1338 22.1245 16.2313 22.1267 16.334L22.1373 16.8202C22.9542 15.0994 23.3204 13.1993 23.2015 11.2982C23.0826 9.39705 22.4825 7.55734 21.4576 5.95175C21.4023 5.86508 21.3837 5.75998 21.4059 5.65958C21.428 5.55919 21.4892 5.47172 21.5759 5.41641C21.6625 5.36111 21.7676 5.3425 21.868 5.36469C21.9684 5.38687 22.0559 5.44803 22.1112 5.53471C23.2087 7.25309 23.8508 9.22253 23.977 11.2576C24.1032 13.2926 23.7093 15.3263 22.8326 17.1671L23.2196 16.9315C23.3073 16.8785 23.4124 16.8625 23.5119 16.8869C23.6114 16.9113 23.6971 16.9741 23.7504 17.0616H23.7484ZM5.41956 2.42474C5.39168 2.38197 5.37254 2.3341 5.36324 2.28391C5.35394 2.23371 5.35467 2.18217 5.36537 2.13225C5.37607 2.08234 5.39654 2.03503 5.42561 1.99306C5.45467 1.95109 5.49175 1.91528 5.5347 1.8877C7.24783 0.794009 9.21043 0.152813 11.2388 0.0241129C13.2672 -0.104587 15.2951 0.283417 17.1327 1.15182L16.9116 0.799113C16.8571 0.712115 16.8394 0.607016 16.8623 0.506938C16.8853 0.406859 16.947 0.319998 17.034 0.265464C17.121 0.21093 17.2261 0.193189 17.3262 0.216144C17.4263 0.2391 17.5132 0.300871 17.5677 0.387869L18.5837 2.0101C18.6198 2.06768 18.64 2.13372 18.6425 2.2016C18.6449 2.26948 18.6294 2.3368 18.5976 2.39681C18.5658 2.45682 18.5187 2.5074 18.4612 2.54347C18.4036 2.57954 18.3376 2.59983 18.2697 2.6023L16.3567 2.67148H16.3422C16.2914 2.67237 16.2409 2.66324 16.1936 2.64461C16.1463 2.62598 16.1031 2.59822 16.0665 2.56291C16.0299 2.52759 16.0007 2.48542 15.9804 2.43881C15.9601 2.39219 15.9493 2.34203 15.9484 2.2912C15.9475 2.24037 15.9566 2.18987 15.9752 2.14257C15.9939 2.09527 16.0216 2.0521 16.0569 2.01553C16.0923 1.97896 16.1344 1.9497 16.181 1.92943C16.2277 1.90916 16.2778 1.89827 16.3286 1.89738L16.8584 1.87802C15.1341 1.05178 13.2275 0.679107 11.319 0.795262C9.41047 0.911417 7.56314 1.51256 5.95175 2.54182C5.86553 2.59641 5.76123 2.61473 5.66156 2.5928C5.56189 2.57088 5.47491 2.51047 5.41956 2.42474Z" fill="#C7A35D"/>
</svg>
