<svg width="24" height="24" viewBox="0 0 24 24" fill="none" xmlns="http://www.w3.org/2000/svg">
<path d="M5.59998 13.7876V15.6C5.59998 15.7061 5.64212 15.8078 5.71713 15.8828C5.79215 15.9579 5.89389 16 5.99998 16H18C18.1061 16 18.2078 15.9579 18.2828 15.8828C18.3578 15.8078 18.4 15.7061 18.4 15.6V13.7876C18.3983 12.7248 17.9927 11.7023 17.2654 10.9273C16.538 10.1523 15.5434 9.6827 14.4828 9.6136L14.7088 9.52C15.085 9.37158 15.4086 9.11468 15.6385 8.78193C15.8684 8.44919 15.9942 8.05561 16 7.6512V6.44C16.2295 6.36624 16.4301 6.22238 16.5736 6.02865C16.7172 5.83492 16.7963 5.60107 16.8 5.36C16.7988 5.32279 16.7956 5.28567 16.7904 5.2488C16.7947 5.23277 16.7979 5.21647 16.8 5.2V3.688C16.7989 2.71021 16.41 1.77276 15.7186 1.08136C15.0272 0.389955 14.0898 0.00105879 13.112 0H10.888C9.91018 0.00105879 8.97274 0.389955 8.28134 1.08136C7.58993 1.77276 7.20103 2.71021 7.19998 3.688V5.2C7.20231 5.21501 7.20565 5.22984 7.20998 5.2444C7.20457 5.28273 7.20123 5.32131 7.19998 5.36C7.20364 5.60107 7.2828 5.83492 7.4263 6.02865C7.56981 6.22238 7.77044 6.36624 7.99998 6.44V7.6516C8.00578 8.05594 8.13162 8.44943 8.36152 8.7821C8.59142 9.11477 8.91501 9.37161 9.29118 9.52L9.51718 9.6136C8.45659 9.6827 7.46191 10.1523 6.73459 10.9273C6.00727 11.7023 5.60168 12.7248 5.59998 13.7876ZM11.6296 15.2L11.8524 12.0916L12 11.9416L12.1476 12.0916L12.3704 15.2H11.6296ZM12.2848 11.0912C12.2476 11.0535 12.2032 11.0235 12.1543 11.0031C12.1054 10.9826 12.053 10.9721 12 10.9721C11.947 10.9721 11.8945 10.9826 11.8456 11.0031C11.7967 11.0235 11.7524 11.0535 11.7152 11.0912L10.452 12.374L10.082 10.4H11.9684C11.9788 10.4 11.9896 10.4 12 10.4C12.0104 10.4 12.0212 10.4 12.0316 10.4H13.92L13.55 12.374L12.2848 11.0912ZM14.7248 10.4428C15.5243 10.5656 16.2535 10.9703 16.7807 11.5837C17.308 12.197 17.5986 12.9787 17.6 13.7876V15.2H15.6V14H14.8V15.2H13.1724L13.0124 12.97L13.5152 13.48C13.5522 13.518 13.5965 13.5482 13.6454 13.5688C13.6943 13.5894 13.7469 13.6 13.8 13.6C13.8932 13.6 13.9836 13.5675 14.0554 13.5079C14.1272 13.4484 14.1759 13.3657 14.1932 13.274L14.7248 10.4428ZM7.99998 3.688C8.00082 2.92231 8.30537 2.18823 8.84679 1.64681C9.38821 1.10539 10.1223 0.800847 10.888 0.8H13.112C13.8777 0.800847 14.6117 1.10539 15.1532 1.64681C15.6946 2.18823 15.9991 2.92231 16 3.688V4.28C15.9864 4.2752 15.974 4.2688 15.96 4.2644C15.8817 3.93067 15.6929 3.6332 15.4242 3.42029C15.1555 3.20739 14.8228 3.09156 14.48 3.0916H14.0884L10.9684 1.6368C10.8994 1.60458 10.8226 1.59272 10.7471 1.60264C10.6716 1.61255 10.6004 1.64382 10.5421 1.69276C10.4837 1.7417 10.4406 1.80629 10.4177 1.87893C10.3947 1.95157 10.3931 2.02923 10.4128 2.1028L10.68 3.0924H9.51998C9.17729 3.09279 8.84475 3.20878 8.57617 3.42161C8.30759 3.63445 8.11867 3.93167 8.03998 4.2652C8.02598 4.2696 8.01358 4.276 7.99998 4.2808V3.688ZM8.79998 7.6512V6.1052C8.79998 5.99911 8.75783 5.89737 8.68282 5.82236C8.6078 5.74734 8.50606 5.7052 8.39998 5.7052C8.35039 5.71216 8.29988 5.7084 8.25187 5.69418C8.20386 5.67995 8.15946 5.65559 8.12167 5.62273C8.08388 5.58988 8.05358 5.5493 8.03282 5.50373C8.01205 5.45817 8.00131 5.40867 8.00131 5.3586C8.00131 5.30853 8.01205 5.25903 8.03282 5.21347C8.05358 5.1679 8.08388 5.12732 8.12167 5.09447C8.15946 5.06161 8.20386 5.03725 8.25187 5.02302C8.29988 5.0088 8.35039 5.00504 8.39998 5.012C8.50606 5.012 8.6078 4.96986 8.68282 4.89484C8.75783 4.81983 8.79998 4.71809 8.79998 4.612C8.79998 4.42104 8.87583 4.23791 9.01086 4.10288C9.14589 3.96786 9.32902 3.892 9.51998 3.892H11.2C11.2613 3.89199 11.3218 3.87788 11.3768 3.85077C11.4318 3.82365 11.4798 3.78425 11.5172 3.73562C11.5545 3.68698 11.5802 3.63041 11.5922 3.57027C11.6042 3.51014 11.6022 3.44805 11.5864 3.3888L11.4084 2.7248L13.8308 3.8548C13.8838 3.87928 13.9416 3.89197 14 3.892H14.48C14.6709 3.892 14.8541 3.96786 14.9891 4.10288C15.1241 4.23791 15.2 4.42104 15.2 4.612C15.2 4.71809 15.2421 4.81983 15.3171 4.89484C15.3921 4.96986 15.4939 5.012 15.6 5.012C15.6497 5.00482 15.7003 5.00841 15.7485 5.02252C15.7966 5.03664 15.8412 5.06095 15.8791 5.0938C15.9171 5.12666 15.9475 5.16729 15.9684 5.21294C15.9893 5.2586 16 5.30821 16 5.3584C16 5.40859 15.9893 5.4582 15.9684 5.50386C15.9475 5.54951 15.9171 5.59014 15.8791 5.623C15.8412 5.65585 15.7966 5.68016 15.7485 5.69428C15.7003 5.70839 15.6497 5.71198 15.6 5.7048C15.4939 5.7048 15.3921 5.74694 15.3171 5.82196C15.2421 5.89697 15.2 5.99871 15.2 6.1048V7.6508C15.1939 7.89688 15.115 8.13562 14.973 8.33673C14.8311 8.53785 14.6326 8.69227 14.4028 8.7804L12.8216 9.436C12.5652 9.54274 12.2905 9.59845 12.0128 9.6H11.9872C11.7095 9.59837 11.4348 9.54281 11.1784 9.4364L9.59718 8.7808C9.36734 8.69267 9.16886 8.53825 9.02693 8.33714C8.885 8.13602 8.80601 7.89728 8.79998 7.6512ZM9.27598 10.4428L9.80678 13.274C9.82009 13.3461 9.85299 13.4132 9.90188 13.4679C9.95076 13.5227 10.0138 13.5629 10.084 13.5842C10.1542 13.6055 10.2289 13.6071 10.2999 13.5888C10.371 13.5705 10.4356 13.533 10.4868 13.4804L10.9896 12.97L10.8276 15.2H9.19998V14H8.39998V15.2H6.39998V13.7876C6.40141 12.9786 6.69209 12.1968 7.21952 11.5834C7.74695 10.97 8.47635 10.5655 9.27598 10.4428Z" fill="#7A1E1E"/>
<path d="M10.4 5.59999C10.5061 5.59999 10.6078 5.64213 10.6829 5.71714C10.7579 5.79216 10.8 5.8939 10.8 5.99999H11.6C11.6 5.68173 11.4736 5.3765 11.2485 5.15146C11.0235 4.92642 10.7183 4.79999 10.4 4.79999C10.0818 4.79999 9.77653 4.92642 9.55148 5.15146C9.32644 5.3765 9.20001 5.68173 9.20001 5.99999H10C10 5.8939 10.0422 5.79216 10.1172 5.71714C10.1922 5.64213 10.2939 5.59999 10.4 5.59999Z" fill="#7A1E1E"/>
<path d="M13.6 5.59999C13.7061 5.59999 13.8079 5.64213 13.8829 5.71714C13.9579 5.79216 14 5.8939 14 5.99999H14.8C14.8 5.68173 14.6736 5.3765 14.4486 5.15146C14.2235 4.92642 13.9183 4.79999 13.6 4.79999C13.2818 4.79999 12.9765 4.92642 12.7515 5.15146C12.5265 5.3765 12.4 5.68173 12.4 5.99999H13.2C13.2 5.8939 13.2422 5.79216 13.3172 5.71714C13.3922 5.64213 13.4939 5.59999 13.6 5.59999Z" fill="#7A1E1E"/>
<path d="M11.2 7.59998H10.4C10.4 8.27318 11.1028 8.79998 12 8.79998C12.8972 8.79998 13.6 8.27318 13.6 7.59998H12.8C12.8 7.76318 12.4884 7.99998 12 7.99998C11.5116 7.99998 11.2 7.76318 11.2 7.59998Z" fill="#7A1E1E"/>
<path d="M21.6 5.59999C21.0007 5.60346 20.4243 5.83106 19.9843 6.23803C19.5443 6.645 19.2725 7.20188 19.2223 7.79914C19.1722 8.3964 19.3473 8.99081 19.7133 9.46545C20.0793 9.9401 20.6096 10.2606 21.2 10.364V14.4C21.2 16.7339 20.2729 18.9722 18.6225 20.6225C16.9722 22.2728 14.7339 23.2 12.4 23.2C10.0661 23.2 7.82778 22.2728 6.17746 20.6225C4.52714 18.9722 3.6 16.7339 3.6 14.4V10.4H4.4C4.93024 10.3994 5.43858 10.1884 5.81351 9.8135C6.18845 9.43857 6.39936 8.93023 6.4 8.39999V5.99999C6.4 5.8939 6.35786 5.79216 6.28284 5.71714C6.20783 5.64213 6.10609 5.59999 6 5.59999H5.2V5.19999C5.2 5.0939 5.15786 4.99216 5.08284 4.91715C5.00783 4.84213 4.90609 4.79999 4.8 4.79999C4.48174 4.79999 4.17652 4.92642 3.95147 5.15146C3.72643 5.3765 3.6 5.68173 3.6 5.99999C3.6 6.31825 3.72643 6.62347 3.95147 6.84852C4.17652 7.07356 4.48174 7.19999 4.8 7.19999C4.90609 7.19999 5.00783 7.15785 5.08284 7.08283C5.15786 7.00782 5.2 6.90607 5.2 6.79999V6.39999H5.6V8.39999C5.6 8.71825 5.47357 9.02347 5.24853 9.24852C5.02348 9.47356 4.71826 9.59999 4.4 9.59999H2C1.68174 9.59999 1.37652 9.47356 1.15147 9.24852C0.926428 9.02347 0.8 8.71825 0.8 8.39999V6.39999H1.2V6.79999C1.2 6.90607 1.24214 7.00782 1.31716 7.08283C1.39217 7.15785 1.49391 7.19999 1.6 7.19999C1.91826 7.19999 2.22348 7.07356 2.44853 6.84852C2.67357 6.62347 2.8 6.31825 2.8 5.99999C2.8 5.68173 2.67357 5.3765 2.44853 5.15146C2.22348 4.92642 1.91826 4.79999 1.6 4.79999C1.49391 4.79999 1.39217 4.84213 1.31716 4.91715C1.24214 4.99216 1.2 5.0939 1.2 5.19999V5.59999H0.4C0.293913 5.59999 0.192172 5.64213 0.117157 5.71714C0.0421427 5.79216 0 5.8939 0 5.99999V8.39999C0.000635143 8.93023 0.211553 9.43857 0.586488 9.8135C0.961423 10.1884 1.46976 10.3994 2 10.4H2.8V14.4C2.8 16.9461 3.81143 19.3879 5.61178 21.1882C7.41212 22.9886 9.85392 24 12.4 24C14.9461 24 17.3879 22.9886 19.1882 21.1882C20.9886 19.3879 22 16.9461 22 14.4V10.364C22.5904 10.2606 23.1207 9.9401 23.4867 9.46545C23.8527 8.99081 24.0278 8.3964 23.9777 7.79914C23.9275 7.20188 23.6557 6.645 23.2157 6.23803C22.7757 5.83106 22.1994 5.60346 21.6 5.59999ZM21.6 9.59999C21.2836 9.59999 20.9742 9.50615 20.7111 9.33034C20.448 9.15453 20.2429 8.90464 20.1218 8.61228C20.0007 8.31992 19.969 7.99821 20.0307 7.68784C20.0925 7.37747 20.2449 7.09238 20.4686 6.86862C20.6924 6.64485 20.9775 6.49247 21.2879 6.43073C21.5982 6.36899 21.9199 6.40068 22.2123 6.52178C22.5047 6.64288 22.7545 6.84796 22.9304 7.11108C23.1062 7.37419 23.2 7.68354 23.2 7.99999C23.2 8.42433 23.0314 8.8313 22.7314 9.13136C22.4313 9.43142 22.0243 9.59999 21.6 9.59999Z" fill="#7A1E1E"/>
<path d="M21.6 6.79999C21.3627 6.79999 21.1307 6.87037 20.9333 7.00222C20.736 7.13408 20.5822 7.3215 20.4914 7.54077C20.4005 7.76004 20.3768 8.00132 20.4231 8.2341C20.4694 8.46687 20.5837 8.68069 20.7515 8.84852C20.9193 9.01634 21.1331 9.13063 21.3659 9.17693C21.5987 9.22323 21.84 9.19947 22.0592 9.10864C22.2785 9.01782 22.4659 8.86401 22.5978 8.66667C22.7296 8.46933 22.8 8.23733 22.8 7.99999C22.8 7.68173 22.6736 7.3765 22.4486 7.15146C22.2235 6.92642 21.9183 6.79999 21.6 6.79999ZM21.6 8.39999C21.5209 8.39999 21.4436 8.37653 21.3778 8.33258C21.312 8.28862 21.2607 8.22615 21.2305 8.15306C21.2002 8.07997 21.1923 7.99954 21.2077 7.92195C21.2231 7.84436 21.2612 7.77309 21.3172 7.71714C21.3731 7.6612 21.4444 7.62311 21.522 7.60767C21.5996 7.59224 21.68 7.60016 21.7531 7.63044C21.8262 7.66071 21.8887 7.71198 21.9326 7.77776C21.9766 7.84354 22 7.92088 22 7.99999C22 8.10607 21.9579 8.20782 21.8829 8.28283C21.8079 8.35785 21.7061 8.39999 21.6 8.39999Z" fill="#7A1E1E"/>
</svg>
