<svg width="28" height="28" viewBox="0 0 28 28" fill="none" xmlns="http://www.w3.org/2000/svg">
<path d="M12.6872 2.84421H12.031V2.18798C12.031 2.07195 11.9849 1.96067 11.9028 1.87863C11.8208 1.79658 11.7095 1.75049 11.5935 1.75049C11.4774 1.75049 11.3662 1.79658 11.2841 1.87863C11.2021 1.96067 11.156 2.07195 11.156 2.18798V2.84421H10.4997C10.3837 2.84421 10.2724 2.8903 10.1904 2.97235C10.1083 3.05439 10.0623 3.16567 10.0623 3.2817C10.0623 3.39773 10.1083 3.509 10.1904 3.59105C10.2724 3.67309 10.3837 3.71919 10.4997 3.71919H11.156V4.37542C11.156 4.49145 11.2021 4.60273 11.2841 4.68477C11.3662 4.76681 11.4774 4.81291 11.5935 4.81291C11.7095 4.81291 11.8208 4.76681 11.9028 4.68477C11.9849 4.60273 12.031 4.49145 12.031 4.37542V3.71919H12.6872C12.8032 3.71919 12.9145 3.67309 12.9965 3.59105C13.0786 3.509 13.1247 3.39773 13.1247 3.2817C13.1247 3.16567 13.0786 3.05439 12.9965 2.97235C12.9145 2.8903 12.8032 2.84421 12.6872 2.84421Z" fill="#C7A35D"/>
<path d="M16.8127 21.9145C16.7073 20.5136 16.4879 19.1236 16.1565 17.7584C16.2588 17.7597 16.3583 17.7251 16.4377 17.6606C16.5171 17.5961 16.5715 17.5058 16.5912 17.4055C16.611 17.3051 16.595 17.2009 16.5459 17.1112C16.4968 17.0214 16.4179 16.9516 16.3227 16.914C15.9377 16.7719 14.6077 16.3212 14.1987 16.2316C15.1881 15.7452 16.0217 14.9917 16.6051 14.0561C17.1884 13.1206 17.4983 12.0405 17.4995 10.938V2.84442C17.5082 2.46861 17.4406 2.09494 17.3008 1.74601C17.1609 1.39707 16.9518 1.08012 16.686 0.814313C16.4202 0.548505 16.1032 0.33936 15.7543 0.199524C15.4053 0.0596874 15.0317 -0.00793633 14.6559 0.000740851H8.68852C7.03482 0.000740851 5.68735 1.27602 5.68735 2.84442V10.938C5.6875 12.0493 6.00124 13.1381 6.5925 14.0792C7.18375 15.0203 8.02854 15.7754 9.02977 16.2578C6.46741 16.8421 4.17906 18.2783 2.53883 20.3318C0.898609 22.3852 0.00355439 24.9344 0 27.5625C0 27.6785 0.0460924 27.7898 0.128137 27.8719C0.210182 27.9539 0.321459 28 0.437489 28C0.553518 28 0.664795 27.9539 0.74684 27.8719C0.828885 27.7898 0.874977 27.6785 0.874977 27.5625C0.875546 25.5483 1.44365 23.575 2.51416 21.8689C3.58468 20.1627 5.11428 18.7927 6.92763 17.9159C6.71393 18.7956 6.59151 19.695 6.56233 20.5999C5.8926 20.7042 5.28214 21.0442 4.84097 21.5588C4.3998 22.0734 4.15694 22.7286 4.15614 23.4064V26.6875C4.17357 27.03 4.31745 27.3538 4.55991 27.5962C4.80237 27.8387 5.12616 27.9826 5.46861 28C5.58464 28 5.69591 27.9539 5.77796 27.8719C5.86 27.7898 5.9061 27.6785 5.9061 27.5625C5.9061 27.4465 5.86 27.3352 5.77796 27.2532C5.69591 27.1711 5.58464 27.125 5.46861 27.125C5.3578 27.1102 5.25494 27.0593 5.17589 26.9803C5.09683 26.9012 5.04596 26.7983 5.03112 26.6875V23.4064C5.03112 22.8842 5.23853 22.3835 5.60774 22.0143C5.97694 21.6451 6.47769 21.4377 6.99982 21.4377C7.52195 21.4377 8.0227 21.6451 8.3919 22.0143C8.7611 22.3835 8.96852 22.8842 8.96852 23.4064V26.6875C8.95367 26.7983 8.9028 26.9012 8.82375 26.9803C8.74469 27.0593 8.64184 27.1102 8.53103 27.125C8.415 27.125 8.30372 27.1711 8.22168 27.2532C8.13963 27.3352 8.09354 27.4465 8.09354 27.5625C8.09354 27.6785 8.13963 27.7898 8.22168 27.8719C8.30372 27.9539 8.415 28 8.53103 28C8.87347 27.9826 9.19727 27.8387 9.43973 27.5962C9.68219 27.3538 9.82606 27.03 9.84349 26.6875V23.4064C9.8427 22.7286 9.59983 22.0734 9.15866 21.5588C8.71749 21.0442 8.10703 20.7042 7.43731 20.5999C7.46574 19.8299 7.60793 18.2068 8.02792 17.4543L11.2872 21.7111C11.3303 21.7622 11.3841 21.8033 11.4447 21.8315C11.5054 21.8596 11.5714 21.8742 11.6383 21.8742C11.7052 21.8742 11.7712 21.8596 11.8319 21.8315C11.8925 21.8033 11.9463 21.7622 11.9894 21.7111L15.1218 17.4259C15.6162 18.8127 15.8546 21.0177 15.9355 21.9277C15.4061 22.044 14.9387 22.3529 14.624 22.7942C14.3093 23.2356 14.1698 23.7781 14.2323 24.3166C14.2949 24.855 14.5552 25.3511 14.9627 25.7085C15.3702 26.066 15.8959 26.2594 16.438 26.2513C16.98 26.2432 17.4997 26.0341 17.8963 25.6645C18.2929 25.295 18.5382 24.7914 18.5846 24.2513C18.631 23.7112 18.4752 23.1731 18.1474 22.7414C17.8196 22.3096 17.3432 22.015 16.8105 21.9145H16.8127ZM16.6246 8.2999C13.8618 8.17959 12.0309 7.24555 11.0466 6.56307H16.6246V8.2999ZM6.56233 2.84442C6.56233 1.75069 7.51605 0.875718 8.68852 0.875718H14.6559C14.9161 0.869422 15.1749 0.916041 15.4166 1.01275C15.6583 1.10946 15.8779 1.25424 16.062 1.43832C16.246 1.6224 16.3908 1.84194 16.4875 2.08364C16.5842 2.32534 16.6309 2.58416 16.6246 2.84442V5.68809H6.56233V2.84442ZM6.56233 10.938V6.56307H9.65756C10.2219 7.11868 12.4334 9.00644 16.6246 9.188V10.938C16.6246 12.2723 16.0945 13.552 15.151 14.4955C14.2075 15.439 12.9278 15.9691 11.5934 15.9691C10.2591 15.9691 8.97943 15.439 8.03591 14.4955C7.09239 13.552 6.56233 12.2723 6.56233 10.938ZM11.6284 20.7158L8.92477 17.1809C9.79648 16.9561 10.6932 16.8429 11.5934 16.844C12.4847 16.8416 13.3731 16.9444 14.2403 17.1503L11.6284 20.7158ZM16.4058 25.3751C16.1462 25.3751 15.8925 25.2981 15.6767 25.1539C15.4608 25.0097 15.2926 24.8047 15.1933 24.5649C15.0939 24.325 15.0679 24.0611 15.1186 23.8066C15.1692 23.552 15.2942 23.3181 15.4778 23.1346C15.6613 22.951 15.8952 22.826 16.1498 22.7754C16.4044 22.7247 16.6683 22.7507 16.9081 22.85C17.1479 22.9494 17.3529 23.1176 17.4971 23.3334C17.6413 23.5493 17.7183 23.803 17.7183 24.0626C17.7183 24.4107 17.58 24.7445 17.3339 24.9907C17.0877 25.2368 16.7539 25.3751 16.4058 25.3751Z" fill="#C7A35D"/>
<path d="M27.2883 17.4741C26.8509 17.1219 26.8684 17.2073 27.028 16.6429C27.133 16.2623 27.2665 15.7898 26.9974 15.4201C26.7284 15.0504 26.2318 15.0264 25.8359 15.0111C25.2518 14.987 25.324 15.0417 25.125 14.497C24.9872 14.123 24.8165 13.6549 24.3725 13.5127C23.9284 13.3705 23.5522 13.6308 23.211 13.8583C22.7122 14.1908 22.7866 14.1908 22.2879 13.8583C21.9466 13.6395 21.5572 13.3727 21.1263 13.5127C20.6954 13.6527 20.5117 14.123 20.3738 14.497C20.1748 15.0417 20.247 14.987 19.6651 15.0111C19.267 15.0264 18.7748 15.0461 18.5014 15.4201C18.228 15.7942 18.3658 16.2623 18.4708 16.6429C18.6305 17.2073 18.6589 17.1219 18.2105 17.4741C17.8933 17.7191 17.4995 18.0319 17.4995 18.5066C17.4995 18.9813 17.8933 19.2875 18.2105 19.5369C18.6479 19.8891 18.6305 19.8038 18.4708 20.3681C18.3658 20.7487 18.2323 21.2212 18.5014 21.5931C18.7704 21.9649 19.3392 21.9912 19.687 22.0021V26.9064C19.687 26.9876 19.7096 27.0673 19.7523 27.1364C19.795 27.2055 19.8562 27.2613 19.9288 27.2977C20.0015 27.334 20.0828 27.3494 20.1638 27.3421C20.2447 27.3348 20.322 27.3051 20.387 27.2564L22.7494 25.4845L25.1118 27.2564C25.1768 27.3051 25.2541 27.3348 25.335 27.3421C25.416 27.3494 25.4973 27.334 25.57 27.2977C25.6427 27.2613 25.7038 27.2055 25.7465 27.1364C25.7892 27.0673 25.8118 26.9876 25.8118 26.9064V22.0021C25.9103 22.0021 26.724 21.9649 26.9974 21.5931C27.2708 21.2212 27.133 20.7487 27.028 20.3681C26.8684 19.8038 26.8399 19.8891 27.2883 19.5369C27.6055 19.2875 27.9993 18.9791 27.9993 18.5066C27.9993 18.0341 27.6055 17.7191 27.2883 17.4741ZM23.0119 24.5877C22.9362 24.5309 22.8441 24.5002 22.7494 24.5002C22.6547 24.5002 22.5626 24.5309 22.4869 24.5877L20.562 26.0314V22.969C20.6154 23.0915 20.6929 23.2021 20.7898 23.2941C20.8868 23.3862 21.0012 23.4578 21.1263 23.5049C21.5638 23.6427 21.9466 23.3846 22.2879 23.1571C22.4263 23.0471 22.5824 22.9614 22.7494 22.9034C22.9161 22.96 23.0722 23.0443 23.211 23.1527C23.4739 23.3628 23.7894 23.4967 24.1231 23.5399C24.519 23.5399 24.8144 23.2008 24.9368 22.9646V26.027L23.0119 24.5877ZM26.1006 19.5959C25.9409 19.9897 26.4287 20.9084 26.2821 21.0725C26.1356 21.2365 25.2081 21.0965 24.8187 21.3568C24.4294 21.6171 24.3134 22.584 24.11 22.6693C23.9066 22.7546 23.2131 22.0349 22.7494 22.0371C22.3119 22.0371 21.5922 22.713 21.3954 22.6671C21.2379 22.6037 21.0541 21.6106 20.6801 21.3546C20.306 21.0987 19.3523 21.2562 19.2167 21.079C19.127 20.8887 19.547 19.9722 19.3982 19.5938C19.2364 19.1781 18.3789 18.6553 18.3789 18.5C18.3789 18.3447 19.2298 17.811 19.3982 17.4063C19.5667 17.0016 19.0942 16.0742 19.2167 15.9276C19.3392 15.781 20.3345 15.8926 20.6801 15.6454C21.0257 15.3982 21.2313 14.4008 21.3888 14.333C21.5463 14.2651 22.3119 14.9826 22.7494 14.9826C23.1869 14.9826 23.9394 14.3023 24.1034 14.3526C24.2675 14.403 24.5059 15.3917 24.8187 15.6651C25.1315 15.9385 26.1596 15.7723 26.2821 15.9385C26.4046 16.1048 25.9781 17.0038 26.1006 17.426C26.2231 17.8482 27.1199 18.301 27.1199 18.5197C27.1199 18.7385 26.269 19.176 26.1006 19.5959Z" fill="#C7A35D"/>
<path d="M22.7494 15.8138C22.2168 15.8138 21.6962 15.9718 21.2534 16.2677C20.8106 16.5635 20.4654 16.9841 20.2616 17.4761C20.0578 17.9682 20.0045 18.5096 20.1084 19.0319C20.2123 19.5543 20.4687 20.0341 20.8453 20.4106C21.2219 20.7872 21.7017 21.0437 22.2241 21.1476C22.7464 21.2515 23.2878 21.1982 23.7799 20.9944C24.2719 20.7905 24.6924 20.4454 24.9883 20.0026C25.2842 19.5598 25.4421 19.0392 25.4421 18.5066C25.4415 17.7926 25.1577 17.108 24.6528 16.6032C24.1479 16.0983 23.4634 15.8144 22.7494 15.8138ZM22.7494 20.3243C22.3899 20.3243 22.0384 20.2177 21.7395 20.018C21.4406 19.8183 21.2076 19.5344 21.07 19.2022C20.9324 18.8701 20.8964 18.5046 20.9665 18.152C21.0367 17.7993 21.2098 17.4755 21.464 17.2212C21.7182 16.967 22.0421 16.7939 22.3948 16.7237C22.7474 16.6536 23.1129 16.6896 23.445 16.8272C23.7772 16.9648 24.0611 17.1978 24.2608 17.4967C24.4605 17.7956 24.5671 18.1471 24.5671 18.5066C24.5666 18.9885 24.3749 19.4505 24.0341 19.7913C23.6933 20.1321 23.2313 20.3238 22.7494 20.3243Z" fill="#C7A35D"/>
</svg>
