<svg width="29" height="28" viewBox="0 0 29 28" fill="none" xmlns="http://www.w3.org/2000/svg">
<path d="M24.7287 13.7731L21.5672 8.73805C21.4501 8.56241 21.2744 8.44531 21.0988 8.44531H7.1061C6.93046 8.44531 6.69627 8.56241 6.63773 8.73805L3.4762 13.7731C3.35911 13.9487 3.35911 14.2414 3.53475 14.4171L13.6633 27.8243C13.7219 27.8828 13.7804 27.9414 13.839 27.9414H13.8975C13.9561 27.9999 14.0732 27.9999 14.1317 27.9999C14.1903 27.9999 14.3074 27.9999 14.3659 27.9414H14.4244C14.483 27.8828 14.5415 27.8828 14.6001 27.8243L24.7287 14.3585C24.8458 14.1829 24.8458 13.9487 24.7287 13.7731ZM7.1061 10.0846L9.33088 13.4803H4.99842L7.1061 10.0846ZM23.1479 13.4803H18.8155L21.0402 10.0846L23.1479 13.4803ZM11.5557 13.4803L14.0732 10.0261L16.5907 13.4803H11.5557ZM16.942 14.6513L14.0732 25.3068L11.2044 14.6513H16.942ZM17.7031 13.012L15.2441 9.61625H19.9864L17.7031 13.012ZM10.4433 13.012L8.15994 9.5577H12.9022L10.4433 13.012ZM9.97489 14.6513L12.7266 24.7213L5.11551 14.6513H9.97489ZM18.1714 14.6513H23.0308L15.4197 24.7213L18.1714 14.6513Z" fill="#C7A35D"/>
<path d="M5.70099 7.45008C5.87663 7.56717 6.11082 7.50862 6.34501 7.39153C6.52065 7.27444 6.63774 7.04025 6.57919 6.80606L6.22791 4.81547L7.63304 3.41035C7.80868 3.23471 7.86722 3.00052 7.80868 2.82488C7.75013 2.5907 7.57449 2.4736 7.3403 2.41505L5.34971 2.12232L4.47151 0.307371C4.29587 -0.102457 3.59331 -0.102457 3.41767 0.307371L2.53947 2.12232L0.548876 2.41505C0.314689 2.4736 0.139049 2.5907 0.021955 2.82488C-0.0365917 3.05907 0.021955 3.29326 0.197595 3.41035L1.66126 4.81547L1.30998 6.80606C1.25144 7.04025 1.36853 7.27444 1.54417 7.39153C1.71981 7.50862 1.954 7.56717 2.18819 7.45008L3.94459 6.51333L5.70099 7.45008ZM2.65656 5.86931L2.8322 4.69838C2.89075 4.52274 2.77365 4.28855 2.65656 4.17146L1.83691 3.41035L2.94929 3.23471C3.12493 3.23471 3.30057 3.05907 3.41767 2.94198L3.94459 1.94668L4.41296 2.94198C4.53006 3.11762 4.7057 3.23471 4.88134 3.23471L5.99373 3.41035L5.17407 4.23C5.05698 4.3471 4.99843 4.52274 4.99843 4.69838L5.17407 5.86931L4.17878 5.34239C4.12023 5.28385 4.00314 5.2253 3.94459 5.2253C3.88604 5.2253 3.76895 5.2253 3.65186 5.28385L2.65656 5.86931Z" fill="#C7A35D"/>
<path d="M17.9373 2.82488C17.8787 2.5907 17.7031 2.4736 17.4689 2.41505L15.4783 2.12232L14.6001 0.307371C14.4245 -0.102457 13.7219 -0.102457 13.5463 0.307371L12.6681 2.12232L10.6775 2.41505C10.4433 2.4736 10.2676 2.5907 10.2091 2.82488C10.1505 3.05907 10.2091 3.29326 10.3847 3.41035L11.8484 4.81547L11.4971 6.80606C11.4386 7.04025 11.5557 7.27444 11.7313 7.39153C11.9069 7.50862 12.1411 7.56717 12.3753 7.45008L14.1317 6.51333L15.8881 7.45008C16.0638 7.56717 16.298 7.50862 16.5321 7.39153C16.7078 7.27444 16.8249 7.04025 16.7663 6.80606L16.415 4.81547L17.8787 3.41035C17.9373 3.29326 17.9958 3.05907 17.9373 2.82488ZM15.3027 4.23C15.1856 4.3471 15.127 4.58129 15.127 4.75693L15.3027 5.86931L14.3074 5.34239C14.2488 5.28385 14.1903 5.2253 14.0732 5.2253C13.9561 5.2253 13.8975 5.2253 13.7804 5.28385L12.7851 5.86931L13.0193 4.69838C13.0779 4.52274 12.9608 4.28855 12.8437 4.17146L12.024 3.3518L13.1364 3.17616C13.3121 3.17616 13.4877 3.00052 13.6048 2.88343L14.0732 1.88813L14.6001 2.94198C14.6586 3.11762 14.8343 3.23471 15.0685 3.23471L16.1809 3.41035L15.3027 4.23Z" fill="#C7A35D"/>
<path d="M27.5975 2.41505L25.6069 2.12232L24.7287 0.307371C24.5531 -0.102457 23.8505 -0.102457 23.6749 0.307371L22.7967 2.12232L20.8061 2.41505C20.5719 2.4736 20.3962 2.5907 20.3377 2.82488C20.2791 3.05907 20.3377 3.29326 20.5133 3.41035L21.977 4.81547L21.6257 6.80606C21.5672 7.04025 21.6843 7.27444 21.8599 7.39153C22.0355 7.50862 22.2697 7.56717 22.5039 7.45008L24.2603 6.51333L26.0167 7.45008C26.1924 7.56717 26.4266 7.50862 26.6607 7.39153C26.8364 7.27444 26.9535 7.04025 26.8949 6.80606L26.5436 4.81547L28.0073 3.41035C28.183 3.23471 28.2415 3.00052 28.183 2.82488C28.0073 2.5907 27.8317 2.4736 27.5975 2.41505ZM25.4898 4.23C25.3727 4.3471 25.3142 4.58129 25.3142 4.75693L25.4898 5.86931L24.4945 5.34239C24.3189 5.2253 24.1432 5.2253 23.9676 5.34239L22.9723 5.86931L23.1479 4.69838C23.2065 4.52274 23.0894 4.28855 22.9723 4.17146L22.1526 3.3518L23.265 3.17616C23.4407 3.17616 23.6163 3.00052 23.7334 2.88343L24.2603 1.88813L24.7287 2.94198C24.7872 3.11762 24.9629 3.23471 25.1971 3.23471L26.3095 3.41035L25.4898 4.23Z" fill="#C7A35D"/>
</svg>
