<svg width="24" height="24" viewBox="0 0 24 24" fill="none" xmlns="http://www.w3.org/2000/svg">
<path d="M14.56 17.0046C10.1567 19.8901 4.06953 16.5518 4.13802 11.2801C4.13733 10.389 4.31226 9.50646 4.65281 8.68296C4.99335 7.85946 5.49284 7.11114 6.12273 6.48077C6.75262 5.8504 7.50055 5.35034 8.32379 5.00916C9.14703 4.66798 10.0294 4.49238 10.9206 4.49238C11.8117 4.49239 12.6941 4.66801 13.5173 5.0092C14.3406 5.35039 15.0885 5.85046 15.7184 6.48084C16.3483 7.11122 16.8477 7.85955 17.1883 8.68305C17.5288 9.50656 17.7037 10.3891 17.703 11.2802C17.703 11.39 17.7466 11.4952 17.8242 11.5728C17.9018 11.6504 18.0071 11.694 18.1168 11.694C18.2266 11.694 18.3318 11.6504 18.4094 11.5728C18.487 11.4952 18.5306 11.39 18.5306 11.2802C18.5284 9.2626 17.726 7.32822 16.2993 5.9015C14.8727 4.47478 12.9383 3.67223 10.9207 3.66992C0.824978 4.08758 0.826994 18.474 10.9208 18.8906C12.3674 18.8922 13.7843 18.4801 15.0045 17.7029C15.0503 17.6737 15.09 17.6358 15.1212 17.5913C15.1524 17.5468 15.1745 17.4966 15.1863 17.4435C15.198 17.3904 15.1993 17.3356 15.1898 17.2821C15.1804 17.2285 15.1605 17.1774 15.1314 17.1315C15.1022 17.0857 15.0642 17.046 15.0197 17.0148C14.9752 16.9837 14.925 16.9615 14.8719 16.9497C14.8189 16.938 14.764 16.9368 14.7105 16.9462C14.657 16.9556 14.6058 16.9755 14.56 17.0046Z" fill="#C7A35D"/>
<path d="M20.6359 16.1139C20.5998 16.0502 20.5475 15.9973 20.4842 15.9604C20.421 15.9236 20.3491 15.9042 20.2759 15.9042H19.2503V12.7199C19.2503 12.6656 19.2396 12.6118 19.2188 12.5616C19.1981 12.5113 19.1676 12.4657 19.1292 12.4273C19.0907 12.3888 19.0451 12.3584 18.9949 12.3376C18.9447 12.3168 18.8908 12.3061 18.8365 12.3062H17.3975C17.3432 12.3061 17.2894 12.3168 17.2391 12.3376C17.1889 12.3584 17.1433 12.3888 17.1049 12.4273C17.0664 12.4657 17.036 12.5113 17.0152 12.5616C16.9944 12.6118 16.9837 12.6656 16.9837 12.7199V15.9042H15.9581C15.8852 15.9051 15.8138 15.925 15.7511 15.9621C15.6883 15.9992 15.6364 16.0521 15.6005 16.1156C15.5646 16.179 15.546 16.2508 15.5465 16.3236C15.547 16.3965 15.5666 16.468 15.6034 16.531L17.762 20.1294C17.7988 20.1907 17.8508 20.2414 17.9129 20.2766C17.9751 20.3118 18.0453 20.3303 18.1168 20.3303C18.1882 20.3303 18.2585 20.3118 18.3206 20.2766C18.3828 20.2414 18.4348 20.1907 18.4716 20.1294L20.6307 16.531C20.6684 16.4681 20.6887 16.3964 20.6897 16.3232C20.6906 16.2499 20.672 16.1777 20.6359 16.1139ZM18.1168 19.1123L16.6887 16.7318H17.3975C17.4519 16.7318 17.5057 16.7211 17.5559 16.7004C17.6061 16.6796 17.6518 16.6491 17.6902 16.6107C17.7286 16.5722 17.7591 16.5266 17.7799 16.4764C17.8007 16.4262 17.8114 16.3724 17.8113 16.318V13.1337H18.4227V16.318C18.4227 16.3724 18.4334 16.4262 18.4541 16.4764C18.4749 16.5266 18.5054 16.5722 18.5438 16.6107C18.5823 16.6491 18.6279 16.6796 18.6781 16.7004C18.7283 16.7211 18.7822 16.7318 18.8365 16.7318H19.5449L18.1168 19.1123Z" fill="#C7A35D"/>
<path d="M10.9207 5.73535C10.8663 5.73532 10.8125 5.746 10.7623 5.76679C10.7121 5.78757 10.6664 5.81805 10.628 5.85648C10.5896 5.89491 10.5591 5.94054 10.5383 5.99076C10.5175 6.04097 10.5069 6.0948 10.5069 6.14914V10.2277C10.3623 10.2847 10.231 10.3709 10.1211 10.4808C10.0112 10.5907 9.92508 10.722 9.86799 10.8665H7.0062C6.89646 10.8665 6.79121 10.9101 6.7136 10.9877C6.636 11.0653 6.59241 11.1706 6.59241 11.2803C6.59241 11.3901 6.636 11.4953 6.7136 11.5729C6.79121 11.6505 6.89646 11.6941 7.0062 11.6941H9.86799C9.93649 11.8693 10.0475 12.0246 10.1911 12.1461C10.3347 12.2675 10.5063 12.3513 10.6903 12.3898C10.8744 12.4283 11.0652 12.4204 11.2454 12.3667C11.4256 12.313 11.5896 12.2153 11.7226 12.0823C11.8556 11.9493 11.9534 11.7853 12.007 11.605C12.0607 11.4248 12.0687 11.234 12.0301 11.05C11.9916 10.8659 11.9078 10.6943 11.7864 10.5508C11.6649 10.4072 11.5096 10.2961 11.3344 10.2277L11.3345 6.14914C11.3345 6.0948 11.3238 6.04097 11.303 5.99076C11.2823 5.94054 11.2518 5.89491 11.2133 5.85648C11.1749 5.81805 11.1293 5.78757 11.0791 5.76679C11.0289 5.746 10.975 5.73532 10.9207 5.73535ZM10.9207 11.5862C10.8406 11.5847 10.7643 11.5518 10.7082 11.4946C10.6521 11.4374 10.6207 11.3604 10.6207 11.2803C10.6207 11.2002 10.6521 11.1233 10.7082 11.0661C10.7643 11.0089 10.8406 10.976 10.9207 10.9744C11.0008 10.976 11.0771 11.0089 11.1332 11.0661C11.1893 11.1233 11.2207 11.2002 11.2207 11.2804C11.2207 11.3605 11.1893 11.4374 11.1332 11.4946C11.0771 11.5518 11.0008 11.5847 10.9207 11.5862Z" fill="#C7A35D"/>
<path d="M12 0C9.62663 0 7.30655 0.703788 5.33316 2.02236C3.35977 3.34094 1.8217 5.21508 0.913451 7.4078C0.00519946 9.60051 -0.232441 12.0133 0.230582 14.3411C0.693604 16.6689 1.83649 18.807 3.51472 20.4853C5.19295 22.1635 7.33115 23.3064 9.65892 23.7694C11.9867 24.2324 14.3995 23.9948 16.5922 23.0865C18.7849 22.1783 20.6591 20.6402 21.9776 18.6668C23.2962 16.6935 24 14.3734 24 12C23.9963 8.81852 22.7309 5.7684 20.4812 3.51876C18.2316 1.26911 15.1815 0.00365677 12 0ZM12 23.1724C9.79031 23.1724 7.63024 22.5172 5.79294 21.2895C3.95565 20.0619 2.52365 18.317 1.67804 16.2755C0.832427 14.234 0.611176 11.9876 1.04227 9.82037C1.47336 7.65313 2.53743 5.6624 4.09992 4.09991C5.66241 2.53742 7.65314 1.47335 9.82037 1.04226C11.9876 0.611171 14.234 0.832422 16.2755 1.67804C18.317 2.52365 20.0619 3.95564 21.2895 5.79294C22.5172 7.63023 23.1724 9.7903 23.1724 12C23.169 14.9621 21.9909 17.8019 19.8964 19.8964C17.8019 21.9909 14.9621 23.169 12 23.1724Z" fill="#C7A35D"/>
</svg>
