<svg width="23" height="24" viewBox="0 0 23 24" fill="none" xmlns="http://www.w3.org/2000/svg">
<path d="M11.0682 13.5023C11.3457 13.6019 11.6396 13.648 11.9342 13.6383C12.2717 13.6342 12.1827 13.1589 11.8691 13.2039C11.7127 13.2287 11.5541 13.2362 11.3961 13.2262C11.3566 13.2231 11.2548 13.1899 11.1837 13.176C11.184 13.1693 11.1842 13.1625 11.1848 13.157C11.2203 12.8267 11.2653 12.4975 11.3064 12.168C11.4198 11.2594 11.541 10.3521 11.5791 9.43653C11.5856 9.28124 11.3403 9.25663 11.3212 9.41769C11.2002 10.4338 11.0572 11.4485 10.9211 12.4628C10.8876 12.7122 10.8021 13.0091 10.8207 13.2619C10.8313 13.404 10.9495 13.4567 11.0682 13.5023Z" fill="#7A1E1E"/>
<path d="M12.2981 15.3753C11.9145 15.421 11.5262 15.4083 11.1464 15.3375C10.7594 15.2646 10.4391 15.0948 10.0786 14.9522C9.89605 14.88 9.86497 15.0727 9.99665 15.167C10.3273 15.4037 10.7859 15.5239 11.1832 15.5891C11.5895 15.6529 12.0039 15.6445 12.4072 15.5642C12.5311 15.5407 12.3857 15.3651 12.2981 15.3753Z" fill="#7A1E1E"/>
<path d="M8.99538 10.1202C8.72055 10.3443 8.33622 10.3875 7.99324 10.4174C7.64594 10.4476 7.30165 10.425 7.01196 10.2138C6.80065 10.0599 6.64254 10.3149 6.8554 10.4644C7.20682 10.7109 7.63226 10.7717 8.05286 10.7362C8.45908 10.7019 8.92277 10.6284 9.2283 10.3367C9.34811 10.2225 9.10741 10.0289 8.99538 10.1202Z" fill="#7A1E1E"/>
<path d="M15.6586 10.1981C15.3779 10.404 15.0404 10.4475 14.6999 10.4234C14.3842 10.4012 13.9777 10.3679 13.7266 10.1586C13.5929 10.0472 13.3791 10.1502 13.5377 10.2981C13.8587 10.5981 14.3174 10.6893 14.7422 10.73C15.1709 10.7712 15.6005 10.7321 15.9621 10.48C16.1346 10.36 15.8128 10.085 15.6586 10.1981Z" fill="#7A1E1E"/>
<path d="M22.4043 5.60255C22.3913 4.06654 22.1913 2.53891 22.2038 1.002C22.2043 0.922921 22.0345 0.833157 22.0247 0.931312L18.4103 0.757315V0.757784C18.3605 0.750799 18.3206 0.769408 18.3275 0.831282C18.4194 1.64249 18.3823 2.46311 18.2178 3.26274C18.1847 3.41995 18.1452 3.5744 18.1005 3.72651C17.3921 2.15655 15.9412 1.05778 14.3494 0.442836C13.6907 0.188404 13.0543 0.0813899 12.3491 0.0414063C11.3244 -0.0162958 10.2567 -0.0376704 9.24173 0.140498C7.32458 0.477195 5.65483 1.64521 4.68116 3.33066C4.55798 3.54483 4.44712 3.76584 4.34901 3.99262C4.31784 3.89399 4.28854 3.79396 4.26248 3.69304C4.03453 2.78486 3.97214 1.84301 4.07827 0.912703C4.08291 0.869907 2.81496 0.759471 2.39155 0.760127C1.86909 0.760877 0.306633 0.901547 0.306633 0.901547V0.902015C0.256853 0.881063 0.201026 0.887578 0.201494 0.949921C0.212182 2.29661 0.0647157 3.63586 0.0135761 4.98021C-0.0338606 6.22968 0.0466223 7.50049 0.198729 8.74068C0.318727 9.71988 0.507161 10.7391 0.928137 11.6387C1.21191 12.2444 1.53656 12.8324 1.85521 13.4198C2.27994 14.2051 2.71301 14.9857 3.14796 15.7653C3.34473 16.1179 3.54165 16.4705 3.73871 16.8231C3.87502 17.0664 4.00388 17.3213 4.15223 17.5609C3.94589 17.3936 3.71752 17.2555 3.47354 17.1506C2.57342 16.7412 1.57238 16.6882 0.600159 16.7696C0.569691 16.77 0.545363 16.7951 0.545785 16.8255C0.546207 16.8545 0.568941 16.8782 0.597862 16.8798C1.0021 16.9435 0.965824 17.6296 0.998355 17.9316C1.03323 18.2507 1.05929 18.573 1.11835 18.8889C1.20905 19.3736 1.40907 19.8406 1.80961 20.1374C1.77473 20.1878 1.75064 20.2448 1.73892 20.3049C1.69983 20.5282 1.8501 20.7208 2.04688 20.7984C1.8891 20.8964 1.76456 21.0398 1.68961 21.2097C1.60031 21.4343 1.67845 21.6674 1.818 21.8535C1.8966 21.9582 1.9971 22.0438 2.07941 22.1456C2.20921 22.3052 2.25946 22.4968 2.30689 22.6931C2.36595 22.9373 2.42459 23.2001 2.52275 23.4323C2.58603 23.582 2.70603 23.7406 2.88884 23.7197C3.07722 23.6983 3.17913 23.4904 3.2582 23.3425C3.30995 23.2466 3.36681 23.1536 3.42845 23.0638C3.42798 23.068 3.42704 23.0722 3.42658 23.0764C3.39911 23.2597 3.39353 23.4691 3.55356 23.5951C3.69638 23.7077 3.8964 23.6932 4.06758 23.7016C4.36481 23.716 4.63279 23.8347 4.92027 23.9021C5.23606 23.9755 5.56001 24.0078 5.88409 23.9984C6.06086 23.9942 6.34693 24.0305 6.46093 23.8551C6.55767 23.7057 6.49022 23.5244 6.43069 23.3774C6.33301 23.1355 6.22599 22.8889 6.06695 22.6805C6.0265 22.6275 5.98229 22.5777 5.93669 22.5284C6.08776 22.6803 6.26068 22.8087 6.44977 22.9094C6.89868 23.1397 7.36339 23.0657 7.80668 22.8587C7.83368 22.8457 7.82576 22.8094 7.81643 22.7889C7.54386 22.1716 8.2323 21.3027 7.71223 20.751C7.68926 20.7264 7.6647 20.7034 7.63873 20.6821C7.74898 20.5938 7.8462 20.4905 7.92762 20.3751C7.93179 20.4021 7.93601 20.429 7.93924 20.456C7.98668 20.8226 8.0163 21.1907 8.02807 21.5603C8.04855 22.1888 7.98898 22.8089 7.57311 23.3098C7.4661 23.4387 7.6894 23.5708 7.79267 23.5703C9.99294 23.5573 12.1934 23.5446 14.394 23.5321L15.3108 23.5266C15.4238 23.5261 15.4034 23.3991 15.3545 23.3414C14.9391 22.8539 14.8908 22.2152 14.8987 21.6012C14.9096 20.9046 14.9823 20.2103 15.1159 19.5265C15.6123 19.0685 16.0498 18.5505 16.4184 17.9845C16.4338 18.0122 16.451 18.039 16.4701 18.0645C16.7087 18.3841 17.192 18.4896 17.5553 18.3431C17.9888 18.1682 18.2219 17.7169 18.4377 17.3314C18.6173 17.0108 18.7966 16.6899 18.9755 16.3684C19.4025 15.6004 19.83 14.8324 20.251 14.0616C20.6124 13.3996 20.9739 12.7373 21.312 12.0632C21.6795 11.3315 21.913 10.5561 22.0647 9.75129C22.3197 8.40014 22.4164 6.97672 22.4043 5.60255ZM17.5618 3.43898C17.6368 3.58509 17.7042 3.73396 17.7661 3.88513C17.7349 3.9763 17.7196 4.07586 17.6898 4.1661C17.6325 4.33836 17.5582 4.50448 17.4679 4.66198C17.3227 4.91458 17.1292 5.10902 16.9464 5.32529C16.6736 4.98607 16.3652 4.67698 16.0267 4.40333C16.2105 4.11636 16.4117 3.84093 16.6291 3.57853C16.817 3.34646 17.0049 3.0878 17.2831 2.97198C17.3856 3.12179 17.4787 3.27774 17.5618 3.43898ZM17.2199 2.88081C16.9771 2.98177 16.8055 3.18507 16.6389 3.39159C16.3878 3.69286 16.1622 4.01446 15.9644 4.35312C15.9025 4.30381 15.8402 4.25544 15.7765 4.20847C15.43 3.95015 15.0625 3.72126 14.6778 3.5242C14.929 3.21764 15.1211 2.86506 15.409 2.58827C15.5627 2.44075 15.7341 2.31293 15.9193 2.20774C16.0742 2.11981 16.2538 2.07378 16.4101 1.99376C16.713 2.25752 16.9848 2.55513 17.2199 2.88081ZM16.3059 1.90442C15.9714 1.97886 15.6188 2.24819 15.3881 2.46311C15.0824 2.74736 14.8168 3.12366 14.6117 3.49162C14.0809 3.22355 13.512 3.03877 12.925 2.94367C12.9692 2.73714 13.0734 2.55152 13.1836 2.36913C13.3067 2.15149 13.4488 1.94525 13.6083 1.75278C13.9577 1.35557 14.4307 1.18949 14.9136 1.01461C15.4128 1.25231 15.8805 1.55122 16.3059 1.90442ZM13.8409 0.600568C14.1603 0.695488 14.4727 0.812345 14.7759 0.950343C14.3326 1.09832 13.8893 1.28624 13.5684 1.63649C13.3818 1.8403 13.2381 2.07842 13.0976 2.31522C12.979 2.51477 12.8748 2.70639 12.845 2.9311C12.7752 2.92182 12.705 2.91343 12.6343 2.90687C12.251 2.87157 11.8602 2.84504 11.4671 2.83431C11.4934 2.0134 11.5673 1.19474 11.6886 0.382416C12.4068 0.387056 13.1501 0.395869 13.8409 0.600568ZM11.5378 0.381525C11.5601 0.381525 11.5825 0.381994 11.6048 0.381994C11.4753 1.19259 11.4058 2.01167 11.3967 2.83248C10.8953 2.81861 10.3936 2.83975 9.89516 2.89576C9.60257 2.12773 9.39881 1.3086 8.90944 0.638255C9.76738 0.407962 10.6512 0.375431 11.5378 0.381525ZM8.71332 0.694082C8.74913 0.682879 8.78495 0.673129 8.82076 0.662911C9.312 1.33045 9.50596 2.14774 9.8195 2.90504C9.20869 2.97681 8.61067 3.1321 8.04208 3.36652C7.96779 3.25702 7.8867 3.1523 7.79928 3.05298C7.65767 2.86698 7.50575 2.689 7.34432 2.51988C7.10624 2.26629 6.82022 2.06248 6.50283 1.92026C7.14613 1.36199 7.89907 0.944296 8.71332 0.694082ZM6.42511 1.98818C6.76144 2.12309 7.04657 2.34588 7.29824 2.61062C7.4285 2.74693 7.5485 2.89299 7.66761 3.03905C7.76295 3.15582 7.84854 3.28885 7.94534 3.40795C7.89649 3.4298 7.84812 3.45216 7.79975 3.47541C7.33733 3.69923 6.90632 3.98277 6.51774 4.31877C6.34937 4.10478 6.11162 3.92802 5.90233 3.77217C5.69857 3.61373 5.46719 3.49448 5.21993 3.42052C5.55246 2.88887 5.9582 2.40672 6.42511 1.98818ZM4.75279 4.29317C4.87686 4.0168 5.01837 3.74864 5.17657 3.49026C5.44826 3.55401 5.68872 3.6982 5.91109 3.87126C6.09484 4.01455 6.31346 4.175 6.4628 4.36573C6.05059 4.73046 5.68638 5.14609 5.37893 5.60265C5.21614 5.49381 5.02817 5.39279 4.87142 5.2705C4.77791 5.06955 4.68627 4.86813 4.60021 4.6639C4.64723 4.53921 4.69808 4.41561 4.75279 4.29317ZM6.10323 18.3707C6.12789 18.5187 6.15254 18.6615 6.16974 18.8047C5.98126 18.7257 5.78514 18.6662 5.58457 18.627C5.56216 18.4298 5.55316 18.2314 5.55757 18.033C5.69889 17.9466 5.84594 17.8698 5.99762 17.8032C6.01623 17.7944 6.03531 17.786 6.05392 17.7781C6.05715 17.7767 6.05996 17.7753 6.0632 17.7739C6.07623 17.7684 6.08926 17.7637 6.10182 17.7586C6.0302 17.9447 6.07206 18.1847 6.10309 18.3707H6.10323ZM4.64212 20.4612C4.63607 20.2156 4.57748 19.9807 4.51138 19.743C4.50252 19.7118 4.49277 19.6779 4.48256 19.6425C4.47792 19.6276 4.4737 19.6127 4.46906 19.5973C4.39509 19.3415 4.30997 19.0089 4.44299 18.7963C4.50951 18.6898 4.6221 18.6558 4.7421 18.6521C4.77346 18.6508 4.80482 18.6516 4.83608 18.6545C4.83978 18.6549 4.84353 18.6549 4.84724 18.6554C4.87096 18.6573 4.8942 18.66 4.91703 18.6633C4.95613 18.6684 4.99423 18.6745 5.02916 18.6805C5.18267 18.7061 5.33988 18.7322 5.49574 18.7638C5.53202 18.7712 5.5683 18.7787 5.60411 18.787C5.71671 18.8117 5.82738 18.84 5.93533 18.874C6.02176 18.9008 6.10581 18.9349 6.18652 18.9758C6.21629 18.9912 6.24559 19.0075 6.27446 19.0257C6.3068 19.0456 6.33802 19.0674 6.36797 19.0908H6.36844C6.38335 19.1019 6.39774 19.114 6.41171 19.1261C6.41916 19.1326 6.42615 19.1386 6.43313 19.1457C6.45352 19.1642 6.47279 19.1839 6.49083 19.2047C6.51338 19.2299 6.53452 19.2563 6.55411 19.2838C6.61692 19.3694 6.66853 19.4606 6.73505 19.5513C6.75905 19.5822 6.78619 19.6106 6.816 19.6359C6.84904 19.6643 6.88532 19.6927 6.92114 19.721C7.07371 19.841 7.21326 19.962 7.01371 20.1323C6.56527 20.5151 5.95126 20.5774 5.45168 20.864C5.26634 20.6402 4.95655 20.4961 4.64212 20.4612ZM5.82503 22.4159C5.67246 22.2703 5.50408 22.1382 5.34265 22.0061C5.36487 21.9853 5.38568 21.963 5.40499 21.9396C5.54125 22.0967 5.67803 22.2619 5.82503 22.4159ZM5.1724 5.92636C5.09703 5.75752 5.01936 5.59004 4.94169 5.42256C5.06801 5.51218 5.19959 5.59421 5.33571 5.66818C5.27937 5.75283 5.22448 5.83889 5.1724 5.92636ZM5.47896 18.6052C5.42266 18.5931 5.36637 18.5824 5.30965 18.5712C5.22593 18.555 5.1245 18.5308 5.01706 18.5112C5.02681 18.4977 5.03708 18.4838 5.04776 18.4703C5.07101 18.4405 5.09567 18.4112 5.1222 18.3833C5.22256 18.2762 5.33477 18.1809 5.45665 18.0991C5.45707 18.267 5.46358 18.4363 5.47896 18.6052ZM5.03609 18.3605C5.01795 18.3833 5.00028 18.4065 4.98355 18.4303C4.96775 18.4525 4.95191 18.4749 4.93658 18.4982C4.8845 18.4902 4.83191 18.4847 4.7803 18.4819C4.72279 18.3489 4.65627 18.2199 4.58123 18.0958C4.71261 18.2149 4.86758 18.3051 5.03609 18.3605ZM6.67814 19.1685C6.63525 19.1188 6.58842 19.0725 6.53813 19.0304C6.67767 18.8806 6.82345 18.7367 6.97537 18.5987C7.01259 18.5648 7.05121 18.5326 7.08885 18.4996C7.49867 18.5154 7.92246 18.4726 8.33228 18.4466C8.32113 18.5494 8.30997 18.6517 8.29694 18.7536C8.27646 18.9104 8.25508 19.0727 8.22808 19.2355C7.85749 19.1872 7.48475 19.1578 7.11121 19.1471C6.96656 19.1438 6.82181 19.151 6.67814 19.1685ZM7.1466 18.4493C7.35022 18.2762 7.56378 18.1151 7.7862 17.9669C8.01785 17.8129 8.2616 17.6883 8.50445 17.5586C8.46339 17.6304 8.43503 17.7087 8.42073 17.7902C8.38305 17.9851 8.36027 18.1847 8.33885 18.3842C7.9467 18.4005 7.53781 18.3971 7.1466 18.4493ZM7.1173 18.3563C7.11548 18.0618 7.15734 17.7686 7.24152 17.4864C7.66428 17.4476 8.08905 17.4356 8.51331 17.4506C8.0103 17.6599 7.53458 17.998 7.11716 18.3563L7.1173 18.3563ZM7.0717 18.3954C7.00748 18.4512 6.945 18.5071 6.88425 18.5629C6.74006 18.6954 6.60206 18.8334 6.47025 18.9769C6.40393 18.9279 6.33362 18.8846 6.25998 18.8475C6.24835 18.7549 6.23162 18.6638 6.21624 18.575C6.1944 18.4512 6.17063 18.3274 6.15948 18.2019C6.14457 18.0382 6.17298 17.8874 6.18043 17.7274C6.22646 17.7098 6.27254 17.693 6.31904 17.6777C6.5851 17.5912 6.85898 17.5312 7.1368 17.4986C7.03846 17.7869 7.01606 18.0958 7.0717 18.3954ZM4.34578 17.8758C4.48612 18.0596 4.59777 18.2637 4.67699 18.481C4.50998 18.488 4.35834 18.5401 4.26858 18.6875C4.12997 18.915 4.2067 19.2425 4.263 19.4811C4.32811 19.755 4.40535 20.0128 4.45467 20.2845C4.38257 19.9984 4.30068 19.7123 4.21884 19.4314C4.16072 19.2313 4.09744 18.9104 3.91833 18.7769C3.8866 18.7522 3.85088 18.7332 3.81272 18.7206C3.90685 18.3274 3.95274 17.9242 3.9495 17.5199C4.09828 17.6185 4.23183 17.7384 4.34578 17.8758ZM3.32425 17.1887C3.50542 17.2641 3.68068 17.3531 3.84849 17.4548C3.85355 17.8777 3.80668 18.2996 3.70895 18.7111C3.58426 18.7303 3.48381 18.8526 3.37726 18.947C3.32472 18.8763 3.27025 18.8075 3.21494 18.7391C3.19727 18.4195 3.25122 18.1315 3.30334 17.8185C3.33775 17.6111 3.37126 17.3766 3.29266 17.1761C3.30273 17.1803 3.31356 17.184 3.32425 17.1887ZM3.2261 17.1496C3.23495 17.4203 3.24424 17.6608 3.19633 17.9353C3.15494 18.1721 3.10516 18.4201 3.14936 18.6592C2.94565 18.4146 2.7251 18.1845 2.48928 17.9707C2.43856 17.9247 2.38663 17.8787 2.33342 17.833C2.39155 17.5274 2.36745 17.2118 2.26363 16.9185C2.59273 16.9557 2.91598 17.0334 3.2261 17.1496ZM2.16829 16.9078C2.25313 17.1953 2.29377 17.4941 2.28875 17.7939C1.86449 17.4311 1.38258 17.0915 0.871373 16.8733C1.30397 16.8574 1.73714 16.8688 2.16829 16.9078ZM0.992777 17.2534C0.977074 17.1515 0.942012 17.0536 0.889513 16.9649C1.38305 17.2362 1.85057 17.5166 2.28271 17.8786C1.88357 17.8269 1.47005 17.8241 1.06768 17.8079C1.04724 17.6217 1.02535 17.4362 0.992777 17.2534ZM1.11887 18.2535C1.1026 18.1256 1.08863 17.9963 1.0742 17.8669C1.48819 17.8925 1.9199 17.9404 2.33436 17.9223C2.37763 17.9595 2.42042 17.9972 2.46322 18.0362C2.68718 18.2414 2.89802 18.4605 3.09447 18.6922C2.53442 18.4335 1.75893 18.5926 1.17704 18.6573C1.15421 18.5214 1.13607 18.3855 1.11887 18.2535ZM1.19377 18.7512C1.52264 18.7219 1.85104 18.6777 2.1809 18.6615C2.51145 18.6473 2.8422 18.6844 3.1615 18.7712C3.21963 18.8415 3.27733 18.9127 3.33316 18.9847C3.32012 18.9945 3.30709 19.0043 3.29406 19.0126C3.22661 19.0564 3.15869 19.0987 3.09171 19.141C2.49444 19.0145 1.8832 18.9661 1.32174 19.2554C1.26666 19.0908 1.22391 18.9223 1.19377 18.7512ZM1.35844 19.356C1.87434 19.0852 2.4358 19.1094 2.98933 19.2053C2.77952 19.3325 2.58111 19.4775 2.39623 19.6388C2.25575 19.7667 2.02082 19.8937 1.87199 20.0584C1.63781 19.8775 1.45974 19.634 1.3583 19.356H1.35844ZM1.93851 20.5273C1.75893 20.2301 2.31669 19.9588 2.49626 19.8039C2.73612 19.6003 2.99397 19.419 3.26659 19.262C3.26805 19.2611 3.26959 19.2603 3.27123 19.2597C3.30428 19.2401 3.33681 19.2224 3.36845 19.2048C3.40009 19.1871 3.42939 19.1699 3.45868 19.1508C3.47359 19.1411 3.48798 19.1313 3.50242 19.1201C3.52825 19.1007 3.55253 19.0792 3.57498 19.0559C3.59593 19.0345 3.61778 19.0117 3.64009 18.9922C3.67065 18.9604 3.7103 18.9388 3.75357 18.9303C3.79824 18.9256 3.8424 18.9508 3.88336 19.0294C4.002 19.2577 4.05314 19.5368 4.11084 19.7848C4.1648 20.016 4.24715 20.2374 4.30622 20.4671C4.22756 20.479 4.15059 20.5001 4.07691 20.53C3.89391 20.6035 3.74312 20.7399 3.65176 20.9147C3.5536 20.9138 3.45564 20.9056 3.3587 20.89C3.15935 20.8185 2.95507 20.7614 2.74746 20.7193C2.67054 20.7059 2.5925 20.7 2.51441 20.7017C2.44775 20.6913 2.37997 20.6901 2.31299 20.6979C2.1584 20.6887 2.01524 20.6547 1.93851 20.5273ZM3.5229 22.6755C3.43637 22.7955 3.35453 22.9155 3.27588 23.0276C3.17496 23.1708 2.97213 23.724 2.74184 23.5197C2.64603 23.4356 2.61715 23.2499 2.58462 23.1341C2.5474 23.0029 2.50555 22.8736 2.47344 22.7411C2.40317 22.4512 2.32972 22.2061 2.13154 21.9786C1.87846 21.6883 1.6822 21.3879 2.0227 21.0683C2.32644 20.7827 2.60787 20.9296 2.95722 21.0055C3.13727 21.0495 3.3198 21.0826 3.50382 21.1046C3.52989 21.112 3.55548 21.1195 3.58196 21.1264C3.56223 21.2396 3.56879 21.3558 3.60104 21.466C3.67459 21.6995 3.83138 21.8978 4.04156 22.0233C3.90854 22.1609 3.76013 22.2889 3.64712 22.4419C3.59514 22.5137 3.55332 22.5922 3.5229 22.6755ZM6.21859 23.3848C6.25163 23.4667 6.30001 23.5574 6.29162 23.6471C6.27629 23.8058 6.12554 23.7857 5.9995 23.79C5.64208 23.8075 5.28396 23.7748 4.93564 23.6927C4.66583 23.6249 4.41046 23.5071 4.13091 23.4848C3.97974 23.4727 3.68804 23.529 3.65504 23.3322C3.6197 23.1202 3.72296 22.7857 3.84066 22.6061C3.95414 22.4336 4.12397 22.2908 4.26398 22.1363C4.34611 22.1694 4.43137 22.1942 4.51841 22.2103C4.75949 22.2588 5.00994 22.2185 5.22364 22.0968C5.44179 22.3229 5.70696 22.5024 5.89675 22.7554C6.03761 22.9438 6.13159 23.168 6.21859 23.3848ZM7.67272 20.9724C7.84624 21.5437 7.41083 22.1647 7.61319 22.7308C7.20383 22.9127 6.76842 22.9699 6.37674 22.7085C6.0474 22.4894 5.79855 22.16 5.53943 21.8665C5.52237 21.8489 5.50132 21.8356 5.47802 21.8279C5.50605 21.7746 5.52719 21.7181 5.54083 21.6595C5.55105 21.6514 5.55907 21.6409 5.56408 21.6288C5.61672 21.5005 5.63468 21.3606 5.61616 21.2231C5.95201 21.1929 6.25159 21.0176 6.55303 20.8766C6.78098 20.7701 7.17496 20.6129 7.43778 20.7101C7.47149 20.7217 7.50322 20.7385 7.53177 20.7599C7.60076 20.8134 7.65031 20.888 7.67272 20.9724ZM8.01555 20.0109C7.98302 20.0859 7.94524 20.1585 7.90254 20.2281C7.81175 20.3794 7.69358 20.5126 7.55412 20.6207C6.97265 20.2602 6.18278 20.945 5.58551 21.0975C5.57899 21.0799 5.57247 21.0622 5.56502 21.0455C6.06461 20.7352 6.67261 20.6678 7.14941 20.2993C7.29735 20.1849 7.40108 20.0104 7.28755 19.8309C7.25563 19.7852 7.2156 19.7458 7.16938 19.7146C7.47575 19.7149 7.77767 19.7877 8.05043 19.9272C8.03927 19.9551 8.02765 19.9834 8.01555 20.0109ZM8.16813 19.5406C8.15557 19.5955 8.14113 19.6499 8.1258 19.7039C8.1123 19.7495 8.09791 19.7946 8.08254 19.8388C7.76093 19.6776 7.40305 19.6026 7.04381 19.6211C6.94396 19.5349 6.85898 19.4329 6.79214 19.3192C6.7777 19.2969 6.76284 19.2755 6.74747 19.255C6.90862 19.236 7.07104 19.2305 7.23313 19.2383C7.5597 19.2546 7.88623 19.2978 8.21233 19.3275C8.1993 19.3992 8.18486 19.4704 8.16813 19.5406ZM17.3767 14.607C17.1474 15.3643 16.912 16.1262 16.604 16.8561C16.5477 16.9896 16.4789 17.1301 16.4254 17.2729C16.032 17.9626 15.539 18.5905 14.9624 19.1364C14.3654 19.6929 13.6796 20.1457 12.9333 20.4761C12.5668 20.6389 12.169 20.805 11.7671 20.8473C11.3215 20.8938 10.8605 20.8459 10.4191 20.7836C9.94461 20.7161 9.50826 20.5975 9.08635 20.3631C8.78968 20.1958 8.50647 20.0058 8.23928 19.7946L8.21322 19.7742C8.21739 19.7607 8.22114 19.7472 8.22532 19.7337C8.25363 19.6335 8.27678 19.532 8.29464 19.4294C8.34906 19.1224 8.37512 18.8113 8.40859 18.5015C8.44347 18.1809 8.40395 17.5213 8.81982 17.4558C8.88493 17.4455 8.86819 17.352 8.8082 17.3469C7.95415 17.2758 7.07634 17.3078 6.26602 17.593C5.57477 16.4714 5.13889 15.2174 4.88211 13.9283C5.1305 14.1781 5.4408 14.3237 5.83061 14.2409C6.42741 14.114 6.46557 13.4781 6.41719 12.9817C6.35115 12.3021 6.14087 11.6527 6.03714 10.98C5.91526 10.193 5.90551 9.39472 5.83895 8.60208C5.87322 8.61192 5.90917 8.61464 5.94456 8.61C6.079 8.59045 6.20738 8.44439 6.32415 8.37554C6.63764 8.19202 6.9861 8.0762 7.34708 8.03546C8.06393 7.95404 8.77191 8.18527 9.33572 8.62673C9.46176 8.72536 9.6246 8.56022 9.49668 8.4458C8.46597 7.52702 6.94345 7.42418 5.79855 8.19601C5.73471 7.62302 5.60575 7.05917 5.41432 6.51533C5.84261 5.68177 6.45179 4.95447 7.19732 4.38669C7.78526 3.94541 8.45247 3.62104 9.16266 3.4312C9.91203 3.23166 10.6852 3.20649 11.4569 3.21024C12.1072 3.21347 12.8027 3.20138 13.4367 3.36422C13.9142 3.49322 14.3735 3.68236 14.8034 3.92708C15.3834 4.2485 15.9277 4.6481 16.3747 5.14028C16.6568 5.45162 16.8959 5.79943 17.0855 6.17437C16.8691 6.70555 16.7179 7.26096 16.6352 7.82851C16.6185 7.94992 16.6045 8.07179 16.592 8.19366C15.4769 7.45404 13.9758 7.50799 12.9683 8.41974C12.845 8.53092 13.0678 8.71743 13.1841 8.62767C14.1666 7.87037 15.5086 7.80433 16.5083 8.56256C16.5233 8.57386 16.5393 8.58384 16.5562 8.59233C16.5129 9.1491 16.4924 9.70873 16.4389 10.2651C16.3701 10.9815 16.1747 11.6634 16.0533 12.37C15.9631 12.8952 15.8347 13.5739 16.2668 13.9874C16.5906 14.2972 17.1362 14.3646 17.4907 14.0669C17.5125 14.0488 17.533 14.0288 17.554 14.0092C17.4958 14.2088 17.4372 14.4083 17.3767 14.607ZM17.3558 5.55099C17.3227 5.62079 17.2911 5.69054 17.26 5.76033C17.1781 5.63429 17.0913 5.51195 16.9995 5.39331C17.2395 5.21795 17.4358 4.93558 17.5754 4.68579C17.667 4.52159 17.7889 4.29922 17.8443 4.0843C17.868 4.14941 17.8912 4.21503 17.9131 4.28108C17.7499 4.71134 17.554 5.1295 17.3557 5.55095L17.3558 5.55099Z" fill="#7A1E1E"/>
</svg>
