<svg width="28" height="28" viewBox="0 0 28 28" fill="none" xmlns="http://www.w3.org/2000/svg">
<path d="M21.7307 21.0132C21.9736 20.7169 23.0369 19.295 22.6767 17.5073C22.517 16.77 22.1648 16.0882 21.656 15.5313L21.656 12.8672C21.6622 11.3929 21.2536 9.94667 20.4769 8.69361C19.7002 7.44055 18.5867 6.43122 17.2636 5.78092C17.2747 5.67722 17.2805 5.57303 17.281 5.46875C17.281 4.59851 16.9353 3.76391 16.3199 3.14856C15.7046 2.5332 14.87 2.1875 13.9997 2.1875C13.1295 2.1875 12.2949 2.5332 11.6795 3.14856C11.0642 3.76391 10.7185 4.59851 10.7185 5.46875C10.719 5.57293 10.7248 5.67703 10.7358 5.78063C9.41272 6.43101 8.29925 7.4404 7.52256 8.6935C6.74588 9.9466 6.33729 11.3929 6.34348 12.8672V15.5312C5.83463 16.0881 5.48245 16.77 5.32279 17.5073C4.96258 19.295 6.02582 20.7169 6.26871 21.0132C5.77793 21.658 5.4989 22.439 5.46998 23.2488C5.45855 23.6194 5.52076 23.9885 5.65298 24.3348C5.78521 24.6812 5.98484 24.9978 6.2403 25.2665C6.41083 25.4396 6.61409 25.577 6.83825 25.6707C7.06241 25.7645 7.30299 25.8127 7.54596 25.8125C7.58057 25.8125 7.61539 25.8116 7.65042 25.8097C8.83386 25.7466 9.61005 24.6364 9.90754 23.5596C10.9404 24.8736 12.3894 25.8125 13.9997 25.8125C15.6101 25.8125 17.059 24.8736 18.0919 23.5596C18.3894 24.6364 19.1656 25.7465 20.349 25.8097C20.3841 25.8116 20.4189 25.8125 20.4535 25.8125C20.6965 25.8126 20.937 25.7644 21.1612 25.6707C21.3854 25.577 21.5886 25.4395 21.7592 25.2665C22.0146 24.9978 22.2142 24.6812 22.3465 24.3348C22.4787 23.9885 22.5409 23.6193 22.5295 23.2488C22.5006 22.439 22.2215 21.658 21.7307 21.0132ZM21.817 17.6718C22.0659 18.8877 21.4361 19.9323 21.1554 20.3239C20.94 20.0931 20.715 19.8713 20.4913 19.6516C20.0633 19.2536 19.6677 18.8222 19.3083 18.3613C18.4269 17.1547 18.0335 15.6598 18.2067 14.1756C18.2545 14.1991 18.2993 14.2229 18.348 14.2463C20.3845 15.2221 21.5517 16.3746 21.817 17.6718ZM13.9997 3.0625C14.6307 3.06338 15.236 3.31185 15.6857 3.75448C16.1353 4.1971 16.3932 4.79851 16.404 5.42935C14.8451 4.89866 13.1544 4.89855 11.5955 5.42904C11.6063 4.79826 11.8643 4.19693 12.3139 3.75438C12.7635 3.31182 13.3689 3.06338 13.9997 3.0625ZM7.21848 12.8672C7.21848 9.02899 10.2603 5.90625 14.0006 5.90625C17.7392 5.90625 20.781 9.02899 20.781 12.8672V14.7095C20.1445 14.2173 19.4554 13.7973 18.7261 13.4572C14.5304 11.4466 14.4381 9.00742 14.4372 8.97238V8.96811C14.4372 8.94644 14.4356 8.9248 14.4323 8.90338C14.4159 8.79454 14.359 8.69589 14.2731 8.62711C14.1872 8.55832 14.0784 8.52447 13.9686 8.53228C13.8588 8.5401 13.756 8.58902 13.6807 8.66929C13.6054 8.74955 13.5631 8.85526 13.5622 8.96533V8.96811C13.5612 9.01383 13.4637 11.4491 9.27332 13.4572C8.54411 13.7973 7.85493 14.2173 7.21848 14.7095V12.8672ZM15.7429 12.6031C15.7286 12.9697 15.5972 13.322 15.368 13.6084C15.2045 13.8149 14.9964 13.9817 14.7593 14.0963C14.5222 14.2109 14.2622 14.2704 13.9989 14.2702C13.7355 14.2701 13.4756 14.2104 13.2386 14.0956C13.0016 13.9807 12.7937 13.8138 12.6304 13.6072C12.4018 13.321 12.2708 12.9691 12.2566 12.6031C12.9749 12.0211 13.5679 11.2995 13.9997 10.4821C14.4316 11.2995 15.0246 12.0211 15.7429 12.6031ZM6.18241 17.6718C6.44773 16.3746 7.61496 15.2221 9.65143 14.2463C9.70019 14.2229 9.74498 14.1991 9.79276 14.1756C9.96593 15.6598 9.57253 17.1547 8.6912 18.3613C8.33175 18.8222 7.93615 19.2536 7.50815 19.6516C7.28445 19.8712 7.05946 20.093 6.84416 20.3238C6.56286 19.9314 5.93364 18.8872 6.18241 17.6718ZM9.1727 22.6287C9.16971 23.5139 8.5423 24.8858 7.60385 24.936C7.46493 24.9445 7.32582 24.9227 7.19621 24.872C7.0666 24.8212 6.94961 24.7429 6.8534 24.6423C6.51133 24.2725 6.32853 23.783 6.34455 23.2796C6.39005 21.9754 7.19242 21.188 8.12125 20.276C8.20348 20.1953 8.28629 20.1133 8.36897 20.0311C8.497 20.8914 8.77815 21.7219 9.1991 22.4831C9.182 22.5297 9.17307 22.579 9.1727 22.6287ZM13.9997 24.9375C11.4078 24.9375 9.18723 21.8103 9.18723 19.25C9.18709 19.2186 9.18356 19.1872 9.17671 19.1566C9.25125 19.0658 9.32595 18.9751 9.39615 18.8796C10.4779 17.4079 10.9456 15.386 10.6053 13.7461C10.9173 13.5674 11.2021 13.3867 11.4653 13.2053C11.524 13.4229 11.6112 13.6318 11.7246 13.8266L11.3038 14.2474C11.2632 14.288 11.231 14.3362 11.209 14.3893C11.187 14.4424 11.1757 14.4993 11.1757 14.5567C11.1757 14.6142 11.187 14.671 11.209 14.7241C11.231 14.7772 11.2632 14.8254 11.3038 14.866C11.3444 14.9067 11.3926 14.9389 11.4457 14.9609C11.4988 14.9828 11.5557 14.9942 11.6131 14.9942C11.6706 14.9942 11.7275 14.9828 11.7805 14.9609C11.8336 14.9389 11.8818 14.9067 11.9225 14.866L12.2861 14.5024C12.6477 14.8171 13.0894 15.0256 13.5622 15.1047V15.5456C13.5622 15.6616 13.6083 15.7729 13.6904 15.8549C13.7724 15.937 13.8837 15.9831 13.9997 15.9831C14.1158 15.9831 14.227 15.937 14.3091 15.8549C14.3911 15.7729 14.4372 15.6616 14.4372 15.5456V15.1047C14.9101 15.0256 15.3518 14.8172 15.7134 14.5025L16.077 14.866C16.1591 14.9478 16.2703 14.9937 16.3862 14.9936C16.502 14.9935 16.6131 14.9474 16.6951 14.8654C16.777 14.7835 16.8231 14.6724 16.8232 14.5565C16.8233 14.4407 16.7774 14.3295 16.6957 14.2474L16.2748 13.8265C16.3882 13.6317 16.4753 13.4229 16.5341 13.2053C16.7973 13.3867 17.0822 13.5674 17.3942 13.7461C17.0539 15.386 17.5215 17.4079 18.6033 18.8796C18.6735 18.9751 18.7482 19.0658 18.8227 19.1566C18.8159 19.1872 18.8124 19.2186 18.8122 19.25C18.8122 21.8103 16.5916 24.9375 13.9997 24.9375ZM21.1461 24.6423C21.0498 24.7428 20.9328 24.8211 20.8032 24.8719C20.6736 24.9226 20.5345 24.9445 20.3956 24.936C19.4572 24.8858 18.8297 23.5139 18.8268 22.6287C18.8264 22.579 18.8175 22.5297 18.8004 22.4831C19.2213 21.7219 19.5025 20.8914 19.6305 20.0311C19.7132 20.1133 19.796 20.1953 19.8782 20.276C20.807 21.188 21.6094 21.9754 21.6549 23.2796C21.6709 23.783 21.4881 24.2725 21.1461 24.6423Z" fill="#C7A35D"/>
<path d="M14.987 21.219C14.6327 21.2314 14.2908 21.3518 14.0069 21.564C13.7276 21.3372 13.3779 21.2151 13.0182 21.219C12.7665 21.2348 12.5204 21.3002 12.294 21.4115C12.0676 21.5227 11.8655 21.6775 11.6991 21.8671C11.6475 21.9273 11.6132 22.0003 11.5999 22.0785C11.5867 22.1566 11.5949 22.2369 11.6237 22.3108C11.8265 22.7688 12.1584 23.1577 12.5788 23.43C12.9993 23.7022 13.49 23.846 13.9908 23.8437H14.0092C14.5101 23.846 15.0008 23.7022 15.4212 23.43C15.8416 23.1577 16.1736 22.7688 16.3764 22.3108C16.4059 22.2349 16.4137 22.1524 16.3989 22.0723C16.3841 21.9923 16.3473 21.918 16.2926 21.8577C16.136 21.6611 15.9375 21.5018 15.7117 21.3913C15.4859 21.2808 15.2383 21.222 14.987 21.219ZM14 22.9685C13.7242 22.97 13.452 22.9054 13.2062 22.7802C12.9605 22.6549 12.7483 22.4727 12.5873 22.2486C12.7186 22.1551 12.8741 22.1013 13.0351 22.0937H13.0391C13.1641 22.1045 13.2854 22.1415 13.3951 22.2022C13.5048 22.2628 13.6006 22.3459 13.6762 22.446C13.717 22.4925 13.7676 22.5293 13.8243 22.5539C13.881 22.5784 13.9425 22.5901 14.0043 22.5881C14.066 22.5874 14.1269 22.5737 14.1831 22.5481C14.2392 22.5224 14.2894 22.4852 14.3303 22.439C14.5049 22.2453 14.7446 22.1224 15.0038 22.0937C15.1539 22.0987 15.2988 22.1502 15.4185 22.2409C15.258 22.4674 15.0453 22.6517 14.7983 22.7784C14.5514 22.9051 14.2775 22.9703 14 22.9685Z" fill="#C7A35D"/>
<path d="M13.0249 17.9978C13.0619 17.9536 13.0898 17.9025 13.1071 17.8475C13.1243 17.7924 13.1305 17.7346 13.1252 17.6771C13.12 17.6197 13.1035 17.5639 13.0766 17.5129C13.0497 17.4619 13.013 17.4167 12.9686 17.3799C12.9242 17.3431 12.873 17.3155 12.8179 17.2986C12.7627 17.2817 12.7048 17.2758 12.6474 17.2814C12.59 17.287 12.5343 17.3038 12.4834 17.331C12.4326 17.3582 12.3876 17.3951 12.3511 17.4398C12.2886 17.5235 12.2074 17.5915 12.114 17.6384C12.0206 17.6852 11.9175 17.7096 11.813 17.7096C11.7085 17.7096 11.6054 17.6852 11.512 17.6384C11.4186 17.5915 11.3374 17.5235 11.2749 17.4398C11.2383 17.3954 11.1933 17.3587 11.1425 17.3317C11.0917 17.3047 11.0361 17.2881 10.9788 17.2826C10.9215 17.2772 10.8638 17.2831 10.8088 17.3C10.7538 17.3169 10.7027 17.3445 10.6584 17.3812C10.6141 17.4179 10.5775 17.4629 10.5506 17.5138C10.5238 17.5647 10.5072 17.6203 10.5019 17.6776C10.4966 17.7349 10.5026 17.7926 10.5196 17.8476C10.5366 17.9025 10.5643 17.9535 10.6011 17.9978C10.744 18.1832 10.9276 18.3334 11.1377 18.4367C11.3478 18.54 11.5789 18.5938 11.813 18.5938C12.0471 18.5938 12.2781 18.54 12.4882 18.4367C12.6984 18.3334 12.8819 18.1832 13.0249 17.9978Z" fill="#C7A35D"/>
<path d="M16.7261 17.4398C16.6636 17.5235 16.5824 17.5915 16.489 17.6383C16.3956 17.6852 16.2925 17.7096 16.188 17.7096C16.0835 17.7096 15.9804 17.6852 15.887 17.6383C15.7936 17.5915 15.7124 17.5235 15.6499 17.4398C15.6133 17.3954 15.5683 17.3587 15.5175 17.3317C15.4667 17.3047 15.4111 17.288 15.3538 17.2826C15.2965 17.2772 15.2388 17.2831 15.1838 17.3C15.1288 17.3169 15.0777 17.3445 15.0334 17.3812C14.9891 17.4179 14.9525 17.4629 14.9256 17.5138C14.8988 17.5646 14.8822 17.6203 14.8769 17.6776C14.8716 17.7348 14.8776 17.7926 14.8946 17.8475C14.9116 17.9025 14.9393 17.9535 14.9761 17.9977C15.119 18.1832 15.3026 18.3334 15.5127 18.4367C15.7228 18.54 15.9539 18.5938 16.188 18.5938C16.4221 18.5938 16.6531 18.54 16.8632 18.4367C17.0734 18.3334 17.2569 18.1832 17.3999 17.9977C17.4367 17.9535 17.4643 17.9025 17.4814 17.8475C17.4984 17.7926 17.5044 17.7348 17.4991 17.6776C17.4938 17.6203 17.4772 17.5646 17.4504 17.5138C17.4235 17.4629 17.3869 17.4179 17.3426 17.3812C17.2983 17.3445 17.2472 17.3169 17.1922 17.3C17.1372 17.2831 17.0794 17.2772 17.0222 17.2826C16.9649 17.288 16.9093 17.3047 16.8585 17.3317C16.8077 17.3587 16.7627 17.3954 16.7261 17.4398Z" fill="#C7A35D"/>
<path d="M9.3751 9.87473C9.47037 9.9409 9.58801 9.96658 9.70219 9.94611C9.81637 9.92565 9.91777 9.86072 9.98413 9.76557C10.9662 8.35565 12.4299 7.54688 14 7.54688C15.5702 7.54688 17.0339 8.35565 18.0159 9.76556C18.0823 9.86051 18.1837 9.92525 18.2978 9.94556C18.4118 9.96587 18.5293 9.94011 18.6244 9.87392C18.7195 9.80772 18.7845 9.70651 18.805 9.59249C18.8256 9.47846 18.8001 9.36093 18.7341 9.26569C17.5861 7.61716 15.8607 6.67188 14 6.67188C12.1394 6.67188 10.4139 7.61716 9.26593 9.26569C9.23311 9.31284 9.20989 9.366 9.19761 9.42213C9.18533 9.47826 9.18423 9.53626 9.19436 9.59282C9.2045 9.64937 9.22568 9.70338 9.25669 9.75175C9.2877 9.80012 9.32793 9.84191 9.3751 9.87473Z" fill="#C7A35D"/>
<path d="M27.7725 2.45988L26.3293 1.67076L25.5401 0.227509C25.5024 0.158639 25.4469 0.101178 25.3794 0.0611495C25.3118 0.0211212 25.2348 0 25.1563 0C25.0777 0 25.0007 0.0211212 24.9331 0.0611495C24.8656 0.101178 24.8101 0.158639 24.7724 0.227509L23.9833 1.67076L22.54 2.45988C22.4711 2.49757 22.4137 2.5531 22.3736 2.62064C22.3336 2.68818 22.3125 2.76525 22.3125 2.84376C22.3125 2.92227 22.3336 2.99934 22.3736 3.06688C22.4137 3.13442 22.4711 3.18995 22.54 3.22764L23.9832 4.01676L24.7724 5.46001C24.8101 5.52888 24.8656 5.58634 24.9331 5.62637C25.0007 5.6664 25.0777 5.68752 25.1563 5.68752C25.2348 5.68752 25.3118 5.6664 25.3794 5.62637C25.4469 5.58634 25.5024 5.52888 25.5401 5.46001L26.3293 4.01677L27.7725 3.22764C27.8414 3.18994 27.8988 3.13442 27.9389 3.06687C27.9789 2.99933 28 2.92227 28 2.84376C28 2.76525 27.9789 2.68818 27.9389 2.62064C27.8988 2.5531 27.8414 2.49757 27.7725 2.45988ZM25.7969 3.31053C25.7236 3.35075 25.6633 3.41108 25.623 3.48441L25.1563 4.33805L24.6895 3.48441C24.6493 3.41108 24.5889 3.35075 24.5156 3.31053L23.662 2.84376L24.5156 2.37699C24.5889 2.33677 24.6493 2.27644 24.6895 2.2031L25.1563 1.34947L25.623 2.2031C25.6632 2.27644 25.7236 2.33677 25.7969 2.37699L26.6505 2.84376L25.7969 3.31053Z" fill="#C7A35D"/>
<path d="M0.227509 3.22764L1.67076 4.01676L2.45988 5.46001C2.49757 5.52888 2.5531 5.58634 2.62064 5.62637C2.68818 5.6664 2.76525 5.68752 2.84376 5.68752C2.92227 5.68752 2.99934 5.6664 3.06688 5.62637C3.13442 5.58634 3.18995 5.52888 3.22764 5.46001L4.01676 4.01676L5.46001 3.22764C5.52888 3.18994 5.58634 3.13442 5.62637 3.06687C5.6664 2.99933 5.68752 2.92227 5.68752 2.84376C5.68752 2.76525 5.6664 2.68818 5.62637 2.62064C5.58634 2.5531 5.52888 2.49757 5.46001 2.45988L4.01676 1.67076L3.22764 0.227509C3.18994 0.158639 3.13442 0.101178 3.06687 0.0611495C2.99933 0.0211212 2.92227 0 2.84376 0C2.76525 0 2.68818 0.0211212 2.62064 0.0611495C2.5531 0.101178 2.49757 0.158639 2.45988 0.227509L1.67076 1.67076L0.227509 2.45988C0.158639 2.49757 0.101178 2.5531 0.0611495 2.62064C0.0211212 2.68818 0 2.76525 0 2.84376C0 2.92227 0.0211212 2.99934 0.0611495 3.06688C0.101178 3.13442 0.158639 3.18994 0.227509 3.22764ZM2.20309 2.37699C2.27643 2.33677 2.33676 2.27644 2.37698 2.2031L2.84376 1.34947L3.31053 2.2031C3.35075 2.27644 3.41108 2.33677 3.48441 2.37699L4.33805 2.84376L3.48441 3.31053C3.41108 3.35075 3.35075 3.41108 3.31053 3.48441L2.84376 4.33805L2.37699 3.48441C2.33677 3.41108 2.27644 3.35075 2.2031 3.31053L1.34947 2.84376L2.20309 2.37699Z" fill="#C7A35D"/>
<path d="M27.7725 24.7724L26.3293 23.9833L25.5401 22.54C25.5024 22.4711 25.4469 22.4137 25.3794 22.3736C25.3118 22.3336 25.2348 22.3125 25.1563 22.3125C25.0777 22.3125 25.0007 22.3336 24.9331 22.3736C24.8656 22.4137 24.8101 22.4711 24.7724 22.54L23.9833 23.9832L22.54 24.7724C22.4711 24.8101 22.4137 24.8656 22.3736 24.9331C22.3336 25.0007 22.3125 25.0777 22.3125 25.1563C22.3125 25.2348 22.3336 25.3118 22.3736 25.3794C22.4137 25.4469 22.4711 25.5024 22.54 25.5401L23.9832 26.3293L24.7724 27.7725C24.8101 27.8414 24.8656 27.8988 24.9331 27.9389C25.0007 27.9789 25.0777 28 25.1563 28C25.2348 28 25.3118 27.9789 25.3794 27.9389C25.4469 27.8988 25.5024 27.8414 25.5401 27.7725L26.3293 26.3293L27.7725 25.5401C27.8414 25.5024 27.8988 25.4469 27.9389 25.3794C27.9789 25.3118 28 25.2348 28 25.1563C28 25.0777 27.9789 25.0007 27.9389 24.9331C27.8988 24.8656 27.8414 24.8101 27.7725 24.7724ZM25.7969 25.623C25.7236 25.6632 25.6633 25.7236 25.623 25.7969L25.1563 26.6505L24.6895 25.7969C24.6493 25.7236 24.5889 25.6632 24.5156 25.623L23.662 25.1563L24.5156 24.6895C24.5889 24.6493 24.6493 24.5889 24.6895 24.5156L25.1563 23.662L25.623 24.5156C25.6632 24.5889 25.7236 24.6493 25.7969 24.6895L26.6506 25.1563L25.7969 25.623Z" fill="#C7A35D"/>
<path d="M5.46001 24.7724L4.01676 23.9833L3.22764 22.54C3.18994 22.4711 3.13442 22.4137 3.06687 22.3736C2.99933 22.3336 2.92227 22.3125 2.84376 22.3125C2.76525 22.3125 2.68818 22.3336 2.62064 22.3736C2.5531 22.4137 2.49757 22.4711 2.45988 22.54L1.67076 23.9833L0.227509 24.7724C0.158639 24.8101 0.101178 24.8656 0.0611495 24.9331C0.0211212 25.0007 0 25.0777 0 25.1563C0 25.2348 0.0211212 25.3118 0.0611495 25.3794C0.101178 25.4469 0.158639 25.5024 0.227509 25.5401L1.67076 26.3293L2.45988 27.7725C2.49757 27.8414 2.5531 27.8988 2.62064 27.9389C2.68818 27.9789 2.76525 28 2.84376 28C2.92227 28 2.99934 27.9789 3.06688 27.9389C3.13442 27.8988 3.18995 27.8414 3.22764 27.7725L4.01676 26.3293L5.46001 25.5401C5.52888 25.5024 5.58634 25.4469 5.62637 25.3794C5.6664 25.3118 5.68752 25.2348 5.68752 25.1563C5.68752 25.0777 5.6664 25.0007 5.62637 24.9331C5.58634 24.8656 5.52888 24.8101 5.46001 24.7724ZM3.48442 25.623C3.41109 25.6632 3.35076 25.7236 3.31053 25.7969L2.84376 26.6505L2.37699 25.7969C2.33677 25.7236 2.27644 25.6632 2.2031 25.623L1.34947 25.1563L2.2031 24.6895C2.27644 24.6493 2.33677 24.5889 2.37699 24.5156L2.84376 23.662L3.31053 24.5156C3.35075 24.5889 3.41108 24.6493 3.48441 24.6895L4.33805 25.1563L3.48442 25.623Z" fill="#C7A35D"/>
</svg>
