<svg width="24" height="24" viewBox="0 0 24 24" fill="none" xmlns="http://www.w3.org/2000/svg">
<path fill-rule="evenodd" clip-rule="evenodd" d="M17.9931 13.8053H17.3931C17.0631 13.8053 16.7931 14.0753 16.7931 14.4052V16.2052C16.7931 16.5111 17.0271 16.7631 17.3211 16.7991C17.3031 16.8951 17.2851 16.9971 17.2551 17.0991C17.2191 17.2371 17.1171 17.4471 17.0931 17.4831C16.6851 17.6871 16.3971 17.9091 16.1752 18.2031C15.9532 18.497 15.8032 18.881 15.7132 19.445C15.6172 20.057 15.5932 20.9269 15.5872 22.2228C15.5872 22.6908 15.7672 23.1468 16.0972 23.4768C16.4271 23.8128 16.8831 23.9987 17.3511 23.9987H22.2168C22.6848 23.9987 23.1408 23.8128 23.4708 23.4768C23.8008 23.1408 23.9867 22.6908 23.9807 22.2168C23.9807 20.9209 23.9507 20.051 23.8548 19.439C23.7648 18.875 23.6148 18.491 23.3928 18.1971C23.1708 17.9031 22.8828 17.6871 22.4748 17.4771C22.4568 17.4411 22.3548 17.2311 22.3128 17.0931C22.2828 16.9911 22.2648 16.8891 22.2468 16.7931C22.5468 16.7571 22.7748 16.5051 22.7748 16.1992V14.3992C22.7748 14.0693 22.5048 13.7993 22.1748 13.7993H21.5749V11.9994C21.5749 11.0034 20.7709 10.1995 19.775 10.1995C18.779 10.1995 17.9751 11.0034 17.9751 11.9994V13.7993L17.9931 13.8053ZM7.23562 1.20594C7.16962 1.20594 7.09763 1.20594 7.03163 1.22994C3.93579 2.12989 1.50592 3.44982 0.689964 5.64571C0.335982 6.59366 0.269986 7.7096 0.587969 9.03553C0.233987 9.6295 0 10.2475 0 10.8054C0 12.0414 0.57597 13.8293 0.629967 13.9853C0.629967 13.9973 0.647966 14.0333 0.647966 14.0393C0.701963 14.1653 1.80591 16.7691 3.59381 18.857C3.96579 19.295 4.36777 19.703 4.79975 20.069C4.77575 21.5389 4.49976 22.4748 3.8638 22.9008C3.58781 23.0868 3.51582 23.4588 3.70181 23.7348C3.8878 24.0107 4.25978 24.0827 4.53576 23.8968C5.27972 23.3988 5.7957 22.4328 5.95169 20.8909C6.71365 21.3289 7.53561 21.5989 8.39956 21.5989C9.26352 21.5989 10.0855 21.3289 10.8474 20.8909C11.0034 22.4328 11.5194 23.3988 12.2634 23.8968C12.5393 24.0827 12.9113 24.0107 13.0973 23.7348C13.2833 23.4588 13.2113 23.0868 12.9353 22.9008C12.2994 22.4748 12.0234 21.5389 11.9994 20.069C12.4254 19.703 12.8273 19.289 13.2053 18.857C14.9992 16.7571 16.1092 14.1413 16.1512 14.0333L16.1632 14.0093C16.7991 12.3114 16.9011 9.73149 16.2472 7.82359C16.4331 7.37962 16.7991 6.38967 16.7991 5.39972C16.7991 4.51776 16.1812 3.41982 15.1492 2.45387C13.7213 1.10994 11.5374 0 9.5995 0C8.51355 0 7.7336 0.503974 7.24162 1.19994L7.23562 1.20594ZM21.0529 16.8051H18.533C18.491 17.0871 18.425 17.4231 18.323 17.7051C18.173 18.1011 17.9391 18.401 17.6631 18.539C17.2071 18.767 17.0031 19.001 16.9071 19.625C16.8171 20.1949 16.8051 21.0109 16.7991 22.2288C16.7991 22.3848 16.8591 22.5288 16.9611 22.6368C17.0691 22.7448 17.2131 22.8048 17.3631 22.8048H22.2288C22.3788 22.8048 22.5228 22.7448 22.6308 22.6368C22.7388 22.5288 22.7988 22.3848 22.7928 22.2348C22.7928 21.0169 22.7748 20.2009 22.6848 19.631C22.5888 19.007 22.3848 18.773 21.9289 18.545C21.6529 18.407 21.4189 18.1071 21.2689 17.7111C21.1609 17.4231 21.0949 17.0871 21.0589 16.8111L21.0529 16.8051ZM20.2309 18.1911C20.1169 18.0711 19.961 18.0051 19.799 18.0051C19.637 18.0051 19.475 18.0711 19.367 18.1911C19.367 18.1911 18.737 18.857 18.353 19.457C18.1251 19.811 17.9991 20.1649 17.9991 20.4049C17.9991 21.4009 18.803 22.2048 19.799 22.2048C20.7949 22.2048 21.5989 21.4009 21.5989 20.4049C21.5989 20.1649 21.4729 19.811 21.2449 19.457C20.8669 18.857 20.2309 18.1911 20.2309 18.1911ZM19.799 19.511C19.895 19.625 19.997 19.757 20.087 19.889C20.2189 20.075 20.3749 20.3869 20.3989 20.4229C20.3869 20.7469 20.1229 21.0049 19.799 21.0049C19.475 21.0049 19.211 20.7469 19.199 20.4229C19.217 20.3809 19.373 20.075 19.511 19.889C19.607 19.757 19.703 19.631 19.799 19.511ZM9.03553 7.22362C5.7837 8.37556 2.89785 11.7594 1.8539 13.8173C2.15989 14.4952 3.10784 16.4511 4.49976 18.0831C5.56171 19.331 6.88164 20.4049 8.39356 20.4049C9.90548 20.4049 11.2254 19.325 12.2874 18.0831C13.7033 16.4271 14.6572 14.4292 14.9512 13.7873C14.6572 13.0553 14.1173 12.3054 13.4573 11.5494C12.2994 10.2235 10.7874 8.89754 9.4975 7.6676C9.34151 7.51761 9.18552 7.36762 9.03553 7.22362ZM6.16768 17.8311C6.16768 17.8311 6.89964 18.605 8.39356 18.605C9.88748 18.605 10.6194 17.8311 10.6194 17.8311C10.8534 17.5971 10.8534 17.2191 10.6194 16.9791C10.3855 16.7451 10.0075 16.7451 9.76749 16.9791C9.76749 16.9791 9.30551 17.4051 8.39356 17.4051C7.48161 17.4051 7.01963 16.9791 7.01963 16.9791C6.78565 16.7451 6.40766 16.7451 6.16768 16.9791C5.93369 17.2131 5.93369 17.5911 6.16768 17.8311ZM17.9931 15.0052H21.5929V15.6052H17.9931V15.0052ZM8.39356 15.6052C8.69355 15.6052 8.95153 15.3832 8.98753 15.0832C9.02953 14.7532 8.79554 14.4532 8.46556 14.4112L7.99758 14.3093C7.93758 14.2913 7.85959 14.2553 7.79359 14.2253C7.84759 13.2233 8.32756 12.2694 8.32756 12.2694C8.47756 11.9754 8.35756 11.6094 8.05758 11.4654C7.76359 11.3154 7.39761 11.4354 7.25362 11.7354C7.25362 11.7354 6.58766 13.0733 6.58766 14.4052C6.58766 14.7352 6.78565 15.0472 7.15163 15.2572C7.5896 15.5032 8.30957 15.6052 8.30957 15.6052H8.38756H8.39356ZM20.3929 13.8053H19.193V12.0054C19.193 11.6754 19.463 11.4054 19.793 11.4054C20.1229 11.4054 20.3929 11.6754 20.3929 12.0054V13.8053ZM6.65365 2.59786C3.65981 3.55781 1.44592 4.94974 1.58992 7.6916C2.39387 6.79165 3.22183 6.13768 3.22183 6.13768C3.47982 5.92769 3.8578 5.96969 4.06179 6.23367C4.27178 6.49166 4.22978 6.86964 3.96579 7.07363C3.96579 7.07363 2.93985 7.89559 2.11789 8.92153C1.63191 9.5275 1.19394 10.1995 1.19394 10.8054C1.19394 11.2494 1.27793 11.7774 1.38593 12.2514C2.75386 10.1635 5.29172 7.49361 8.12957 6.29367C7.80559 5.93369 7.51761 5.59171 7.28362 5.26173C6.88164 4.69176 6.64165 4.15178 6.59366 3.66581C6.55766 3.32383 6.57566 2.96385 6.64765 2.59786H6.65365ZM7.78159 3.23983C7.78159 3.34183 7.78159 3.44382 7.79359 3.54581C7.82359 3.8578 8.00958 4.19978 8.26757 4.57176C8.74754 5.25573 9.4915 6.00569 10.3255 6.80364C11.6394 8.05758 13.1813 9.40751 14.3572 10.7634C14.7472 11.2134 15.1012 11.6634 15.3952 12.1134C15.5872 10.7694 15.4972 9.22152 15.0292 8.02758C14.8432 7.54161 14.3632 6.97164 13.8113 6.39567C12.3954 4.93174 10.4335 3.49182 10.4335 3.49182C10.1635 3.29383 10.1095 2.92185 10.3015 2.65186C10.4995 2.38188 10.8714 2.32788 11.1414 2.51987C11.1414 2.51987 13.1933 4.02579 14.6752 5.55571C14.9572 5.84969 15.2212 6.14968 15.4492 6.43766C15.5272 6.11968 15.5932 5.7597 15.5932 5.40572C15.5932 4.76975 15.0652 4.03179 14.3212 3.33583C13.1033 2.18989 11.2494 1.20594 9.5935 1.20594C8.93353 1.20594 8.47156 1.51792 8.17757 1.9439C8.18957 1.9559 11.2194 4.97974 11.2194 4.97974C11.4534 5.21373 11.4534 5.59171 11.2194 5.8317C10.9854 6.06568 10.6074 6.06568 10.3675 5.8317L7.78159 3.23983Z" fill="#C7A35D"/>
</svg>
