<svg width="23" height="23" viewBox="0 0 23 23" fill="none" xmlns="http://www.w3.org/2000/svg">
<path d="M18.4564 7.29451C18.3998 7.34982 18.3549 7.41594 18.3243 7.48894C18.2938 7.56195 18.2782 7.64034 18.2786 7.71948L18.2755 11.4568C18.2735 11.6714 18.1881 11.8767 18.0374 12.0294L15.6202 14.4436C15.5635 14.4987 15.4875 14.5293 15.4085 14.5288C15.3294 14.5284 15.2537 14.497 15.1976 14.4413C15.1415 14.3856 15.1096 14.3101 15.1086 14.2311C15.1075 14.152 15.1376 14.0758 15.1922 14.0187L17.6125 11.6045C17.6321 11.5849 17.6477 11.5617 17.6583 11.5361C17.669 11.5105 17.6744 11.483 17.6744 11.4553C17.6744 11.4276 17.669 11.4001 17.6583 11.3745C17.6477 11.3489 17.6321 11.3257 17.6125 11.3061C17.3788 11.0755 17.0637 10.9462 16.7354 10.9462C16.4071 10.9462 16.092 11.0755 15.8583 11.3061L13.7606 13.4099C13.5497 13.5975 13.3809 13.8278 13.2656 14.0855C13.1502 14.3432 13.0909 14.6225 13.0915 14.9048V17.2135H16.3858C16.3845 16.7582 16.5316 16.3149 16.8047 15.9506L19.1737 12.795C19.3682 12.5359 19.4739 12.2209 19.4751 11.8969L19.4781 7.71947C19.4763 7.60193 19.4401 7.48749 19.3741 7.39021C19.3081 7.29294 19.2151 7.21707 19.1066 7.17192C18.9981 7.12678 18.8787 7.11434 18.7632 7.13611C18.6477 7.15789 18.541 7.21295 18.4564 7.29451Z" fill="#7A1E1E"/>
<path d="M12.323 17.8163H17.0669C17.1469 17.8163 17.2235 17.848 17.2801 17.9046C17.3366 17.9611 17.3683 18.0377 17.3683 18.1177V18.6361C17.3683 18.716 17.3366 18.7927 17.2801 18.8492C17.2235 18.9058 17.1469 18.9375 17.0669 18.9375H12.323C12.243 18.9375 12.1664 18.9058 12.1098 18.8492C12.0533 18.7927 12.0215 18.716 12.0215 18.6361V18.1177C12.0215 18.0378 12.0533 17.9611 12.1098 17.9046C12.1664 17.848 12.243 17.8163 12.323 17.8163Z" fill="#7A1E1E"/>
<path d="M6.11419 17.2135H9.40846V14.9078C9.40975 14.6274 9.35189 14.3499 9.23868 14.0933C9.12546 13.8368 8.95943 13.607 8.75142 13.4189L6.64163 11.3061C6.40796 11.0755 6.09287 10.9462 5.76456 10.9462C5.43626 10.9462 5.12116 11.0755 4.8875 11.3061C4.86786 11.3257 4.85228 11.3489 4.84165 11.3745C4.83102 11.4001 4.82554 11.4276 4.82554 11.4553C4.82554 11.483 4.83102 11.5105 4.84165 11.5361C4.85228 11.5617 4.86786 11.5849 4.8875 11.6045L7.30772 14.0187C7.33562 14.0468 7.35772 14.0801 7.37274 14.1167C7.38777 14.1534 7.39543 14.1926 7.39529 14.2322C7.39515 14.2718 7.38721 14.311 7.37193 14.3475C7.35664 14.3841 7.33431 14.4172 7.30621 14.4452C7.27811 14.4731 7.24478 14.4951 7.20814 14.5102C7.1715 14.5252 7.13226 14.5329 7.09266 14.5327C7.05306 14.5326 7.01387 14.5246 6.97734 14.5094C6.9408 14.4941 6.90764 14.4717 6.87973 14.4436L4.46253 12.0294C4.31324 11.8794 4.2279 11.6774 4.22442 11.4658L4.22142 7.71946C4.2219 7.64103 4.20669 7.56329 4.17667 7.49083C4.14665 7.41837 4.10243 7.35265 4.04662 7.29753C3.96235 7.21498 3.85571 7.15896 3.73991 7.13642C3.62411 7.11387 3.50425 7.1258 3.39516 7.17071C3.28607 7.21562 3.19256 7.29155 3.1262 7.38909C3.05985 7.48664 3.02356 7.6015 3.02185 7.71946L3.02485 11.8968C3.02602 12.2209 3.13173 12.5359 3.32625 12.795L5.69525 15.9506C5.96838 16.3149 6.11544 16.7582 6.11419 17.2135Z" fill="#7A1E1E"/>
<path d="M5.43298 17.8163H10.177C10.2569 17.8163 10.3336 17.848 10.3901 17.9046C10.4466 17.9611 10.4784 18.0377 10.4784 18.1177V18.6361C10.4784 18.716 10.4466 18.7927 10.3901 18.8492C10.3336 18.9058 10.2569 18.9375 10.177 18.9375H5.43298C5.35305 18.9375 5.27639 18.9058 5.21987 18.8492C5.16335 18.7927 5.13159 18.716 5.13159 18.6361V18.1177C5.13159 18.0378 5.16334 17.9611 5.21987 17.9046C5.27639 17.848 5.35305 17.8163 5.43298 17.8163Z" fill="#7A1E1E"/>
<path d="M14.1103 10.5526V9.83832C14.1104 9.61082 14.0388 9.38909 13.9057 9.20459C13.7726 9.02009 13.5848 8.88221 13.3688 8.81052C12.5852 8.59354 11.455 7.9787 10.6261 8.31323L9.13116 8.81052C8.91525 8.88221 8.72742 9.02009 8.59433 9.20459C8.46124 9.38909 8.38965 9.61082 8.38974 9.83832V10.5526C8.39023 10.5618 8.38921 10.571 8.38672 10.5798C9.88244 11.5743 10.9437 12.1018 11.25 12.1682C11.5572 12.0973 12.6164 11.5775 14.1133 10.5797C14.1108 10.5709 14.1098 10.5618 14.1103 10.5526Z" fill="#7A1E1E"/>
<path d="M11.25 4.91949C10.8955 4.92257 10.5566 5.06555 10.307 5.31731C10.0574 5.56907 9.91736 5.90922 9.91736 6.26373C9.91736 6.61823 10.0574 6.95839 10.307 7.21015C10.5566 7.46191 10.8955 7.60489 11.25 7.60796C11.6045 7.60489 11.9434 7.46191 12.193 7.21015C12.4426 6.95839 12.5826 6.61823 12.5826 6.26373C12.5826 5.90922 12.4426 5.56907 12.193 5.31731C11.9434 5.06555 11.6045 4.92257 11.25 4.91949Z" fill="#7A1E1E"/>
<path d="M7.7869 10.1457C7.77125 9.90324 7.78951 9.65977 7.84117 9.42234C7.91034 9.14889 8.04702 8.89716 8.23869 8.69022C8.43036 8.48328 8.67089 8.32775 8.93825 8.23786L10.1197 7.84606C9.78414 7.60655 9.5333 7.26664 9.4034 6.87534C9.27351 6.48404 9.27127 6.0616 9.39701 5.66895C9.52276 5.2763 9.76998 4.93374 10.103 4.6907C10.4361 4.44765 10.8377 4.31668 11.25 4.31668C11.6623 4.31668 12.0639 4.44765 12.3969 4.6907C12.73 4.93374 12.9772 5.2763 13.103 5.66895C13.2287 6.0616 13.2265 6.48404 13.0966 6.87534C12.9667 7.26664 12.7158 7.60655 12.3802 7.84606L13.5617 8.23786C13.8965 8.35125 14.1875 8.5665 14.394 8.85347C14.6004 9.14044 14.712 9.48478 14.713 9.83829V10.1457C16.205 9.01245 17.6215 7.48136 17.5793 5.77245C17.587 2.66581 13.7961 0.934047 11.4127 2.89108L11.25 3.02067L11.0872 2.89115C8.70246 0.933499 4.91408 2.66604 4.9206 5.77245C4.87841 7.48137 6.29498 9.01248 7.7869 10.1457Z" fill="#7A1E1E"/>
<path d="M11.25 0C9.02497 0 6.84989 0.659801 4.99984 1.89597C3.14979 3.13213 1.70785 4.88914 0.85636 6.94481C0.00487456 9.00048 -0.217913 11.2625 0.216171 13.4448C0.650254 15.6271 1.72171 17.6316 3.29505 19.205C4.86839 20.7783 6.87295 21.8498 9.05524 22.2838C11.2375 22.7179 13.4995 22.4951 15.5552 21.6436C17.6109 20.7922 19.3679 19.3502 20.604 17.5002C21.8402 15.6501 22.5 13.475 22.5 11.25C22.4966 8.26735 21.3103 5.40782 19.2012 3.29877C17.0922 1.18971 14.2327 0.00336569 11.25 0ZM11.25 21.8592C9.1517 21.8592 7.10051 21.237 5.35584 20.0712C3.61116 18.9055 2.25135 17.2486 1.44836 15.31C0.645375 13.3714 0.435277 11.2382 0.844636 9.18024C1.25399 7.12226 2.26443 5.23187 3.74815 3.74815C5.23188 2.26442 7.12226 1.25399 9.18025 0.844631C11.2382 0.435271 13.3714 0.645369 15.31 1.44836C17.2486 2.25134 18.9055 3.61115 20.0713 5.35583C21.237 7.10051 21.8592 9.15169 21.8592 11.25C21.8561 14.0628 20.7373 16.7594 18.7484 18.7483C16.7594 20.7373 14.0628 21.856 11.25 21.8592Z" fill="#7A1E1E"/>
</svg>
