<svg width="28" height="28" viewBox="0 0 28 28" fill="none" xmlns="http://www.w3.org/2000/svg">
<path fill-rule="evenodd" clip-rule="evenodd" d="M20.9919 16.1062H20.2919C19.907 16.1062 19.592 16.4211 19.592 16.8061V18.906C19.592 19.263 19.865 19.557 20.2079 19.599C20.1869 19.711 20.1659 19.83 20.1309 19.949C20.0889 20.1099 19.97 20.3549 19.942 20.3969C19.466 20.6349 19.13 20.8939 18.871 21.2369C18.612 21.5799 18.437 22.0278 18.332 22.6858C18.22 23.3998 18.192 24.4147 18.185 25.9266C18.185 26.4726 18.395 27.0046 18.78 27.3896C19.165 27.7815 19.697 27.9985 20.2429 27.9985H25.9196C26.4656 27.9985 26.9976 27.7815 27.3826 27.3896C27.7675 26.9976 27.9845 26.4726 27.9775 25.9196C27.9775 24.4077 27.9425 23.3928 27.8305 22.6788C27.7256 22.0208 27.5506 21.5729 27.2916 21.2299C27.0326 20.8869 26.6966 20.6349 26.2206 20.3899C26.1996 20.3479 26.0806 20.1029 26.0316 19.942C25.9966 19.823 25.9756 19.704 25.9546 19.592C26.3046 19.55 26.5706 19.256 26.5706 18.899V16.7991C26.5706 16.4141 26.2556 16.0992 25.8706 16.0992H25.1707V13.9993C25.1707 12.8373 24.2327 11.8994 23.0708 11.8994C21.9089 11.8994 20.9709 12.8373 20.9709 13.9993V16.0992L20.9919 16.1062ZM8.44156 1.40693C8.36456 1.40693 8.28057 1.40693 8.20357 1.43492C4.59176 2.48487 1.75691 4.02479 0.804958 6.58666C0.391979 7.6926 0.314983 8.99453 0.685964 10.5414C0.272985 11.2344 0 11.9554 0 12.6063C0 14.0483 0.671965 16.1342 0.734961 16.3161C0.734961 16.3301 0.75596 16.3721 0.75596 16.3791C0.818957 16.5261 2.10689 19.564 4.19278 21.9998C4.62676 22.5108 5.09573 22.9868 5.59971 23.4138C5.57171 25.1287 5.24972 26.2206 4.50776 26.7176C4.18578 26.9346 4.10179 27.3686 4.31877 27.6905C4.53576 28.0125 4.96974 28.0965 5.29172 27.8795C6.15968 27.2986 6.76165 26.1716 6.94364 24.3727C7.83259 24.8837 8.79154 25.1987 9.79949 25.1987C10.8074 25.1987 11.7664 24.8837 12.6553 24.3727C12.8373 26.1716 13.4393 27.2986 14.3073 27.8795C14.6292 28.0965 15.0632 28.0125 15.2802 27.6905C15.4972 27.3686 15.4132 26.9346 15.0912 26.7176C14.3492 26.2206 14.0273 25.1287 13.9993 23.4138C14.4962 22.9868 14.9652 22.5038 15.4062 21.9998C17.4991 19.55 18.794 16.4981 18.843 16.3721L18.857 16.3441C19.599 14.3632 19.718 11.3534 18.955 9.12752C19.172 8.60955 19.599 7.45461 19.599 6.29967C19.599 5.27072 18.878 3.98979 17.6741 2.86285C16.0082 1.29493 13.4603 0 11.1994 0C9.93248 0 9.02253 0.587969 8.44856 1.39993L8.44156 1.40693ZM24.5617 19.606H21.6219C21.5729 19.935 21.4959 20.3269 21.3769 20.6559C21.2019 21.1179 20.9289 21.4679 20.6069 21.6289C20.075 21.8949 19.837 22.1678 19.725 22.8958C19.62 23.5608 19.606 24.5127 19.599 25.9336C19.599 26.1156 19.669 26.2836 19.788 26.4096C19.914 26.5356 20.0819 26.6056 20.2569 26.6056H25.9336C26.1086 26.6056 26.2766 26.5356 26.4026 26.4096C26.5286 26.2836 26.5986 26.1156 26.5916 25.9406C26.5916 24.5197 26.5706 23.5678 26.4656 22.9028C26.3536 22.1748 26.1156 21.9019 25.5837 21.6359C25.2617 21.4749 24.9887 21.1249 24.8137 20.6629C24.6877 20.3269 24.6107 19.935 24.5687 19.613L24.5617 19.606ZM23.6028 21.2229C23.4698 21.0829 23.2878 21.0059 23.0988 21.0059C22.9098 21.0059 22.7208 21.0829 22.5948 21.2229C22.5948 21.2229 21.8599 21.9998 21.4119 22.6998C21.1459 23.1128 20.9989 23.5258 20.9989 23.8058C20.9989 24.9677 21.9369 25.9056 23.0988 25.9056C24.2607 25.9056 25.1987 24.9677 25.1987 23.8058C25.1987 23.5258 25.0517 23.1128 24.7857 22.6998C24.3447 21.9998 23.6028 21.2229 23.6028 21.2229ZM23.0988 22.7628C23.2108 22.8958 23.3298 23.0498 23.4348 23.2038C23.5888 23.4208 23.7708 23.7848 23.7988 23.8268C23.7848 24.2047 23.4768 24.5057 23.0988 24.5057C22.7208 24.5057 22.4128 24.2047 22.3988 23.8268C22.4198 23.7778 22.6018 23.4208 22.7628 23.2038C22.8748 23.0498 22.9868 22.9028 23.0988 22.7628ZM10.5414 8.42756C6.74765 9.77149 3.38082 13.7193 2.16289 16.1202C2.51987 16.9111 3.62581 19.193 5.24973 21.0969C6.48866 22.5528 8.02858 23.8058 9.79249 23.8058C11.5564 23.8058 13.0963 22.5458 14.3352 21.0969C15.9872 19.165 17.1001 16.8341 17.4431 16.0852C17.1001 15.2312 16.4701 14.3562 15.7002 13.4743C14.3492 11.9274 12.5853 10.3805 11.0804 8.94553C10.8984 8.77054 10.7164 8.59555 10.5414 8.42756ZM7.19562 20.8029C7.19562 20.8029 8.04958 21.7059 9.79249 21.7059C11.5354 21.7059 12.3894 20.8029 12.3894 20.8029C12.6623 20.5299 12.6623 20.0889 12.3894 19.809C12.1164 19.536 11.6754 19.536 11.3954 19.809C11.3954 19.809 10.8564 20.3059 9.79249 20.3059C8.72854 20.3059 8.18957 19.809 8.18957 19.809C7.91659 19.536 7.47561 19.536 7.19562 19.809C6.92264 20.082 6.92264 20.5229 7.19562 20.8029ZM20.9919 17.5061H25.1917V18.206H20.9919V17.5061ZM9.79249 18.206C10.1425 18.206 10.4435 17.9471 10.4855 17.5971C10.5344 17.2121 10.2615 16.8621 9.87648 16.8131L9.33051 16.6941C9.26052 16.6731 9.16952 16.6311 9.09252 16.5961C9.15552 15.4272 9.71549 14.3143 9.71549 14.3143C9.89048 13.9713 9.75049 13.5443 9.40051 13.3763C9.05753 13.2013 8.63055 13.3413 8.46256 13.6913C8.46256 13.6913 7.6856 15.2522 7.6856 16.8061C7.6856 17.1911 7.91659 17.5551 8.34356 17.8001C8.85454 18.0871 9.69449 18.206 9.69449 18.206H9.78549H9.79249ZM23.7918 16.1062H22.3918V14.0063C22.3918 13.6213 22.7068 13.3063 23.0918 13.3063C23.4768 13.3063 23.7918 13.6213 23.7918 14.0063V16.1062ZM7.76259 3.03084C4.26978 4.15078 1.68691 5.7747 1.8549 8.97353C2.79285 7.92359 3.7588 7.16063 3.7588 7.16063C4.05979 6.91564 4.50076 6.96464 4.73875 7.27262C4.98374 7.5736 4.93474 8.01458 4.62676 8.25257C4.62676 8.25257 3.42982 9.21152 2.47087 10.4085C1.9039 11.1154 1.39293 11.8994 1.39293 12.6063C1.39293 13.1243 1.49092 13.7403 1.61692 14.2933C3.21283 11.8574 6.17368 8.74254 9.4845 7.34262C9.10652 6.92264 8.77054 6.52366 8.49755 6.13868C8.02858 5.47371 7.74859 4.84375 7.6926 4.27678C7.6506 3.8778 7.6716 3.45782 7.75559 3.03084H7.76259ZM9.07852 3.7798C9.07852 3.8988 9.07852 4.01779 9.09252 4.13678C9.12752 4.50076 9.34451 4.89974 9.6455 5.33372C10.2055 6.13168 11.0734 7.00663 12.0464 7.93758C13.5793 9.40051 15.3782 10.9754 16.7501 12.5573C17.2051 13.0823 17.6181 13.6073 17.9611 14.1323C18.185 12.5643 18.0801 10.7584 17.5341 9.36551C17.3171 8.79854 16.7571 8.13357 16.1132 7.46161C14.4612 5.7537 12.1724 4.07379 12.1724 4.07379C11.8574 3.8428 11.7944 3.40882 12.0184 3.09384C12.2494 2.77885 12.6833 2.71586 12.9983 2.93985C12.9983 2.93985 15.3922 4.69675 17.1211 6.48166C17.4501 6.82464 17.7581 7.17462 18.0241 7.51061C18.1151 7.13963 18.192 6.71965 18.192 6.30667C18.192 5.56471 17.5761 4.70375 16.7081 3.8918C15.2872 2.55487 13.1243 1.40693 11.1924 1.40693C10.4225 1.40693 9.88348 1.77091 9.5405 2.26788C9.5545 2.28188 13.0893 5.8097 13.0893 5.8097C13.3623 6.08268 13.3623 6.52366 13.0893 6.80364C12.8163 7.07663 12.3754 7.07663 12.0954 6.80364L9.07852 3.7798Z" fill="#C7A35D"/>
</svg>
