<svg width="29" height="25" viewBox="0 0 29 25" fill="none" xmlns="http://www.w3.org/2000/svg">
<path d="M19.8679 19.7236C19.2133 20.4527 18.4271 21.0389 17.561 21.4534H20.293" stroke="#C7A35D" stroke-miterlimit="10" stroke-linecap="round" stroke-linejoin="round"/>
<path d="M22.2638 21.4533H22.5929C23.3704 21.4533 24.0007 20.823 24.0007 20.0456V16.8428" stroke="#C7A35D" stroke-miterlimit="10" stroke-linecap="round" stroke-linejoin="round"/>
<path d="M7.91423 10.5366H6.98118C5.53688 10.5366 4.36603 11.7074 4.36603 13.1518C4.36603 13.6611 4.51215 14.136 4.76397 14.538" stroke="#C7A35D" stroke-miterlimit="10" stroke-linejoin="round"/>
<path d="M23.5723 15.2297C24.197 14.7518 24.6003 13.999 24.6003 13.1518C24.6003 11.7075 23.4294 10.5366 21.9851 10.5366H21.1525" stroke="#C7A35D" stroke-miterlimit="10" stroke-linejoin="round"/>
<path d="M21.4938 14.2864L21.0966 9.92236C20.9076 7.84536 19.2183 6.19182 17.1339 6.12475C17.0884 6.12329 17.0427 6.12256 16.9969 6.12256H16.5153C15.5469 6.12256 14.6345 6.57653 14.0504 7.34899C13.4663 8.12145 12.5538 8.57542 11.5854 8.57542H10.7912C9.18486 8.57542 7.84631 9.80613 7.71173 11.4069L7.43418 14.7083C7.42951 14.7595 7.42568 14.8106 7.42224 14.8618" stroke="#C7A35D" stroke-miterlimit="10" stroke-linejoin="round"/>
<path d="M10.3367 20.8272C11.4946 21.6471 12.8742 22.1234 14.3133 22.1551C14.3733 22.1564 14.4332 22.157 14.4931 22.1569C16.5465 22.1543 18.4961 21.2515 19.8679 19.7235C20.4618 19.062 20.909 18.2952 21.1941 17.4727" stroke="#C7A35D" stroke-miterlimit="10" stroke-linejoin="round"/>
<path d="M13.11 12.4121C13.11 13.3898 12.3174 14.1823 11.3398 14.1823C10.3622 14.1823 9.56958 13.3898 9.56958 12.4121" stroke="#C7A35D" stroke-miterlimit="10" stroke-linecap="round" stroke-linejoin="round"/>
<path d="M19.3968 12.4121C19.3968 13.3898 18.6042 14.1823 17.6266 14.1823C16.649 14.1823 15.8564 13.3898 15.8564 12.4121" stroke="#C7A35D" stroke-miterlimit="10" stroke-linecap="round" stroke-linejoin="round"/>
<path d="M16.7106 18.0688C15.4666 19.3128 13.4497 19.3128 12.2057 18.0688" stroke="#C7A35D" stroke-miterlimit="10" stroke-linecap="round" stroke-linejoin="round"/>
<path d="M16.1011 10.8213H18.5314" stroke="#C7A35D" stroke-miterlimit="10" stroke-linecap="round" stroke-linejoin="round"/>
<path d="M10.3954 10.8213H12.8257" stroke="#C7A35D" stroke-miterlimit="10" stroke-linecap="round" stroke-linejoin="round"/>
<path d="M14.4634 14.2471V14.7705C14.4634 14.8419 14.4383 14.9111 14.3926 14.9659L13.6757 15.8262C13.543 15.9855 13.6043 16.228 13.7968 16.305L14.4634 16.5716" stroke="#C7A35D" stroke-miterlimit="10" stroke-linecap="round" stroke-linejoin="round"/>
<path d="M9.1089 16.0101C8.19825 15.0685 6.92187 14.4829 5.50855 14.4829C2.74243 14.4829 0.5 16.7253 0.5 19.4915C0.5 22.2576 2.74238 24.5 5.50855 24.5C8.27472 24.5 10.5171 22.2576 10.5171 19.4915C10.5171 18.8507 10.3965 18.2381 10.1773 17.6748" stroke="#C7A35D" stroke-miterlimit="10" stroke-linejoin="round"/>
<path d="M27.2653 13.48V15.9216" stroke="#C7A35D" stroke-miterlimit="10" stroke-linecap="round" stroke-linejoin="round"/>
<path d="M26.0444 14.7007H28.4861" stroke="#C7A35D" stroke-miterlimit="10" stroke-linecap="round" stroke-linejoin="round"/>
<path d="M26.7506 8.42529V10.1912" stroke="#C7A35D" stroke-miterlimit="10" stroke-linecap="round" stroke-linejoin="round"/>
<path d="M25.8677 9.30811H27.6336" stroke="#C7A35D" stroke-miterlimit="10" stroke-linecap="round" stroke-linejoin="round"/>
<path d="M22.4324 13.5458L23.2173 14.9811C23.2452 15.0321 23.2871 15.0741 23.3382 15.1019L24.7734 15.8869C24.9843 16.0022 24.9843 16.305 24.7734 16.4203L23.3382 17.2053C23.2871 17.2332 23.2452 17.2751 23.2173 17.3261L22.4324 18.7614C22.317 18.9722 22.0142 18.9722 21.8989 18.7614L21.114 17.3261C21.0861 17.2751 21.0441 17.2332 20.9931 17.2053L19.5578 16.4203C19.347 16.305 19.347 16.0022 19.5578 15.8869L20.9931 15.1019C21.0441 15.0741 21.0861 15.0321 21.114 14.9811L21.8989 13.5458C22.0142 13.335 22.317 13.335 22.4324 13.5458Z" stroke="#C7A35D" stroke-miterlimit="10" stroke-linejoin="round"/>
<path d="M22.9858 2.94605L23.6392 4.14055C23.6624 4.18301 23.6973 4.21792 23.7397 4.24112L24.9342 4.89443C25.1097 4.99038 25.1097 5.24243 24.9342 5.33838L23.7397 5.99169C23.6973 6.01489 23.6624 6.0498 23.6392 6.09226L22.9858 7.28676C22.8899 7.46222 22.6378 7.46222 22.5419 7.28676L21.8886 6.09226C21.8654 6.0498 21.8305 6.01489 21.788 5.99169L20.5935 5.33838C20.418 5.24243 20.418 4.99038 20.5935 4.89443L21.788 4.24112C21.8305 4.21792 21.8654 4.18301 21.8886 4.14055L22.5419 2.94605C22.6378 2.77059 22.8899 2.77059 22.9858 2.94605Z" stroke="#C7A35D" stroke-miterlimit="10" stroke-linecap="round" stroke-linejoin="round"/>
<path d="M21.9216 4.08047C20.1776 1.89835 17.4939 0.5 14.4832 0.5C11.8913 0.5 9.54189 1.53655 7.8255 3.21713" stroke="#C7A35D" stroke-miterlimit="10" stroke-linecap="round" stroke-linejoin="round"/>
<path d="M24.0007 11.4853V10.0173C24.0007 8.80998 23.7754 7.65546 23.3654 6.59277" stroke="#C7A35D" stroke-miterlimit="10" stroke-linejoin="round"/>
<path d="M6.5658 4.73486C5.55526 6.24634 4.9657 8.06307 4.9657 10.0177V11.4858" stroke="#C7A35D" stroke-miterlimit="10" stroke-linecap="round" stroke-linejoin="round"/>
<path d="M6.41173 18.7072L5.58042 19.5385L3.70918 17.6673C3.5264 17.4845 3.23004 17.4845 3.04726 17.6673L2.34265 18.3719C2.15987 18.5547 2.15987 18.851 2.34265 19.0338L4.8971 21.5884C5.15309 21.8444 5.53791 21.9419 5.89925 21.8178C6.04239 21.7686 6.16988 21.6822 6.27686 21.5752L10.7952 17.0568C10.978 16.8741 10.978 16.5777 10.7952 16.3949L10.0906 15.6903C9.90779 15.5075 9.61143 15.5075 9.42865 15.6903L7.80529 17.3137" stroke="#C7A35D" stroke-miterlimit="10" stroke-linecap="round" stroke-linejoin="round"/>
</svg>
