<svg width="25" height="24" viewBox="0 0 25 24" fill="none" xmlns="http://www.w3.org/2000/svg">
<path d="M21.196 11.8054L18.4861 7.48968C18.3858 7.33914 18.2352 7.23877 18.0847 7.23877H6.09096C5.94041 7.23877 5.73968 7.33914 5.6895 7.48968L2.97962 11.8054C2.87925 11.956 2.87925 12.2069 3.0298 12.3574L11.7115 23.8493C11.7616 23.8995 11.8118 23.9497 11.862 23.9497H11.9122C11.9624 23.9999 12.0627 23.9999 12.1129 23.9999C12.1631 23.9999 12.2635 23.9999 12.3136 23.9497H12.3638C12.414 23.8995 12.4642 23.8995 12.5144 23.8493L21.196 12.3072C21.2964 12.1567 21.2964 11.956 21.196 11.8054ZM6.09096 8.64389L7.99791 11.5545H4.28437L6.09096 8.64389ZM19.8411 11.5545H16.1276L18.0345 8.64389L19.8411 11.5545ZM9.90487 11.5545L12.0627 8.59371L14.2206 11.5545H9.90487ZM14.5217 12.5582L12.0627 21.6915L9.60377 12.5582H14.5217ZM15.1741 11.153L13.0664 8.24243H17.1312L15.1741 11.153ZM8.95139 11.153L6.99425 8.19225H11.0591L8.95139 11.153ZM8.54992 12.5582L10.9085 21.1896L4.38474 12.5582H8.54992ZM15.5755 12.5582H19.7407L13.2169 21.1896L15.5755 12.5582Z" fill="#C7A35D"/>
<path d="M4.88657 6.38578C5.03711 6.48615 5.23785 6.43597 5.43858 6.3356C5.58913 6.23523 5.68949 6.0345 5.63931 5.83377L5.33821 4.12755L6.5426 2.92316C6.69315 2.77261 6.74334 2.57188 6.69315 2.42133C6.64297 2.2206 6.49242 2.12023 6.29169 2.07005L4.58547 1.81913L3.83272 0.263461C3.68217 -0.0878202 3.07998 -0.0878202 2.92943 0.263461L2.17669 1.81913L0.470465 2.07005C0.269733 2.12023 0.119185 2.2206 0.0188186 2.42133C-0.0313643 2.62206 0.0188186 2.82279 0.169367 2.92316L1.42394 4.12755L1.12284 5.83377C1.07266 6.0345 1.17303 6.23523 1.32358 6.3356C1.47412 6.43597 1.67486 6.48615 1.87559 6.38578L3.38108 5.58285L4.88657 6.38578ZM2.27705 5.03084L2.4276 4.02718C2.47778 3.87663 2.37742 3.6759 2.27705 3.57554L1.57449 2.92316L2.52797 2.77261C2.67852 2.77261 2.82906 2.62206 2.92943 2.52169L3.38108 1.66858L3.78254 2.52169C3.88291 2.67224 4.03346 2.77261 4.184 2.77261L5.13748 2.92316L4.43492 3.62572C4.33455 3.72608 4.28437 3.87663 4.28437 4.02718L4.43492 5.03084L3.58181 4.5792C3.53163 4.52901 3.43126 4.47883 3.38108 4.47883C3.33089 4.47883 3.23053 4.47883 3.13016 4.52901L2.27705 5.03084Z" fill="#C7A35D"/>
<path d="M15.3748 2.42133C15.3246 2.2206 15.174 2.12023 14.9733 2.07005L13.2671 1.81913L12.5144 0.263461C12.3638 -0.0878202 11.7616 -0.0878202 11.6111 0.263461L10.8583 1.81913L9.15209 2.07005C8.95136 2.12023 8.80081 2.2206 8.75063 2.42133C8.70045 2.62206 8.75063 2.82279 8.90118 2.92316L10.1558 4.12755L9.85466 5.83377C9.80447 6.0345 9.90484 6.23523 10.0554 6.3356C10.2059 6.43597 10.4067 6.48615 10.6074 6.38578L12.1129 5.58285L13.6184 6.38578C13.7689 6.48615 13.9697 6.43597 14.1704 6.3356C14.3209 6.23523 14.4213 6.0345 14.3711 5.83377L14.07 4.12755L15.3246 2.92316C15.3748 2.82279 15.425 2.62206 15.3748 2.42133ZM13.1165 3.62572C13.0162 3.72608 12.966 3.92682 12.966 4.07737L13.1165 5.03084L12.2634 4.5792C12.2133 4.52901 12.1631 4.47883 12.0627 4.47883C11.9623 4.47883 11.9122 4.47883 11.8118 4.52901L10.9587 5.03084L11.1594 4.02718C11.2096 3.87663 11.1092 3.6759 11.0089 3.57554L10.3063 2.87297L11.2598 2.72243C11.4103 2.72243 11.5609 2.57188 11.6612 2.47151L12.0627 1.6184L12.5144 2.52169C12.5645 2.67224 12.7151 2.77261 12.9158 2.77261L13.8693 2.92316L13.1165 3.62572Z" fill="#C7A35D"/>
<path d="M23.655 2.07005L21.9487 1.81913L21.196 0.263461C21.0454 -0.0878202 20.4432 -0.0878202 20.2927 0.263461L19.54 1.81913L17.8337 2.07005C17.633 2.12023 17.4825 2.2206 17.4323 2.42133C17.3821 2.62206 17.4323 2.82279 17.5828 2.92316L18.8374 4.12755L18.5363 5.83377C18.4861 6.0345 18.5865 6.23523 18.737 6.3356C18.8876 6.43597 19.0883 6.48615 19.289 6.38578L20.7945 5.58285L22.3 6.38578C22.4506 6.48615 22.6513 6.43597 22.852 6.3356C23.0026 6.23523 23.1029 6.0345 23.0528 5.83377L22.7517 4.12755L24.0062 2.92316C24.1568 2.77261 24.207 2.57188 24.1568 2.42133C24.0062 2.2206 23.8557 2.12023 23.655 2.07005ZM21.8484 3.62572C21.748 3.72608 21.6978 3.92682 21.6978 4.07737L21.8484 5.03084L20.9953 4.5792C20.8447 4.47883 20.6942 4.47883 20.5436 4.5792L19.6905 5.03084L19.8411 4.02718C19.8912 3.87663 19.7909 3.6759 19.6905 3.57554L18.9879 2.87297L19.9414 2.72243C20.092 2.72243 20.2425 2.57188 20.3429 2.47151L20.7945 1.6184L21.196 2.52169C21.2462 2.67224 21.3967 2.77261 21.5975 2.77261L22.5509 2.92316L21.8484 3.62572Z" fill="#C7A35D"/>
</svg>
