<svg width="30" height="28" viewBox="0 0 30 28" fill="none" xmlns="http://www.w3.org/2000/svg">
<path fill-rule="evenodd" clip-rule="evenodd" d="M6.31644 11.7157C6.26452 11.7157 6.22991 11.6984 6.178 11.6811L3.73795 10.9023C3.66873 10.8677 3.59951 10.8158 3.54759 10.7466L2.02472 8.66996C1.99011 8.60074 1.9555 8.51421 1.9555 8.42769V5.8665C1.9555 5.77997 1.99011 5.69345 2.02472 5.62423L3.54759 3.54759C3.59951 3.47837 3.66873 3.42645 3.73795 3.39184L6.178 2.6131C6.26452 2.57849 6.35105 2.57849 6.43758 2.6131L8.87763 3.39184C8.96415 3.42645 9.03337 3.47837 9.08529 3.54759L10.5909 5.62423C10.6428 5.69345 10.6601 5.77997 10.6601 5.8665V8.42769C10.6601 8.51421 10.6428 8.60074 10.5909 8.66996L9.08529 10.7466C9.03337 10.8158 8.96415 10.8677 8.87763 10.9023L6.43758 11.6811C6.40297 11.6984 6.35105 11.7157 6.31644 11.7157ZM23.1026 28C22.8776 28 22.6873 27.8269 22.6873 27.602C22.6873 27.377 22.8776 27.204 23.1026 27.204C26.2002 27.204 28.7268 24.6774 28.7268 21.5797V12.7886C28.7268 6.178 23.3449 0.796044 16.7342 0.796044C14.5538 0.796044 12.4425 1.38443 10.5909 2.50927C11.8368 3.66873 12.6156 5.31273 12.6156 7.14709C12.6156 10.6255 9.79481 13.4635 6.31644 13.4635C5.76267 13.4635 5.2262 13.3943 4.72435 13.2559V21.5797C4.72435 24.6774 7.25093 27.204 10.3486 27.204C10.5735 27.204 10.7639 27.377 10.7639 27.602C10.7639 27.8269 10.5735 28 10.3486 28C6.80099 28 3.92831 25.1273 3.92831 21.5797V12.9963C1.6267 12.0445 0 9.7775 0 7.14709C0 3.66873 2.83807 0.830655 6.31644 0.830655C7.64895 0.830655 8.89493 1.24598 9.91595 1.97281C11.958 0.674907 14.3115 0 16.7169 0C23.7775 0 29.5229 5.74536 29.5229 12.7886V21.5797C29.5229 25.1273 26.6502 28 23.1026 28ZM16.5958 27.7231C11.7676 27.7231 7.83931 23.7948 7.83931 18.9839V15.1595C7.83931 14.9691 7.97775 14.796 8.16811 14.7614C8.23733 14.7441 16.3189 12.9444 18.2398 9.03337C18.3263 8.87763 18.4994 8.7911 18.6724 8.8084C18.8455 8.84302 18.9839 8.98146 19.0012 9.15451C19.0358 9.31026 19.6242 12.979 25.0581 14.7614C25.2311 14.8307 25.335 14.9864 25.335 15.1595V18.9839C25.335 23.7948 21.4067 27.7231 16.5958 27.7231ZM8.65266 15.471V18.9666C8.65266 23.3449 12.2176 26.9098 16.5958 26.9098C20.974 26.9098 24.5216 23.3449 24.5216 18.9666V15.4363C20.4549 14 18.9839 11.5426 18.4648 10.2101C16.0939 13.4981 10.1236 15.1075 8.65266 15.471ZM18.9493 18.2917C18.7936 18.2917 18.6378 18.2225 18.534 18.0841C18.3609 17.8591 18.3955 17.5476 18.6205 17.3572C19.1916 16.9073 19.953 16.665 20.7318 16.665C21.5278 16.665 22.2719 16.9073 22.8603 17.3572C23.0853 17.5476 23.1199 17.8591 22.9468 18.0841C22.7738 18.309 22.445 18.3609 22.22 18.1879C21.822 17.8764 21.3028 17.7033 20.7318 17.7033C20.178 17.7033 19.6588 17.8764 19.2608 18.1879C19.1743 18.2571 19.0705 18.2917 18.9493 18.2917ZM10.6428 18.2917C10.487 18.2917 10.3486 18.2225 10.2447 18.0841C10.0544 17.8591 10.1063 17.5476 10.3313 17.3572C10.9023 16.9073 11.6465 16.665 12.4425 16.665C13.2213 16.665 13.9827 16.9073 14.5538 17.3572C14.7787 17.5476 14.8133 17.8591 14.6403 18.0841C14.4672 18.309 14.1384 18.3609 13.9135 18.1879C13.5155 17.8764 12.9963 17.7033 12.4425 17.7033C11.8714 17.7033 11.3523 17.8764 10.9716 18.1879C10.8677 18.2571 10.7639 18.2917 10.6428 18.2917ZM16.7169 23.9679C15.9382 23.9679 15.1768 23.7256 14.6057 23.2756C14.3807 23.1026 14.3461 22.7738 14.5192 22.5488C14.7095 22.3239 15.0383 22.2892 15.2633 22.4623C15.644 22.7738 16.1632 22.9295 16.7169 22.9295C17.288 22.9295 17.8072 22.7738 18.2052 22.4623C18.4302 22.2892 18.759 22.3239 18.932 22.5488C19.1051 22.7738 19.0705 23.1026 18.8455 23.2756C18.2744 23.7256 17.513 23.9679 16.7169 23.9679ZM6.31644 1.644C3.2707 1.644 0.796044 4.11866 0.796044 7.14709C0.796044 10.1755 3.2707 12.6502 6.31644 12.6502C9.34487 12.6502 11.8195 10.1755 11.8195 7.14709C11.8195 4.11866 9.34487 1.644 6.31644 1.644ZM5.60692 8.66996C5.50309 8.66996 5.39926 8.63535 5.33004 8.54883L4.48208 7.71817C4.32633 7.56242 4.32633 7.30284 4.48208 7.14709C4.63782 6.99135 4.8974 6.99135 5.05315 7.14709L5.60692 7.70086L7.56242 5.74536C7.71817 5.58962 7.97775 5.58962 8.1335 5.74536C8.28925 5.90111 8.28925 6.16069 8.1335 6.31644L5.90111 8.54883C5.81459 8.63535 5.71075 8.66996 5.60692 8.66996ZM4.11866 10.1582L6.31644 10.885L8.49691 10.1582L9.86403 8.30655V6.00494L8.49691 4.13597L6.31644 3.42645L4.11866 4.13597L2.76885 6.00494V8.30655L4.11866 10.1582Z" fill="#C7A35D"/>
</svg>
