<svg width="25" height="28" viewBox="0 0 25 28" fill="none" xmlns="http://www.w3.org/2000/svg">
<path d="M21.0273 2.83584C10.9399 -0.946228 13.3246 -0.94433 3.24096 2.83584C2.37328 3.17094 2.86408 4.48954 3.74124 4.16962L10.3788 1.68052C11.5237 1.33023 12.7464 1.33023 13.8913 1.68052L20.5289 4.16962C21.8684 4.76104 22.7626 6.05211 22.8462 7.51405V17.3869C22.7493 18.94 22.0241 20.3877 20.8374 21.3949L15.1254 25.6611C13.316 26.8715 10.9541 26.8715 9.14474 25.6611L3.43177 21.3949C2.24608 20.3877 1.52175 18.9419 1.42397 17.3888V7.51405C1.42587 6.58752 0 6.58088 0 7.51405V17.3869C0.0977793 19.389 1.0338 21.2573 2.57928 22.5341L8.28941 26.806C10.5212 28.398 13.747 28.398 15.9788 26.806L21.6899 22.5341C23.2344 21.2573 24.1695 19.39 24.2682 17.3888V7.51405C24.1885 5.45689 22.924 3.63326 21.0273 2.83584Z" fill="#C7A35D"/>
<path d="M13.9938 11.8675L11.2522 14.6101L10.2754 13.6332C9.61656 12.9981 8.63403 13.9797 9.26817 14.6395L10.7491 16.1204C11.0272 16.3976 11.4782 16.3976 11.7563 16.1204L15.0011 12.8747C15.6476 12.213 14.6584 11.2096 13.9938 11.8675Z" fill="#C7A35D"/>
<path d="M19.0366 13.9902C19.0347 10.1778 15.9428 7.08965 12.1303 7.09155C2.99604 7.41147 3.00174 20.5822 12.1341 20.8965C15.9456 20.8917 19.0347 17.8017 19.0366 13.9902ZM6.65565 13.9902C6.88443 6.74885 17.3952 6.7574 17.6126 13.9978C17.3819 21.2401 6.88063 21.2268 6.65565 13.9902Z" fill="#C7A35D"/>
</svg>
