<svg width="29" height="28" viewBox="0 0 29 28" fill="none" xmlns="http://www.w3.org/2000/svg">
<path d="M16.879 10.8409C16.1286 10.5954 15.4554 9.65363 15.0854 8.97602C14.765 8.4342 13.9777 8.86678 14.262 9.42744C16.0517 13.0035 18.5515 12.7079 20.3944 9.38253C20.7897 8.73429 21.1454 8.11058 21.4814 7.42812C21.6816 7.01147 21.2432 6.56517 20.8215 6.76346C18.5059 7.77131 18.2717 11.3028 16.879 10.8409Z" fill="#C7A35D"/>
<path d="M28.0393 18.5222C27.1606 15.4105 23.7089 15.2086 21.0243 15.6051C22.0694 14.8386 22.8504 13.6742 23.142 12.0613C23.2098 11.7152 22.9629 11.3791 22.6118 11.3411C22.2755 11.3029 21.9721 11.5471 21.9373 11.8837C21.8788 12.4268 21.7386 12.9606 21.4889 13.4448C20.6259 14.8726 19.1444 15.6067 17.5715 15.7463C17.2514 15.7527 16.9314 15.7571 16.6114 15.7589C11.819 15.4669 7.1626 9.941 17.1148 1.88397C17.6666 2.54571 18.1042 3.31734 18.6254 4.04995C19.2767 4.96273 20.6521 3.9421 19.9707 3.05423C19.2959 2.37122 17.6316 -0.953063 16.5059 0.266359C14.2054 3.14043 10.7272 5.50636 10.0657 9.38574C9.50957 12.2585 10.9766 14.4556 13.1127 15.6773C11.243 15.8322 10.0397 17.3369 9.96971 18.734C8.07918 16.7797 6.37554 14.6144 4.06499 13.1244C1.80604 11.9165 -0.545622 14.6347 0.112313 16.863C0.215704 17.2735 0.509565 17.4659 0.821723 17.4915C0.912053 17.6713 0.99654 17.8389 1.043 17.9283C6.07407 28.1301 17.2022 29.1477 27.2464 27.179C27.8115 27.0595 27.7302 26.2677 27.1788 26.2392C16.9189 26.1126 7.63315 28.1952 1.86534 17.4551C1.79 17.3571 1.72645 17.2235 1.66434 17.0795C1.77275 16.8986 1.80874 16.6663 1.71989 16.3973C1.38316 15.4347 2.30618 13.8724 3.43726 14.3648C5.05371 15.255 7.06659 17.2283 8.5279 18.6337C8.88211 18.882 10.1292 20.2608 10.8939 20.654C11.4144 21.0097 12.1658 21.2178 13.1826 21.1765C14.6325 21.1992 16.0614 20.9642 17.4931 21.1294C17.6937 21.1547 18.0936 21.2336 18.2892 21.2847C18.8728 21.4286 19.1023 20.513 18.5151 20.3684C16.2929 19.7517 13.9447 20.5155 11.7431 19.9737C9.75978 18.6436 12.2675 16.438 13.9428 16.9786C16.6294 17.2436 19.3446 17.3928 22.0433 17.2196C25.2506 16.7248 27.3079 17.8463 27.0391 21.3487C27.0116 21.9151 27.8013 22.058 27.9695 21.5084C28.2474 20.5451 28.3211 19.4952 28.0393 18.5222Z" fill="#C7A35D"/>
</svg>
