<svg width="41" height="29" viewBox="0 0 41 29" fill="none" xmlns="http://www.w3.org/2000/svg">
<path d="M40.2681 0.5H0.5V28.5H40.2681V0.5Z" stroke="#C7A35D" stroke-miterlimit="10" stroke-linecap="round" stroke-linejoin="round"/>
<path d="M0.5 14.7031H40.2681" stroke="#C7A35D" stroke-miterlimit="10" stroke-linecap="round" stroke-linejoin="round"/>
<path d="M0.5 8.21094C4.47673 8.21094 4.47673 10.6458 8.45338 10.6458C12.43 10.6458 12.43 8.21094 16.4067 8.21094C20.3835 8.21094 20.3835 10.6458 24.3603 10.6458C28.3372 10.6458 28.3372 8.21094 32.3141 8.21094C36.2911 8.21094 36.2911 10.6458 40.2681 10.6458" stroke="#C7A35D" stroke-miterlimit="10" stroke-linecap="round" stroke-linejoin="round"/>
<path d="M0.5 18.7617C4.47673 18.7617 4.47673 21.1965 8.45338 21.1965C12.43 21.1965 12.43 18.7617 16.4067 18.7617C20.3835 18.7617 20.3835 21.1965 24.3603 21.1965C28.3372 21.1965 28.3372 18.7617 32.3141 18.7617C36.2911 18.7617 36.2911 21.1965 40.2681 21.1965" stroke="#C7A35D" stroke-miterlimit="10" stroke-linecap="round" stroke-linejoin="round"/>
<circle cx="3.7458" cy="3.7458" r="0.808295" fill="black" stroke="#C7A35D" stroke-miterlimit="10" stroke-linecap="round" stroke-linejoin="round"/>
<circle cx="6.18134" cy="6.18134" r="0.808295" fill="black" stroke="#C7A35D" stroke-miterlimit="10" stroke-linecap="round" stroke-linejoin="round"/>
<circle cx="8.61494" cy="3.7458" r="0.808295" fill="black" stroke="#C7A35D" stroke-miterlimit="10" stroke-linecap="round" stroke-linejoin="round"/>
<circle cx="11.863" cy="5.36884" r="0.808295" fill="black" stroke="#C7A35D" stroke-miterlimit="10" stroke-linecap="round" stroke-linejoin="round"/>
<circle cx="15.9196" cy="3.7458" r="0.808295" fill="black" stroke="#C7A35D" stroke-miterlimit="10" stroke-linecap="round" stroke-linejoin="round"/>
<circle cx="19.1657" cy="5.36884" r="0.808295" fill="black" stroke="#C7A35D" stroke-miterlimit="10" stroke-linecap="round" stroke-linejoin="round"/>
<circle cx="22.4138" cy="3.7458" r="0.808295" fill="black" stroke="#C7A35D" stroke-miterlimit="10" stroke-linecap="round" stroke-linejoin="round"/>
<circle cx="26.4704" cy="6.18134" r="0.808295" fill="black" stroke="#C7A35D" stroke-miterlimit="10" stroke-linecap="round" stroke-linejoin="round"/>
<circle cx="29.7165" cy="3.7458" r="0.808295" fill="black" stroke="#C7A35D" stroke-miterlimit="10" stroke-linecap="round" stroke-linejoin="round"/>
<circle cx="33.7751" cy="3.7458" r="0.808295" fill="black" stroke="#C7A35D" stroke-miterlimit="10" stroke-linecap="round" stroke-linejoin="round"/>
<circle cx="37.0212" cy="5.36884" r="0.808295" fill="black" stroke="#C7A35D" stroke-miterlimit="10" stroke-linecap="round" stroke-linejoin="round"/>
<circle cx="37.0212" cy="25.2536" r="0.808295" fill="black" stroke="#C7A35D" stroke-miterlimit="10" stroke-linecap="round" stroke-linejoin="round"/>
<circle cx="34.5876" cy="22.8181" r="0.808295" fill="black" stroke="#C7A35D" stroke-miterlimit="10" stroke-linecap="round" stroke-linejoin="round"/>
<circle cx="32.152" cy="25.2536" r="0.808295" fill="black" stroke="#C7A35D" stroke-miterlimit="10" stroke-linecap="round" stroke-linejoin="round"/>
<circle cx="28.906" cy="23.6306" r="0.808295" fill="black" stroke="#C7A35D" stroke-miterlimit="10" stroke-linecap="round" stroke-linejoin="round"/>
<circle cx="24.8474" cy="25.2536" r="0.808295" fill="black" stroke="#C7A35D" stroke-miterlimit="10" stroke-linecap="round" stroke-linejoin="round"/>
<circle cx="21.6013" cy="23.6306" r="0.808295" fill="black" stroke="#C7A35D" stroke-miterlimit="10" stroke-linecap="round" stroke-linejoin="round"/>
<circle cx="18.3552" cy="25.2536" r="0.808295" fill="black" stroke="#C7A35D" stroke-miterlimit="10" stroke-linecap="round" stroke-linejoin="round"/>
<circle cx="14.2966" cy="22.8181" r="0.808295" fill="black" stroke="#C7A35D" stroke-miterlimit="10" stroke-linecap="round" stroke-linejoin="round"/>
<circle cx="11.0505" cy="25.2536" r="0.808295" fill="black" stroke="#C7A35D" stroke-miterlimit="10" stroke-linecap="round" stroke-linejoin="round"/>
<circle cx="6.99189" cy="25.2536" r="0.808295" fill="black" stroke="#C7A35D" stroke-miterlimit="10" stroke-linecap="round" stroke-linejoin="round"/>
<circle cx="3.7458" cy="23.6306" r="0.808295" fill="black" stroke="#C7A35D" stroke-miterlimit="10" stroke-linecap="round" stroke-linejoin="round"/>
</svg>
