<svg width="28" height="28" viewBox="0 0 28 28" fill="none" xmlns="http://www.w3.org/2000/svg">
<path d="M20.4167 9.62508C20.4167 5.92611 17.4073 2.91675 13.7083 2.91675C10.0094 2.91675 7 5.92611 7 9.62508C7 13.3241 10.0094 16.3334 13.7083 16.3334C17.4073 16.3334 20.4167 13.3241 20.4167 9.62508ZM8.16667 9.62508C8.16667 6.56941 10.6527 4.08341 13.7083 4.08341C16.764 4.08341 19.25 6.56941 19.25 9.62508C19.25 12.6808 16.764 15.1667 13.7083 15.1667C10.6527 15.1667 8.16667 12.6808 8.16667 9.62508Z" fill="#C7A35D"/>
<path d="M16.7964 12.5868C17.6662 11.7169 17.6662 10.3016 16.7964 9.43171C15.0225 7.65791 15.101 7.73631 14.0225 6.65784C13.6011 6.2365 13.0409 6.00439 12.445 6.00439C11.2121 6.00439 10.2141 7.00219 10.2141 8.23535C10.2141 8.83123 10.4462 9.39146 10.8675 9.81286L13.6414 12.5868C14.0628 13.0081 14.6231 13.2402 15.2189 13.2402C15.8147 13.2402 16.375 13.0082 16.7964 12.5868ZM11.6924 7.48285C12.1083 7.06694 12.7815 7.06682 13.1975 7.48285L14.172 8.45731L12.6669 9.96243L11.6924 8.98797C11.2775 8.57299 11.2775 7.89778 11.6924 7.48285ZM13.4919 10.7874L14.997 9.28226L15.9714 10.2567C16.3864 10.6716 16.3864 11.3469 15.9714 11.7618C15.5556 12.1778 14.8823 12.1778 14.4664 11.7618L13.4919 10.7874Z" fill="#C7A35D"/>
<path d="M27.4167 26.8333H16.8V21.5833C16.8 21.2612 16.5388 21 16.2167 21H15.75V19.0315C20.1615 18.0762 23.3333 14.1626 23.3333 9.625C23.3333 4.31777 19.0156 0 13.7083 0C8.40111 0 4.08333 4.31777 4.08333 9.625C4.08333 14.1576 7.25019 18.0752 11.6667 19.0315V21H11.0833C10.7612 21 10.5 21.2612 10.5 21.5833V26.8333H0.583333C0.261158 26.8333 0 27.0945 0 27.4167C0 27.7388 0.261158 28 0.583333 28H27.4167C27.7388 28 28 27.7388 28 27.4167C28 27.0945 27.7388 26.8333 27.4167 26.8333ZM5.25 9.625C5.25 4.96107 9.04441 1.16667 13.7083 1.16667C18.3723 1.16667 22.1667 4.96107 22.1667 9.625C22.1667 13.7957 19.1834 17.3066 15.0732 17.9731C14.1719 18.1194 13.2446 18.1194 12.3434 17.9731C8.23322 17.3066 5.25 13.7957 5.25 9.625ZM12.8333 19.2102C13.4079 19.2624 14.0019 19.2628 14.5833 19.2102V21H12.8333V19.2102ZM11.6667 26.8333V22.1667H15.6333V26.8333H11.6667Z" fill="#C7A35D"/>
<path d="M1.47011 22.095L2.82857 22.838L3.57156 24.1965C3.79259 24.6006 4.37429 24.6003 4.59514 24.1965L5.33813 22.838L6.6966 22.095C7.1005 21.8741 7.10067 21.2924 6.6966 21.0714L5.33813 20.3285L4.59514 18.97C4.37411 18.5658 3.79241 18.5661 3.57156 18.97L2.82857 20.3285L1.47011 21.0714C1.28303 21.1738 1.16666 21.37 1.16666 21.5833C1.16666 21.7965 1.28303 21.9928 1.47011 22.095ZM3.53826 21.2701C3.63614 21.2165 3.71664 21.1361 3.77013 21.0382L4.08332 20.4656L4.39651 21.0382C4.45001 21.1361 4.53051 21.2165 4.62839 21.2701L5.20099 21.5833L4.62839 21.8964C4.53051 21.95 4.45001 22.0304 4.39651 22.1283L4.08332 22.7009L3.77013 22.1283C3.71664 22.0304 3.63614 21.95 3.53826 21.8964L2.96566 21.5833L3.53826 21.2701Z" fill="#C7A35D"/>
<path d="M21.3034 18.1549C20.8993 18.3759 20.8995 18.9577 21.3034 19.1785L22.6619 19.9215L23.4048 21.28C23.6258 21.6841 24.2076 21.6838 24.4284 21.28L25.1714 19.9215L26.5299 19.1785C26.934 18.9575 26.9337 18.3758 26.5299 18.1549L25.1714 17.4119L24.4284 16.0535C24.2075 15.6493 23.6257 15.6496 23.4048 16.0535L22.6619 17.4119L21.3034 18.1549ZM23.3716 18.3535C23.4695 18.3 23.5499 18.2195 23.6035 18.1216L23.9167 17.549L24.2299 18.1216C24.2834 18.2195 24.3638 18.3 24.4617 18.3535L25.0343 18.6667L24.4617 18.9799C24.3638 19.0334 24.2834 19.1139 24.2299 19.2118L23.9167 19.7844L23.6035 19.2118C23.5499 19.1139 23.4695 19.0334 23.3716 18.9799L22.799 18.6667L23.3716 18.3535Z" fill="#C7A35D"/>
</svg>
